;TYPE=PLATED
;Layer: PTH_Through
;EasyEDA Pro v2.2.36.7, 2025-05-26 04:11:26
;Gerber Generator version 0.3
M48
METRIC,LZ,0000.00000
;Hole size 1 = 0.30480 METRIC
T01C0.30480
;Hole size 2 = 0.40640 METRIC
T02C0.40640
;Hole size 3 = 0.80000 METRIC
T03C0.80000
;Hole size 4 = 0.91440 METRIC
T04C0.91440
;Hole size 5 = 1.00000 METRIC
T05C1.00000
;Hole size 6 = 1.04999 METRIC
T06C1.04999
;Hole size 7 = 1.05000 METRIC
T07C1.05000
;Hole size 8 = 1.10002 METRIC
T08C1.10002
;Hole size 9 = 1.20000 METRIC
T09C1.20000
;Hole size 10 = 3.20040 METRIC
T10C3.20040
%
G05
G90
T01
X31.496Y-46.3774
X38.59558Y-46.63163
X15.875Y-43.053
X15.85618Y-44.97682
X46.6092Y-40.513
X32.258Y-40.767
X23.42447Y-45.46046
X30.43836Y-41.37146
X30.12273Y-42.13346
X44.91647Y-42.83366
X53.3843Y-45.396
X44.40912Y-43.82622
X38.62052Y-45.46046
X17.68019Y-42.22574
X18.92305Y-43.86034
X19.93905Y-43.86034
X20.95505Y-43.86034
X18.92305Y-44.87634
X19.93905Y-44.87634
X20.95505Y-44.87634
X18.92305Y-45.89234
X19.93905Y-45.89234
X20.95505Y-45.89234
X33.98302Y-43.86026
X34.99902Y-43.86026
X36.01502Y-43.86026
X33.98302Y-45.89226
X34.99902Y-45.89226
X36.01502Y-45.89226
X48.61114Y-43.86026
X49.62714Y-43.86026
X50.64314Y-43.86026
X48.61114Y-45.89226
X49.62714Y-45.89226
X50.64314Y-45.89226
X35.306Y-40.767
X29.58391Y-42.67228
X48.387Y-9.91578
X48.387Y-11.18578
X48.387Y-12.446
X48.387Y-13.72578
X48.387Y-14.99578
X48.387Y-17.53578
X48.387Y-18.80578
X48.387Y-20.07578
X48.387Y-21.34578
X48.387Y-22.61578
X48.387Y-23.876
X48.35491Y-25.17809
X45.974Y-24.511
X45.212Y-24.32651
X57.31861Y-17.39242
X55.47892Y-27.09511
X62.1378Y-22.1902
X63.1825Y-18.2245
X42.21582Y-9.514
X44.196Y-18.06427
X44.196Y-19.44898
X42.4578Y-10.60399
X30.861Y-17.526
X29.8196Y-20.08418
X29.8196Y-18.75189
X47.498Y-42.418
X45.72Y-43.307
X26.52517Y-38.3286
X44.704Y-38.3286
X44.7548Y-41.51409
X32.385Y-41.656
X31.62141Y-38.3286
X16.71139Y-41.89758
X25.68598Y-37.6174
X46.228Y-38.2016
X62.992Y-13.716
X53.975Y-28.956
X17.19382Y-38.9382
X32.258Y-37.592
X30.607Y-22.606
X30.67795Y-23.876
X30.6832Y-24.892
X33.401Y-25.22039
X55.54116Y-23.114
X61.976Y-24.61793
X63.07361Y-28.87439
X44.04029Y-16.00174
X42.4578Y-11.7265
X46.44845Y-41.402
X48.20251Y-26.04169
X44.577Y-20.828
X18.288Y-9.144
X17.7038Y-11.811
X19.4818Y-11.68716
X20.03459Y-8.22359
X20.93974Y-8.90014
X22.987Y-7.7978
X20.73467Y-11.26047
X44.16459Y-24.98759
X57.785Y-7.112
X57.785Y-18.669
X50.8Y-24.638
X54.05942Y-17.73332
X55.75207Y-16.89193
X52.197Y-16.06506
X48.387Y-16.51
X40.34792Y-12.90467
X33.6042Y-12.2318
X33.69781Y-8.774
X37.0332Y-8.774
X56.66503Y-16.129
X64.262Y-12.7
X58.674Y-15.32113
X44.02755Y-22.77308
X44.83828Y-23.62259
X51.816Y-29.7688
X58.02696Y-30.5118
X58.03626Y-24.54956
X59.40476Y-24.66779
X19.177Y-15.24
X19.177Y-16.256
X52.16746Y-11.27346
X52.197Y-13.462
X49.657Y-26.67
X26.035Y-43.688
X31.03563Y-40.89174
X40.894Y-43.688
X56.76461Y-38.24536
X40.894Y-37.592
X56.3372Y-26.49083
X2.79654Y-37.84346
X2.79654Y-35.30346
X2.79654Y-32.76346
X2.79654Y-30.22346
X2.79654Y-27.68346
X2.79654Y-25.14346
X2.79654Y-22.60346
X2.79654Y-20.06346
X2.79654Y-17.52346
X2.79654Y-14.98346
X2.79654Y-12.44346
X2.79654Y-9.90346
X2.79654Y-7.36346
X2.79654Y-53.08346
X2.79654Y-50.54346
X2.79654Y-48.00346
X2.79654Y-45.46346
X5.33654Y-37.84346
X5.33654Y-35.30346
X5.33654Y-32.76346
X5.33654Y-30.22346
X5.33654Y-27.68346
X5.33654Y-22.60346
X5.33654Y-20.06346
X5.33654Y-17.52346
X5.33654Y-14.98346
X5.33654Y-12.44346
X5.33654Y-53.08346
X5.33654Y-50.54346
X5.33654Y-48.00346
X5.33654Y-45.46346
X5.33654Y-42.92346
X7.87654Y-37.84346
X7.87654Y-35.30346
X7.87654Y-32.76346
X7.87654Y-30.22346
X7.87654Y-27.68346
X7.87654Y-25.14346
X7.87654Y-22.60346
X7.87654Y-20.06346
X7.87654Y-17.52346
X7.87654Y-14.98346
X7.87654Y-12.44346
X7.87654Y-9.90346
X7.87654Y-7.36346
X7.87654Y-4.82346
X7.87654Y-2.28346
X7.87654Y-58.16346
X7.87654Y-55.62346
X7.87654Y-53.08346
X7.87654Y-50.54346
X7.87654Y-45.46346
X7.87654Y-42.92346
X10.41654Y-35.30346
X10.41654Y-30.22346
X10.41654Y-25.14346
X10.41654Y-22.60346
X10.41654Y-20.06346
X10.41654Y-17.52346
X10.41654Y-14.98346
X10.41654Y-12.44346
X10.41654Y-9.90346
X10.41654Y-7.36346
X10.41654Y-4.82346
X10.41654Y-2.28346
X10.41654Y-58.16346
X10.41654Y-55.62346
X10.41654Y-50.54346
X10.41654Y-48.00346
X10.41654Y-45.46346
X12.95654Y-2.28346
X12.95654Y-30.22346
X12.95654Y-25.14346
X12.95654Y-22.60346
X12.95654Y-20.06346
X12.95654Y-17.52346
X12.95654Y-58.16346
X12.95654Y-55.62346
X12.95654Y-50.54346
X12.95654Y-48.00346
X15.49654Y-7.36346
X15.49654Y-20.06346
X15.49654Y-40.38346
X15.49654Y-30.22346
X15.49654Y-25.14346
X15.49654Y-58.16346
X15.49654Y-55.62346
X15.49654Y-53.08346
X18.03654Y-7.36346
X18.03654Y-22.60346
X18.03654Y-20.06346
X18.03654Y-35.30346
X18.03654Y-32.76346
X18.03654Y-30.22346
X18.03654Y-58.16346
X20.57654Y-32.76346
X20.57654Y-30.22346
X20.57654Y-27.68346
X20.57654Y-25.14346
X20.57654Y-58.16346
X23.11654Y-30.22346
X23.11654Y-27.68346
X23.11654Y-25.14346
X23.11654Y-22.60346
X23.11654Y-20.06346
X23.11654Y-17.52346
X23.11654Y-14.98346
X23.11654Y-12.44346
X23.11654Y-58.16346
X23.11654Y-50.54346
X25.65654Y-30.22346
X25.65654Y-27.68346
X25.65654Y-22.60346
X25.65654Y-20.06346
X25.65654Y-17.52346
X25.65654Y-14.98346
X25.65654Y-12.44346
X25.65654Y-58.16346
X25.65654Y-55.62346
X25.65654Y-53.08346
X25.65654Y-50.54346
X28.19654Y-27.68346
X28.19654Y-25.14346
X28.19654Y-20.06346
X28.19654Y-17.52346
X28.19654Y-14.98346
X28.19654Y-12.44346
X28.19654Y-58.16346
X28.19654Y-55.62346
X28.19654Y-53.08346
X28.19654Y-50.54346
X30.73654Y-58.16346
X30.73654Y-53.08346
X33.27654Y-30.22346
X33.27654Y-27.68346
X33.27654Y-58.16346
X35.81654Y-30.22346
X35.81654Y-27.68346
X35.81654Y-50.54346
X35.81654Y-58.16346
X38.35654Y-27.68346
X38.35654Y-22.60346
X38.35654Y-20.06346
X38.35654Y-32.76346
X38.35654Y-58.16346
X38.35654Y-55.62346
X38.35654Y-50.54346
X40.89654Y-30.22346
X40.89654Y-27.68346
X40.89654Y-22.60346
X40.89654Y-32.76346
X40.89654Y-35.30346
X40.89654Y-58.16346
X40.89654Y-55.62346
X40.89654Y-53.08346
X40.89654Y-50.54346
X43.43654Y-58.16346
X43.43654Y-55.62346
X43.43654Y-53.08346
X43.43654Y-50.54346
X45.97654Y-58.16346
X48.51654Y-7.36346
X48.51654Y-32.76346
X48.51654Y-58.16346
X51.05654Y-9.90346
X51.05654Y-7.36346
X51.05654Y-35.30346
X51.05654Y-50.54346
X51.05654Y-58.16346
X53.59654Y-12.44346
X53.59654Y-7.36346
X53.59654Y-32.76346
X53.59654Y-58.16346
X53.59654Y-55.62346
X56.13654Y-7.36346
X56.13654Y-4.82346
X56.13654Y-58.16346
X58.67654Y-7.36346
X58.67654Y-58.16346
X58.67654Y-55.62346
X58.67654Y-53.08346
X58.67654Y-50.54346
X58.67654Y-48.00346
X58.67654Y-45.46346
X61.21654Y-14.98346
X61.21654Y-7.36346
X61.21654Y-2.28346
X61.21654Y-42.92346
X61.21654Y-40.38346
X61.21654Y-58.16346
X61.21654Y-53.08346
X61.21654Y-50.54346
X63.75654Y-27.68346
X63.75654Y-25.14346
X63.75654Y-22.60346
X63.75654Y-17.52346
X63.75654Y-53.08346
X63.75654Y-50.54346
X63.75654Y-48.00346
X63.75654Y-45.46346
X63.75654Y-42.92346
X63.75654Y-40.38346
X66.29654Y-53.08346
X66.29654Y-50.54346
X66.29654Y-48.00346
X66.29654Y-45.46346
X66.29654Y-42.92346
X66.29654Y-40.38346
X66.29654Y-37.84346
X66.29654Y-32.76346
X66.29654Y-30.22346
X66.29654Y-25.14346
X66.29654Y-22.60346
X66.29654Y-20.06346
X66.29654Y-9.90346
X66.29654Y-7.36346
X30.29499Y-44.47799
X66.30797Y-56.388
X65.99983Y-55.23801
X65.15799Y-54.39617
X64.008Y-54.08803
X62.85802Y-54.39617
X62.01617Y-55.23801
X61.70803Y-56.388
X62.01617Y-57.53798
X62.85802Y-58.37983
X64.008Y-58.68797
X65.15799Y-58.37983
X65.99983Y-57.53798
X6.56383Y-57.53798
X6.87197Y-56.388
X6.56383Y-55.23801
X5.72199Y-54.39617
X4.572Y-54.08803
X3.42202Y-54.39617
X2.58017Y-55.23801
X2.27203Y-56.388
X2.58017Y-57.53798
X3.42202Y-58.37983
X4.572Y-58.68797
X5.72199Y-58.37983
X6.56383Y-5.72198
X6.87197Y-4.572
X6.56383Y-3.42201
X5.72199Y-2.58017
X4.572Y-2.27203
X3.42202Y-2.58017
X2.58017Y-3.42201
X2.27203Y-4.572
X2.58017Y-5.72198
X3.42202Y-6.56383
X4.572Y-6.87197
X5.72199Y-6.56383
X65.99983Y-5.72198
X66.30797Y-4.572
X65.99983Y-3.42201
X65.15799Y-2.58017
X64.008Y-2.27203
X62.85802Y-2.58017
X62.01617Y-3.42201
X61.70803Y-4.572
X62.01617Y-5.72198
X62.85802Y-6.56383
X64.008Y-6.87197
X65.15799Y-6.56383
T02
X16.637Y-46.39277
X23.44622Y-46.43322
X46.101Y-46.355
X53.26688Y-46.43128
T03
X65.54704Y-19.04289G85X66.14704Y-19.04289
X61.26723Y-19.04289G85X62.0672Y-19.04289
X61.2672Y-27.69311G85X62.06722Y-27.69311
X65.54704Y-27.69311G85X66.14704Y-27.69311
T04
X16.93901Y-54.61
X18.939Y-54.61
X20.939Y-54.61
X22.93899Y-54.61
X31.67101Y-54.61
X33.671Y-54.61
X35.671Y-54.61
X37.67099Y-54.61
X46.53001Y-54.61
X48.53Y-54.61
X50.53Y-54.61
X52.52999Y-54.61
T05
X14.42999Y-46.56334G85X14.42999Y-49.06334
X8.43001Y-48.96333G85X8.43001Y-46.66336
X12.57974Y-52.51666G85X10.27975Y-52.51666
X61.849Y-48.99025
X61.849Y-46.99
X61.849Y-44.98975
T06
X15.367Y-3.81
T07
X15.367Y-1.27
X17.907Y-3.81
X17.907Y-1.27
X20.447Y-3.81
X20.447Y-1.27
X22.987Y-3.81
X22.987Y-1.27
X25.527Y-3.81
X25.527Y-1.27
X28.067Y-3.81
X28.067Y-1.27
X30.607Y-3.81
X30.607Y-1.27
X33.147Y-3.81
X33.147Y-1.27
X35.687Y-3.81
X35.687Y-1.27
X38.227Y-3.81
X38.227Y-1.27
X40.767Y-3.81
X40.767Y-1.27
X43.307Y-3.81
X43.307Y-1.27
X45.847Y-3.81
X45.847Y-1.27
X48.387Y-3.81
X48.387Y-1.27
X50.927Y-3.81
X50.927Y-1.27
X53.467Y-3.81
X53.467Y-1.27
T08
X19.558Y-28.829
X19.558Y-26.289
X19.558Y-23.749
X19.558Y-21.209
T09
X11.78Y-27.93898G85X11.08Y-27.93898
X11.78Y-32.639G85X11.08Y-32.639
X11.78Y-37.33902G85X11.08Y-37.33902
X23.749Y-35.941
X23.749Y-33.401
X47.00996Y-33.36379
X47.00996Y-35.90379
X64.897Y-35.941
X64.897Y-33.401
T10
X4.572Y-4.572
X64.008Y-4.572
X64.008Y-56.388
X4.572Y-56.388
M30