G04 Layer: BottomLayer*
G04 EasyEDA Pro v2.2.36.7, 2025-05-26 04:11:26*
G04 Gerber Generator version 0.3*
G04 Scale: 100 percent, Rotated: No, Reflected: No*
G04 Dimensions in millimeters*
G04 Leading zeros omitted, absolute positions, 4 integers and 5 decimals*
%FSLAX45Y45*%
%MOMM*%
%ADD10C,0.2032*%
%ADD11C,6.0*%
%ADD12O,1.8X4.19999*%
%ADD13O,1.8X3.99999*%
%ADD14O,3.99999X1.8*%
%ADD15O,1.8X1.2*%
%ADD16O,2.0003X1.2*%
%ADD17O,2.0X1.2*%
%ADD18O,2.59999X1.9*%
%ADD19R,1.7X1.7*%
%ADD20C,1.7*%
%ADD21R,1.8X1.8*%
%ADD22C,1.8*%
%ADD23R,2.0X2.0*%
%ADD24C,2.0*%
%ADD25R,2.0X2.0*%
%ADD26C,1.5*%
%ADD27R,1.5X1.5*%
%ADD28R,1.524X1.524*%
%ADD29C,1.524*%
%ADD30C,0.762*%
%ADD31C,0.6096*%
%ADD32C,1.778*%
%ADD33C,0.254*%
%ADD34C,0.4064*%
%ADD35C,0.381*%
G75*


G04 Copper Start*
G36*
G01X457200Y-35814D02*
G01X1469768Y-35814D01*
G01X1454589Y-49202D01*
G01X1442039Y-65081D01*
G01X1432519Y-82942D01*
G01X1426335Y-102214D01*
G01X1423685Y-122279D01*
G01X1424652Y-142496D01*
G01X1429208Y-162216D01*
G01X1437205Y-180809D01*
G01X1448387Y-197679D01*
G01X1462397Y-212286D01*
G01X1478785Y-224163D01*
G01X1497028Y-232929D01*
G01X1516541Y-238303D01*
G01X1536700Y-240114D01*
G01X1556859Y-238303D01*
G01X1576372Y-232929D01*
G01X1594615Y-224163D01*
G01X1611003Y-212286D01*
G01X1625013Y-197679D01*
G01X1636195Y-180809D01*
G01X1644192Y-162216D01*
G01X1648748Y-142496D01*
G01X1649715Y-122279D01*
G01X1647065Y-102214D01*
G01X1640881Y-82942D01*
G01X1631361Y-65081D01*
G01X1618811Y-49202D01*
G01X1603632Y-35814D01*
G01X1723768Y-35814D01*
G01X1708520Y-49275D01*
G01X1695928Y-65250D01*
G01X1686402Y-83221D01*
G01X1680247Y-102608D01*
G01X1677665Y-122783D01*
G01X1678737Y-143095D01*
G01X1683430Y-162886D01*
G01X1691591Y-181518D01*
G01X1702957Y-198386D01*
G01X1717160Y-212946D01*
G01X1733741Y-224726D01*
G01X1752164Y-233347D01*
G01X1771833Y-238529D01*
G01X1792112Y-240105D01*
G01X1793789Y-240072D01*
G01X1800139Y-239719D01*
G01X1800592Y-239694D01*
G01X1802247Y-239543D01*
G01X1803171Y-239424D01*
G01X1806953Y-238940D01*
G01X1808528Y-238738D01*
G01X1809921Y-238517D01*
G01X1815730Y-237410D01*
G01X1817046Y-237119D01*
G01X1836046Y-232334D01*
G01X1838555Y-231896D01*
G01X1840342Y-231758D01*
G01X1841469Y-231815D01*
G01X1842371Y-232000D01*
G01X1843583Y-232456D01*
G01X1845512Y-233532D01*
G01X1848330Y-235618D01*
G01X1852375Y-239323D01*
G01X1890946Y-277895D01*
G01X1890946Y-328603D01*
G01X1880125Y-311732D01*
G01X1866495Y-297037D01*
G01X1850486Y-284977D01*
G01X1832600Y-275933D01*
G01X1813398Y-270187D01*
G01X1793484Y-267920D01*
G01X1773482Y-269204D01*
G01X1754021Y-273998D01*
G01X1735711Y-282152D01*
G01X1719128Y-293409D01*
G01X1704792Y-307416D01*
G01X1693153Y-323734D01*
G01X1684577Y-341849D01*
G01X1679334Y-361194D01*
G01X1677586Y-381161D01*
G01X1679390Y-401123D01*
G01X1684689Y-420452D01*
G01X1693317Y-438543D01*
G01X1705002Y-454828D01*
G01X1719377Y-468794D01*
G01X1735992Y-480004D01*
G01X1754325Y-488106D01*
G01X1773800Y-492844D01*
G01X1793805Y-494071D01*
G01X1813713Y-491748D01*
G01X1832899Y-485948D01*
G01X1850759Y-476852D01*
G01X1866734Y-464747D01*
G01X1880321Y-450013D01*
G01X1891095Y-433112D01*
G01X1892793Y-441205D01*
G01X1896303Y-448693D01*
G01X1901436Y-455177D01*
G01X2096245Y-649986D01*
G01X2057400Y-649986D01*
G01X2048131Y-651206D01*
G01X2039493Y-654784D01*
G01X2032076Y-660476D01*
G01X1833467Y-859085D01*
G01X1831694Y-859828D01*
G01X1828872Y-860494D01*
G01X1824787Y-860956D01*
G01X1811514Y-863670D01*
G01X1799345Y-869626D01*
G01X1789058Y-878443D01*
G01X1781311Y-889558D01*
G01X1776599Y-902260D01*
G01X1775223Y-915739D01*
G01X1777270Y-929131D01*
G01X1782611Y-941583D01*
G01X1790903Y-952297D01*
G01X1801617Y-960589D01*
G01X1814069Y-965930D01*
G01X1827461Y-967977D01*
G01X1840940Y-966601D01*
G01X1853642Y-961889D01*
G01X1864757Y-954142D01*
G01X1873574Y-943855D01*
G01X1879530Y-931686D01*
G01X1882244Y-918413D01*
G01X1882706Y-914328D01*
G01X1883372Y-911506D01*
G01X1884115Y-909734D01*
G01X1953114Y-840735D01*
G01X1958838Y-852046D01*
G01X1967060Y-861696D01*
G01X1977318Y-869145D01*
G01X1989038Y-873977D01*
G01X2001566Y-875920D01*
G01X2014199Y-874866D01*
G01X2026232Y-870875D01*
G01X2036990Y-864169D01*
G01X2045872Y-855123D01*
G01X2052381Y-844244D01*
G01X2056153Y-832141D01*
G01X2056976Y-819491D01*
G01X2119293Y-757174D01*
G01X2250107Y-757174D01*
G01X2246371Y-768204D01*
G01X2245106Y-779780D01*
G01X2246371Y-791356D01*
G01X2250107Y-802386D01*
G01X2145788Y-802386D01*
G01X2136519Y-803606D01*
G01X2127881Y-807184D01*
G01X2120464Y-812876D01*
G01X2096843Y-836497D01*
G01X2084192Y-837321D01*
G01X2072089Y-841092D01*
G01X2061210Y-847601D01*
G01X2052165Y-856484D01*
G01X2045459Y-867242D01*
G01X2041467Y-879274D01*
G01X2040414Y-891908D01*
G01X2042357Y-904435D01*
G01X2047188Y-916156D01*
G01X2054637Y-926414D01*
G01X2064287Y-934635D01*
G01X2075598Y-940359D01*
G01X1941476Y-1074482D01*
G01X1841184Y-1074482D01*
G01X1831915Y-1075702D01*
G01X1823277Y-1079280D01*
G01X1815860Y-1084972D01*
G01X1775047Y-1125785D01*
G01X1773274Y-1126528D01*
G01X1770452Y-1127194D01*
G01X1766367Y-1127656D01*
G01X1753094Y-1130370D01*
G01X1740925Y-1136326D01*
G01X1730638Y-1145143D01*
G01X1722891Y-1156258D01*
G01X1718179Y-1168960D01*
G01X1716803Y-1182439D01*
G01X1718850Y-1195831D01*
G01X1724191Y-1208283D01*
G01X1732483Y-1218997D01*
G01X1743197Y-1227289D01*
G01X1755649Y-1232630D01*
G01X1769041Y-1234677D01*
G01X1782520Y-1233301D01*
G01X1795222Y-1228589D01*
G01X1806337Y-1220842D01*
G01X1815154Y-1210555D01*
G01X1821110Y-1198386D01*
G01X1823824Y-1185113D01*
G01X1824286Y-1181028D01*
G01X1824952Y-1178206D01*
G01X1825695Y-1176434D01*
G01X1856019Y-1146110D01*
G01X1899587Y-1146110D01*
G01X1895415Y-1159327D01*
G01X1894771Y-1173171D01*
G01X1897700Y-1186718D01*
G01X1904004Y-1199060D01*
G01X1913262Y-1209374D01*
G01X1924856Y-1216968D01*
G01X1938009Y-1221336D01*
G01X1951842Y-1222185D01*
G01X1965431Y-1219458D01*
G01X1977866Y-1213338D01*
G01X1988315Y-1204233D01*
G01X1996081Y-1192754D01*
G01X2000643Y-1179667D01*
G01X2001697Y-1165847D01*
G01X2023122Y-1144423D01*
G01X2028846Y-1155734D01*
G01X2037068Y-1165384D01*
G01X2047326Y-1172833D01*
G01X2059046Y-1177665D01*
G01X2071574Y-1179608D01*
G01X2084207Y-1178554D01*
G01X2096240Y-1174563D01*
G01X2106998Y-1167857D01*
G01X2115880Y-1158811D01*
G01X2122389Y-1147932D01*
G01X2126161Y-1135829D01*
G01X2126984Y-1123179D01*
G01X2269469Y-980694D01*
G01X3038245Y-980694D01*
G01X3247636Y-1190084D01*
G01X3255053Y-1195776D01*
G01X3263691Y-1199354D01*
G01X3272960Y-1200574D01*
G01X3311827Y-1200574D01*
G01X3307877Y-1212620D01*
G01X3306866Y-1225257D01*
G01X3308852Y-1237778D01*
G01X3313724Y-1249482D01*
G01X3321208Y-1259714D01*
G01X3330886Y-1267902D01*
G01X3342217Y-1273588D01*
G01X3354566Y-1276453D01*
G01X3367243Y-1276338D01*
G01X3379538Y-1273248D01*
G01X3390763Y-1267357D01*
G01X3400291Y-1258994D01*
G01X3951543Y-1258994D01*
G01X3979412Y-1286869D01*
G01X3980184Y-1288672D01*
G01X3980901Y-1291568D01*
G01X3981463Y-1295786D01*
G01X3984062Y-1307751D01*
G01X3989308Y-1318813D01*
G01X3996928Y-1328396D01*
G01X4006524Y-1335999D01*
G01X4017595Y-1341227D01*
G01X4029563Y-1343805D01*
G01X4041805Y-1343600D01*
G01X4053680Y-1340622D01*
G01X4064570Y-1335027D01*
G01X4073906Y-1327106D01*
G01X4073906Y-1465430D01*
G01X4075126Y-1474700D01*
G01X4078704Y-1483337D01*
G01X4084396Y-1490755D01*
G01X4236466Y-1642825D01*
G01X4236466Y-1897380D01*
G01X4237686Y-1906649D01*
G01X4241264Y-1915287D01*
G01X4246956Y-1922704D01*
G01X4402385Y-2078133D01*
G01X4403128Y-2079906D01*
G01X4403794Y-2082728D01*
G01X4404256Y-2086813D01*
G01X4406970Y-2100086D01*
G01X4412926Y-2112255D01*
G01X4421743Y-2122542D01*
G01X4432858Y-2130289D01*
G01X4445560Y-2135001D01*
G01X4459039Y-2136377D01*
G01X4472431Y-2134330D01*
G01X4484883Y-2128989D01*
G01X4495597Y-2120697D01*
G01X4503889Y-2109983D01*
G01X4509230Y-2097531D01*
G01X4511277Y-2084139D01*
G01X4509901Y-2070660D01*
G01X4505189Y-2057958D01*
G01X4497442Y-2046843D01*
G01X4487155Y-2038026D01*
G01X4474986Y-2032070D01*
G01X4461713Y-2029356D01*
G01X4457628Y-2028894D01*
G01X4454806Y-2028228D01*
G01X4453034Y-2027485D01*
G01X4423871Y-1998322D01*
G01X4437105Y-1995553D01*
G01X4449226Y-1989560D01*
G01X4459461Y-1980724D01*
G01X4526026Y-2047289D01*
G01X4526026Y-2329219D01*
G01X4518298Y-2321220D01*
G01X4509085Y-2314990D01*
G01X4498785Y-2310795D01*
G01X4487841Y-2308816D01*
G01X4483756Y-2308353D01*
G01X4480934Y-2307687D01*
G01X4479162Y-2306944D01*
G01X4457710Y-2285492D01*
G01X4457039Y-2283798D01*
G01X4456524Y-2281261D01*
G01X4456348Y-2277754D01*
G01X4454749Y-2264306D01*
G01X4449830Y-2251689D01*
G01X4441905Y-2240707D01*
G01X4431481Y-2232062D01*
G01X4419223Y-2226306D01*
G01X4405913Y-2223807D01*
G01X4392402Y-2224723D01*
G01X4379551Y-2228998D01*
G01X4368183Y-2236356D01*
G01X4359021Y-2246330D01*
G01X4352653Y-2258281D01*
G01X4349483Y-2271447D01*
G01X4349715Y-2284988D01*
G01X4353333Y-2298038D01*
G01X4360107Y-2309764D01*
G01X4369604Y-2319418D01*
G01X4381218Y-2326384D01*
G01X4394207Y-2330216D01*
G01X4398687Y-2331043D01*
G01X4401746Y-2331907D01*
G01X4403669Y-2332780D01*
G01X4403904Y-2332984D01*
G01X4428513Y-2357592D01*
G01X4429256Y-2359365D01*
G01X4429922Y-2362187D01*
G01X4430385Y-2366272D01*
G01X4432377Y-2377261D01*
G01X4436603Y-2387599D01*
G01X4442881Y-2396837D01*
G01X4399949Y-2396837D01*
G01X4390680Y-2398057D01*
G01X4382042Y-2401635D01*
G01X4374625Y-2407326D01*
G01X4300296Y-2481656D01*
G01X4294604Y-2489073D01*
G01X4291026Y-2497711D01*
G01X4289806Y-2506980D01*
G01X4289806Y-2562757D01*
G01X4223764Y-2496715D01*
G01X4216346Y-2491024D01*
G01X4207709Y-2487446D01*
G01X4198439Y-2486225D01*
G01X3382514Y-2486226D01*
G01X3380735Y-2485498D01*
G01X3378269Y-2483973D01*
G01X3375050Y-2481409D01*
G01X3363745Y-2473943D01*
G01X3350929Y-2469551D01*
G01X3337421Y-2468512D01*
G01X3324084Y-2470895D01*
G01X3311771Y-2476545D01*
G01X3301268Y-2485102D01*
G01X3293246Y-2496020D01*
G01X3288218Y-2508600D01*
G01X3286506Y-2522039D01*
G01X3288218Y-2535479D01*
G01X3293246Y-2548059D01*
G01X3301268Y-2558977D01*
G01X3311771Y-2567534D01*
G01X3324084Y-2573184D01*
G01X3337421Y-2575566D01*
G01X3350929Y-2574528D01*
G01X3363745Y-2570136D01*
G01X3375050Y-2562670D01*
G01X3378269Y-2560106D01*
G01X3380735Y-2558581D01*
G01X3382513Y-2557853D01*
G01X4183605Y-2557853D01*
G01X4254246Y-2628495D01*
G01X4254246Y-4314388D01*
G01X4255466Y-4323657D01*
G01X4259044Y-4332295D01*
G01X4264736Y-4339712D01*
G01X4395348Y-4470324D01*
G01X4402765Y-4476016D01*
G01X4411403Y-4479594D01*
G01X4420672Y-4480814D01*
G01X5087959Y-4480814D01*
G01X5097228Y-4479594D01*
G01X5105866Y-4476016D01*
G01X5113283Y-4470324D01*
G01X5128193Y-4455414D01*
G01X5293765Y-4455414D01*
G01X5302616Y-4464264D01*
G01X5302616Y-4497185D01*
G01X5301888Y-4498964D01*
G01X5300363Y-4501431D01*
G01X5297799Y-4504650D01*
G01X5290576Y-4515467D01*
G01X5286172Y-4527705D01*
G01X5284846Y-4540644D01*
G01X5286675Y-4553522D01*
G01X5291553Y-4565579D01*
G01X5299192Y-4576106D01*
G01X5309142Y-4584483D01*
G01X5296191Y-4590052D01*
G01X5284858Y-4598437D01*
G01X5275743Y-4609191D01*
G01X5269330Y-4621746D01*
G01X5265960Y-4635434D01*
G01X5265810Y-4649531D01*
G01X5268889Y-4663288D01*
G01X5275033Y-4675976D01*
G01X5283918Y-4686922D01*
G01X5295070Y-4695545D01*
G01X5307900Y-4701388D01*
G01X5321726Y-4704141D01*
G01X5323008Y-4704337D01*
G01X5326403Y-4705877D01*
G01X5329780Y-4708098D01*
G01X5333227Y-4711092D01*
G01X5341366Y-4719231D01*
G01X5341366Y-5189009D01*
G01X5222287Y-5308088D01*
G01X5215384Y-5317084D01*
G01X5211045Y-5327559D01*
G01X5209565Y-5338801D01*
G01X5209565Y-5356766D01*
G01X5209421Y-5360142D01*
G01X5209119Y-5362340D01*
G01X5208716Y-5363978D01*
G01X5208246Y-5365261D01*
G01X5207676Y-5366410D01*
G01X5207148Y-5367244D01*
G01X5204224Y-5370765D01*
G01X5199946Y-5374868D01*
G01X5194090Y-5380030D01*
G01X5193777Y-5380311D01*
G01X5187123Y-5386394D01*
G01X5186057Y-5387434D01*
G01X5184051Y-5389520D01*
G01X5171346Y-5404468D01*
G01X5161826Y-5421621D01*
G01X5155864Y-5440310D01*
G01X5153693Y-5459807D01*
G01X5155395Y-5479350D01*
G01X5160906Y-5498178D01*
G01X5170011Y-5515554D01*
G01X5182353Y-5530802D01*
G01X5197452Y-5543327D01*
G01X5214718Y-5552640D01*
G01X5233478Y-5558377D01*
G01X5252999Y-5560314D01*
G01X5272521Y-5558377D01*
G01X5291281Y-5552640D01*
G01X5308547Y-5543327D01*
G01X5323646Y-5530802D01*
G01X5335988Y-5515554D01*
G01X5345092Y-5498178D01*
G01X5350603Y-5479350D01*
G01X5352306Y-5459807D01*
G01X5350134Y-5440310D01*
G01X5344172Y-5421621D01*
G01X5334653Y-5404468D01*
G01X5321948Y-5389520D01*
G01X5319942Y-5387434D01*
G01X5318876Y-5386394D01*
G01X5312222Y-5380311D01*
G01X5311909Y-5380030D01*
G01X5306052Y-5374868D01*
G01X5301774Y-5370765D01*
G01X5298851Y-5367244D01*
G01X5298323Y-5366410D01*
G01X5297752Y-5365261D01*
G01X5297283Y-5363978D01*
G01X5296880Y-5362340D01*
G01X5296577Y-5360142D01*
G01X5296433Y-5356792D01*
G01X5415512Y-5237712D01*
G01X5422415Y-5228717D01*
G01X5426754Y-5218242D01*
G01X5428234Y-5207000D01*
G01X5428234Y-4701241D01*
G01X5427939Y-4699000D01*
G01X6086786Y-4699000D01*
G01X6088671Y-4718141D01*
G01X6094255Y-4736547D01*
G01X6103321Y-4753509D01*
G01X6115523Y-4768377D01*
G01X6130391Y-4780579D01*
G01X6147353Y-4789645D01*
G01X6165759Y-4795229D01*
G01X6184900Y-4797114D01*
G01X6204041Y-4795229D01*
G01X6222447Y-4789645D01*
G01X6239409Y-4780579D01*
G01X6254277Y-4768377D01*
G01X6266479Y-4753509D01*
G01X6275545Y-4736547D01*
G01X6281129Y-4718141D01*
G01X6283014Y-4699000D01*
G01X6281129Y-4679859D01*
G01X6275545Y-4661453D01*
G01X6266479Y-4644491D01*
G01X6254277Y-4629623D01*
G01X6239409Y-4617421D01*
G01X6222447Y-4608355D01*
G01X6204041Y-4602771D01*
G01X6184900Y-4600886D01*
G01X6184900Y-4600886D01*
G01X6165759Y-4602771D01*
G01X6147353Y-4608355D01*
G01X6130391Y-4617421D01*
G01X6115523Y-4629623D01*
G01X6103321Y-4644491D01*
G01X6094255Y-4661453D01*
G01X6088671Y-4679859D01*
G01X6086786Y-4699000D01*
G01X5427939Y-4699000D01*
G01X5426754Y-4689999D01*
G01X5422415Y-4679524D01*
G01X5415513Y-4670528D01*
G01X5394653Y-4649668D01*
G01X5391657Y-4646221D01*
G01X5389437Y-4642843D01*
G01X5387850Y-4639282D01*
G01X5387711Y-4638295D01*
G01X5384740Y-4623708D01*
G01X5378335Y-4610269D01*
G01X5368876Y-4598774D01*
G01X5356922Y-4589902D01*
G01X5369911Y-4582973D01*
G01X5380524Y-4572771D01*
G01X5387961Y-4560067D01*
G01X5391662Y-4545818D01*
G01X5391345Y-4531100D01*
G01X5387036Y-4517023D01*
G01X5379060Y-4504650D01*
G01X5376496Y-4501431D01*
G01X5374971Y-4498964D01*
G01X5374244Y-4497186D01*
G01X5374244Y-4449430D01*
G01X5373023Y-4440160D01*
G01X5369445Y-4431523D01*
G01X5363754Y-4424105D01*
G01X5333924Y-4394276D01*
G01X5326507Y-4388584D01*
G01X5317869Y-4385006D01*
G01X5308600Y-4383786D01*
G01X5113359Y-4383786D01*
G01X5104089Y-4385006D01*
G01X5095452Y-4388584D01*
G01X5088035Y-4394276D01*
G01X5073124Y-4409186D01*
G01X4487459Y-4409186D01*
G01X4492830Y-4395919D01*
G01X4494498Y-4381703D01*
G01X4492344Y-4367553D01*
G01X4486522Y-4354477D01*
G01X4477446Y-4343409D01*
G01X4465765Y-4335138D01*
G01X4452311Y-4330254D01*
G01X4438044Y-4329104D01*
G01X4361434Y-4252495D01*
G01X4361434Y-3591843D01*
G01X4434586Y-3664995D01*
G01X4434586Y-3792989D01*
G01X4427070Y-3801320D01*
G01X4421452Y-3811032D01*
G01X4417980Y-3821702D01*
G01X4416806Y-3832860D01*
G01X4417980Y-3844018D01*
G01X4421452Y-3854688D01*
G01X4427070Y-3864400D01*
G01X4434586Y-3872731D01*
G01X4434586Y-4116768D01*
G01X4427761Y-4127011D01*
G01X4423454Y-4138541D01*
G01X4421890Y-4150749D01*
G01X4423153Y-4162993D01*
G01X4427175Y-4174625D01*
G01X4433746Y-4185033D01*
G01X4442517Y-4193667D01*
G01X4453027Y-4200073D01*
G01X4464721Y-4203912D01*
G01X4476983Y-4204982D01*
G01X4489165Y-4203226D01*
G01X4500626Y-4198738D01*
G01X4500626Y-4223739D01*
G01X4496314Y-4228050D01*
G01X4494542Y-4228793D01*
G01X4491720Y-4229459D01*
G01X4487635Y-4229922D01*
G01X4474213Y-4232687D01*
G01X4461930Y-4238765D01*
G01X4451591Y-4247759D01*
G01X4443871Y-4259081D01*
G01X4439274Y-4271991D01*
G01X4438102Y-4285645D01*
G01X4440430Y-4299149D01*
G01X4446107Y-4311622D01*
G01X4454762Y-4322247D01*
G01X4465828Y-4330330D01*
G01X4478582Y-4335343D01*
G01X4492191Y-4336957D01*
G01X4505764Y-4335067D01*
G01X4518414Y-4329797D01*
G01X4520099Y-4344064D01*
G01X4525514Y-4357371D01*
G01X4534269Y-4368762D01*
G01X4545735Y-4377417D01*
G01X4559089Y-4382716D01*
G01X4573371Y-4384276D01*
G01X4575324Y-4384301D01*
G01X4585724Y-4389957D01*
G01X4597400Y-4391914D01*
G01X4635500Y-4391914D01*
G01X4644769Y-4390694D01*
G01X4653407Y-4387116D01*
G01X4660824Y-4381424D01*
G01X4745133Y-4297115D01*
G01X4746906Y-4296372D01*
G01X4749728Y-4295706D01*
G01X4753813Y-4295244D01*
G01X4767086Y-4292530D01*
G01X4779255Y-4286574D01*
G01X4789542Y-4277757D01*
G01X4797289Y-4266642D01*
G01X4802001Y-4253940D01*
G01X4803377Y-4240461D01*
G01X4801330Y-4227069D01*
G01X4795989Y-4214617D01*
G01X4787697Y-4203903D01*
G01X4776983Y-4195611D01*
G01X4764531Y-4190270D01*
G01X4751139Y-4188223D01*
G01X4737660Y-4189599D01*
G01X4724958Y-4194311D01*
G01X4713843Y-4202058D01*
G01X4705026Y-4212345D01*
G01X4699070Y-4224514D01*
G01X4696356Y-4237787D01*
G01X4695894Y-4241872D01*
G01X4695228Y-4244694D01*
G01X4694485Y-4246466D01*
G01X4623842Y-4317109D01*
G01X4618558Y-4304155D01*
G01X4610102Y-4293010D01*
G01X4599049Y-4284433D01*
G01X4586153Y-4279009D01*
G01X4572293Y-4277107D01*
G01X4558412Y-4278857D01*
G01X4545458Y-4284140D01*
G01X4545554Y-4283293D01*
G01X4546220Y-4280471D01*
G01X4546962Y-4278699D01*
G01X4561764Y-4263897D01*
G01X4567456Y-4256480D01*
G01X4571034Y-4247842D01*
G01X4572254Y-4238573D01*
G01X4572254Y-4152109D01*
G01X4571613Y-4145365D01*
G01X4569714Y-4138862D01*
G01X4569714Y-3827522D01*
G01X4572074Y-3837459D01*
G01X4576277Y-3846767D01*
G01X4582169Y-3855110D01*
G01X4584734Y-3858329D01*
G01X4586258Y-3860795D01*
G01X4586986Y-3862573D01*
G01X4586986Y-4013180D01*
G01X4588206Y-4022449D01*
G01X4591784Y-4031087D01*
G01X4597476Y-4038504D01*
G01X4605605Y-4046633D01*
G01X4606348Y-4048406D01*
G01X4607014Y-4051228D01*
G01X4607477Y-4055313D01*
G01X4610124Y-4068388D01*
G01X4615918Y-4080405D01*
G01X4624500Y-4090618D01*
G01X4612750Y-4097280D01*
G01X4603038Y-4106668D01*
G01X4595981Y-4118186D01*
G01X4592029Y-4131102D01*
G01X4591432Y-4144597D01*
G01X4594228Y-4157812D01*
G01X4600239Y-4169908D01*
G01X4609084Y-4180118D01*
G01X4620200Y-4187791D01*
G01X4632882Y-4192442D01*
G01X4646324Y-4193774D01*
G01X4659672Y-4191702D01*
G01X4668742Y-4189470D01*
G01X4672254Y-4188929D01*
G01X4675703Y-4188714D01*
G01X4699000Y-4188714D01*
G01X4708269Y-4187494D01*
G01X4716907Y-4183916D01*
G01X4724324Y-4178224D01*
G01X4749724Y-4152824D01*
G01X4755416Y-4145407D01*
G01X4758994Y-4136769D01*
G01X4760214Y-4127500D01*
G01X4760214Y-3803582D01*
G01X4758994Y-3794312D01*
G01X4755416Y-3785675D01*
G01X4749724Y-3778257D01*
G01X4683745Y-3712278D01*
G01X4705643Y-3713405D01*
G01X4727394Y-3710629D01*
G01X4748308Y-3704039D01*
G01X4767720Y-3693844D01*
G01X4785016Y-3680366D01*
G01X4799647Y-3664034D01*
G01X4811149Y-3645365D01*
G01X4819156Y-3624952D01*
G01X4823415Y-3603443D01*
G01X4823791Y-3581518D01*
G01X4820272Y-3559876D01*
G01X4812969Y-3539200D01*
G01X4802114Y-3520148D01*
G01X4788051Y-3503324D01*
G01X4771227Y-3489262D01*
G01X4752175Y-3478407D01*
G01X4731500Y-3471104D01*
G01X4709857Y-3467584D01*
G01X4687933Y-3467960D01*
G01X4666423Y-3472219D01*
G01X4646010Y-3480227D01*
G01X4627342Y-3491728D01*
G01X4611009Y-3506359D01*
G01X4597532Y-3523655D01*
G01X4587336Y-3543068D01*
G01X4580746Y-3563981D01*
G01X4577970Y-3585732D01*
G01X4579097Y-3607630D01*
G01X4468114Y-3496647D01*
G01X4468114Y-2935835D01*
G01X4763966Y-2639983D01*
G01X4777836Y-2639983D01*
G01X4779616Y-2640711D01*
G01X4782082Y-2642236D01*
G01X4785301Y-2644800D01*
G01X4796699Y-2652311D01*
G01X4809625Y-2656699D01*
G01X4823239Y-2657680D01*
G01X4836660Y-2655189D01*
G01X4849017Y-2649389D01*
G01X4859507Y-2640655D01*
G01X4867451Y-2629555D01*
G01X4872333Y-2616808D01*
G01X4873837Y-2603241D01*
G01X4871864Y-2589734D01*
G01X4866543Y-2577164D01*
G01X4858220Y-2566345D01*
G01X4867474Y-2560814D01*
G01X4875434Y-2553543D01*
G01X4881777Y-2544826D01*
G01X4952109Y-2615158D01*
G01X4939805Y-2620077D01*
G01X4929083Y-2627865D01*
G01X4920600Y-2638046D01*
G01X4914875Y-2649997D01*
G01X4912256Y-2662987D01*
G01X4911794Y-2667072D01*
G01X4911128Y-2669894D01*
G01X4910385Y-2671666D01*
G01X4675672Y-2906379D01*
G01X4669981Y-2913797D01*
G01X4666403Y-2922434D01*
G01X4665182Y-2931704D01*
G01X4665182Y-3198279D01*
G01X4663868Y-3206197D01*
G01X4660068Y-3213265D01*
G01X4600997Y-3213265D01*
G01X4592151Y-3215025D01*
G01X4584653Y-3220035D01*
G01X4579642Y-3227534D01*
G01X4577883Y-3236379D01*
G01X4577883Y-3436379D01*
G01X4579642Y-3445224D01*
G01X4584653Y-3452723D01*
G01X4592151Y-3457733D01*
G01X4600997Y-3459493D01*
G01X4800996Y-3459493D01*
G01X4809842Y-3457733D01*
G01X4817340Y-3452723D01*
G01X4822351Y-3445224D01*
G01X4824110Y-3436379D01*
G01X4824110Y-3236379D01*
G01X4822351Y-3227534D01*
G01X4817340Y-3220035D01*
G01X4809842Y-3215025D01*
G01X4800996Y-3213265D01*
G01X4741925Y-3213265D01*
G01X4738124Y-3206197D01*
G01X4736810Y-3198279D01*
G01X4736810Y-2946538D01*
G01X4961033Y-2722315D01*
G01X4962806Y-2721572D01*
G01X4965628Y-2720906D01*
G01X4969713Y-2720444D01*
G01X4982703Y-2717825D01*
G01X4994654Y-2712100D01*
G01X5004835Y-2703617D01*
G01X5012623Y-2692895D01*
G01X5017542Y-2680591D01*
G01X5087366Y-2750415D01*
G01X5087366Y-3366573D01*
G01X5088586Y-3375842D01*
G01X5092164Y-3384480D01*
G01X5097856Y-3391897D01*
G01X6009386Y-4303428D01*
G01X6009386Y-4359275D01*
G01X6010606Y-4368544D01*
G01X6014184Y-4377182D01*
G01X6019876Y-4384599D01*
G01X6078802Y-4443525D01*
G01X6083175Y-4451372D01*
G01X6085874Y-4459940D01*
G01X6086786Y-4468877D01*
G01X6086786Y-4573975D01*
G01X6088546Y-4582820D01*
G01X6093556Y-4590319D01*
G01X6101055Y-4595329D01*
G01X6109900Y-4597089D01*
G01X6259900Y-4597089D01*
G01X6268745Y-4595329D01*
G01X6276244Y-4590319D01*
G01X6281254Y-4582820D01*
G01X6283014Y-4573975D01*
G01X6283014Y-4423975D01*
G01X6281254Y-4415130D01*
G01X6276244Y-4407631D01*
G01X6268745Y-4402621D01*
G01X6259900Y-4400861D01*
G01X6154802Y-4400861D01*
G01X6145865Y-4399949D01*
G01X6137297Y-4397250D01*
G01X6129450Y-4392877D01*
G01X6081014Y-4344440D01*
G01X6081014Y-4288593D01*
G01X6079794Y-4279324D01*
G01X6076216Y-4270686D01*
G01X6070524Y-4263269D01*
G01X5684742Y-3877486D01*
G01X5697835Y-3873683D01*
G01X5709545Y-3866700D01*
G01X6259264Y-3866700D01*
G01X6270177Y-3865263D01*
G01X6280346Y-3861051D01*
G01X6289079Y-3854350D01*
G01X6411541Y-3731887D01*
G01X6425577Y-3723855D01*
G01X6440968Y-3718892D01*
G01X6457052Y-3717214D01*
G01X6589700Y-3717214D01*
G01X6598545Y-3715454D01*
G01X6606044Y-3710444D01*
G01X6611054Y-3702945D01*
G01X6612814Y-3694100D01*
G01X6612814Y-3539002D01*
G01X6613726Y-3530065D01*
G01X6616424Y-3521497D01*
G01X6620798Y-3513650D01*
G01X6775374Y-3359074D01*
G01X6781066Y-3351657D01*
G01X6784644Y-3343019D01*
G01X6785864Y-3333750D01*
G01X6785864Y-1915269D01*
G01X6784644Y-1906000D01*
G01X6781066Y-1897362D01*
G01X6775374Y-1889945D01*
G01X6405523Y-1520093D01*
G01X6616484Y-1520093D01*
G01X6618260Y-1535851D01*
G01X6623497Y-1550819D01*
G01X6631934Y-1564246D01*
G01X6643147Y-1575459D01*
G01X6656574Y-1583896D01*
G01X6671541Y-1589133D01*
G01X6687299Y-1590909D01*
G01X6703057Y-1589133D01*
G01X6718025Y-1583896D01*
G01X6731452Y-1575459D01*
G01X6742665Y-1564246D01*
G01X6751102Y-1550819D01*
G01X6756339Y-1535851D01*
G01X6758115Y-1520093D01*
G01X6756339Y-1504336D01*
G01X6751102Y-1489368D01*
G01X6742665Y-1475941D01*
G01X6731452Y-1464728D01*
G01X6718025Y-1456291D01*
G01X6703057Y-1451054D01*
G01X6687299Y-1449278D01*
G01X6671541Y-1451054D01*
G01X6656574Y-1456291D01*
G01X6643147Y-1464728D01*
G01X6631934Y-1475941D01*
G01X6623497Y-1489368D01*
G01X6618260Y-1504336D01*
G01X6616484Y-1520093D01*
G01X6616484Y-1520093D01*
G01X6405523Y-1520093D01*
G01X6335014Y-1449585D01*
G01X6335014Y-1414014D01*
G01X6335742Y-1412235D01*
G01X6337266Y-1409769D01*
G01X6339831Y-1406550D01*
G01X6347296Y-1395245D01*
G01X6351689Y-1382429D01*
G01X6352727Y-1368921D01*
G01X6350345Y-1355584D01*
G01X6347824Y-1350091D01*
G01X6616484Y-1350091D01*
G01X6618260Y-1365849D01*
G01X6623497Y-1380817D01*
G01X6631934Y-1394244D01*
G01X6643147Y-1405457D01*
G01X6656574Y-1413894D01*
G01X6671541Y-1419131D01*
G01X6687299Y-1420906D01*
G01X6703057Y-1419131D01*
G01X6718025Y-1413894D01*
G01X6731452Y-1405457D01*
G01X6742665Y-1394244D01*
G01X6751102Y-1380817D01*
G01X6756339Y-1365849D01*
G01X6758115Y-1350091D01*
G01X6756339Y-1334333D01*
G01X6751102Y-1319366D01*
G01X6742665Y-1305939D01*
G01X6731452Y-1294726D01*
G01X6718025Y-1286289D01*
G01X6703057Y-1281052D01*
G01X6687299Y-1279276D01*
G01X6671541Y-1281052D01*
G01X6656574Y-1286289D01*
G01X6643147Y-1294726D01*
G01X6631934Y-1305939D01*
G01X6623497Y-1319366D01*
G01X6618260Y-1334333D01*
G01X6616484Y-1350091D01*
G01X6616484Y-1350091D01*
G01X6347824Y-1350091D01*
G01X6344695Y-1343271D01*
G01X6336137Y-1332768D01*
G01X6325220Y-1324746D01*
G01X6312639Y-1319718D01*
G01X6299200Y-1318006D01*
G01X6285761Y-1319718D01*
G01X6273180Y-1324746D01*
G01X6262263Y-1332768D01*
G01X6253705Y-1343271D01*
G01X6248055Y-1355584D01*
G01X6245673Y-1368921D01*
G01X6246711Y-1382429D01*
G01X6251104Y-1395245D01*
G01X6258569Y-1406550D01*
G01X6261134Y-1409769D01*
G01X6262658Y-1412235D01*
G01X6263386Y-1414013D01*
G01X6263386Y-1464419D01*
G01X6264606Y-1473689D01*
G01X6268184Y-1482326D01*
G01X6273876Y-1489744D01*
G01X6714236Y-1930104D01*
G01X6714236Y-3318915D01*
G01X6570150Y-3463002D01*
G01X6562303Y-3467376D01*
G01X6553735Y-3470074D01*
G01X6544798Y-3470986D01*
G01X6434602Y-3470986D01*
G01X6425665Y-3470074D01*
G01X6417097Y-3467376D01*
G01X6409250Y-3463002D01*
G01X6286349Y-3340100D01*
G01X6366586Y-3340100D01*
G01X6368457Y-3361478D01*
G01X6374011Y-3382207D01*
G01X6383080Y-3401657D01*
G01X6395389Y-3419236D01*
G01X6410564Y-3434411D01*
G01X6428143Y-3446720D01*
G01X6447593Y-3455789D01*
G01X6468322Y-3461343D01*
G01X6489700Y-3463214D01*
G01X6489700Y-3463214D01*
G01X6511078Y-3461343D01*
G01X6531807Y-3455789D01*
G01X6551257Y-3446720D01*
G01X6568836Y-3434411D01*
G01X6584011Y-3419236D01*
G01X6596320Y-3401657D01*
G01X6605389Y-3382207D01*
G01X6610943Y-3361478D01*
G01X6612814Y-3340100D01*
G01X6610943Y-3318722D01*
G01X6605389Y-3297993D01*
G01X6596320Y-3278543D01*
G01X6584011Y-3260964D01*
G01X6568836Y-3245789D01*
G01X6551257Y-3233480D01*
G01X6531807Y-3224411D01*
G01X6511078Y-3218857D01*
G01X6489700Y-3216986D01*
G01X6468322Y-3218857D01*
G01X6447593Y-3224411D01*
G01X6428143Y-3233480D01*
G01X6410564Y-3245789D01*
G01X6395389Y-3260964D01*
G01X6383080Y-3278543D01*
G01X6374011Y-3297993D01*
G01X6368457Y-3318722D01*
G01X6366586Y-3340100D01*
G01X6286349Y-3340100D01*
G01X5862244Y-2915996D01*
G01X5854827Y-2910304D01*
G01X5846189Y-2906726D01*
G01X5836920Y-2905506D01*
G01X5458054Y-2905506D01*
G01X5452815Y-2900267D01*
G01X5452072Y-2898494D01*
G01X5451406Y-2895672D01*
G01X5450944Y-2891587D01*
G01X5448204Y-2878238D01*
G01X5442186Y-2866011D01*
G01X5433278Y-2855697D01*
G01X5422057Y-2847963D01*
G01X5409249Y-2843310D01*
G01X5395680Y-2842037D01*
G01X5382230Y-2844227D01*
G01X5369766Y-2849740D01*
G01X5359096Y-2858217D01*
G01X5350909Y-2869112D01*
G01X5345735Y-2881719D01*
G01X5343907Y-2895224D01*
G01X5345545Y-2908753D01*
G01X5350542Y-2921431D01*
G01X5358575Y-2932440D01*
G01X5369125Y-2941066D01*
G01X5224014Y-2941066D01*
G01X5222235Y-2940338D01*
G01X5219769Y-2938814D01*
G01X5216550Y-2936249D01*
G01X5206406Y-2929372D01*
G01X5194966Y-2924979D01*
G01X5182827Y-2923300D01*
G01X5170623Y-2924422D01*
G01X5158994Y-2928287D01*
G01X5158994Y-2735580D01*
G01X5157774Y-2726311D01*
G01X5154196Y-2717673D01*
G01X5148504Y-2710256D01*
G01X4929657Y-2491408D01*
G01X4928095Y-2482930D01*
G01X4924553Y-2475071D01*
G01X4919235Y-2468286D01*
G01X4876766Y-2425769D01*
G01X4879331Y-2422550D01*
G01X4886598Y-2411644D01*
G01X4891001Y-2399301D01*
G01X4892277Y-2386258D01*
G01X4890350Y-2373296D01*
G01X4885334Y-2361189D01*
G01X4877530Y-2350661D01*
G01X4867405Y-2342341D01*
G01X4855563Y-2336728D01*
G01X4842713Y-2334156D01*
G01X4838628Y-2333694D01*
G01X4835806Y-2333028D01*
G01X4834034Y-2332285D01*
G01X4804997Y-2303248D01*
G01X4817216Y-2310677D01*
G01X4830965Y-2314611D01*
G01X4845264Y-2314768D01*
G01X4859096Y-2311139D01*
G01X4871476Y-2303981D01*
G01X4881523Y-2293804D01*
G01X4888520Y-2281333D01*
G01X4891971Y-2267455D01*
G01X4891629Y-2253159D01*
G01X4887518Y-2239462D01*
G01X4879932Y-2227340D01*
G01X4869411Y-2217656D01*
G01X4856702Y-2211098D01*
G01X4842713Y-2208134D01*
G01X4838628Y-2207672D01*
G01X4835806Y-2207006D01*
G01X4834034Y-2206263D01*
G01X4772914Y-2145143D01*
G01X4772914Y-2119440D01*
G01X4783385Y-2129911D01*
G01X4784128Y-2131683D01*
G01X4784794Y-2134506D01*
G01X4785256Y-2138591D01*
G01X4787970Y-2151864D01*
G01X4793926Y-2164033D01*
G01X4802743Y-2174320D01*
G01X4813858Y-2182067D01*
G01X4826560Y-2186779D01*
G01X4840039Y-2188155D01*
G01X4853431Y-2186108D01*
G01X4865883Y-2180767D01*
G01X4876597Y-2172475D01*
G01X4884889Y-2161760D01*
G01X4890230Y-2149309D01*
G01X4892277Y-2135917D01*
G01X4890901Y-2122438D01*
G01X4886189Y-2109736D01*
G01X4878442Y-2098621D01*
G01X4868155Y-2089804D01*
G01X4855986Y-2083848D01*
G01X4842713Y-2081134D01*
G01X4838628Y-2080672D01*
G01X4835806Y-2080006D01*
G01X4834034Y-2079263D01*
G01X4816094Y-2061323D01*
G01X4816094Y-2056171D01*
G01X4829311Y-2060343D01*
G01X4843155Y-2060986D01*
G01X4856702Y-2058058D01*
G01X4869044Y-2051754D01*
G01X4879358Y-2042496D01*
G01X4886952Y-2030902D01*
G01X4891320Y-2017749D01*
G01X4892169Y-2003916D01*
G01X4889442Y-1990327D01*
G01X4883322Y-1977892D01*
G01X4874217Y-1967443D01*
G01X4862738Y-1959677D01*
G01X4849651Y-1955115D01*
G01X4835831Y-1954061D01*
G01X4727194Y-1845423D01*
G01X4727194Y-1819720D01*
G01X4783385Y-1875911D01*
G01X4784128Y-1877683D01*
G01X4784794Y-1880506D01*
G01X4785256Y-1884591D01*
G01X4787970Y-1897864D01*
G01X4793926Y-1910033D01*
G01X4802743Y-1920320D01*
G01X4813858Y-1928067D01*
G01X4826560Y-1932779D01*
G01X4840039Y-1934155D01*
G01X4853431Y-1932108D01*
G01X4865883Y-1926767D01*
G01X4876597Y-1918475D01*
G01X4884889Y-1907760D01*
G01X4890230Y-1895309D01*
G01X4892277Y-1881917D01*
G01X4890901Y-1868438D01*
G01X4886189Y-1855736D01*
G01X4878442Y-1844621D01*
G01X4868155Y-1835804D01*
G01X4855986Y-1829848D01*
G01X4842713Y-1827134D01*
G01X4838628Y-1826672D01*
G01X4835806Y-1826006D01*
G01X4834034Y-1825263D01*
G01X4762754Y-1753983D01*
G01X4762754Y-1728280D01*
G01X4783385Y-1748911D01*
G01X4784128Y-1750683D01*
G01X4784794Y-1753506D01*
G01X4785256Y-1757591D01*
G01X4788289Y-1771773D01*
G01X4795013Y-1784623D01*
G01X4804937Y-1795200D01*
G01X4817333Y-1802728D01*
G01X4831294Y-1806658D01*
G01X4845797Y-1806700D01*
G01X4859780Y-1802852D01*
G01X4872220Y-1795396D01*
G01X4882205Y-1784877D01*
G01X4889004Y-1772067D01*
G01X4892119Y-1757902D01*
G01X4891323Y-1743421D01*
G01X4886673Y-1729683D01*
G01X4878509Y-1717696D01*
G01X4867431Y-1708336D01*
G01X4854249Y-1702289D01*
G01X4864505Y-1697972D01*
G01X4873650Y-1691631D01*
G01X4876869Y-1689066D01*
G01X4879335Y-1687542D01*
G01X4881113Y-1686814D01*
G01X5175206Y-1686814D01*
G01X5184475Y-1685594D01*
G01X5193113Y-1682016D01*
G01X5200530Y-1676324D01*
G01X5215033Y-1661821D01*
G01X5216806Y-1661078D01*
G01X5219628Y-1660412D01*
G01X5223713Y-1659949D01*
G01X5237374Y-1657101D01*
G01X5249837Y-1650823D01*
G01X5260257Y-1641540D01*
G01X5267927Y-1629882D01*
G01X5272327Y-1616638D01*
G01X5273159Y-1602708D01*
G01X5392027Y-1721576D01*
G01X5378801Y-1727118D01*
G01X5367517Y-1735970D01*
G01X5358986Y-1747497D01*
G01X5353816Y-1760873D01*
G01X5352378Y-1775142D01*
G01X5354776Y-1789281D01*
G01X5360837Y-1802278D01*
G01X5370128Y-1813202D01*
G01X5370128Y-2123024D01*
G01X5084667Y-2408485D01*
G01X5082894Y-2409228D01*
G01X5080072Y-2409894D01*
G01X5075987Y-2410356D01*
G01X5062714Y-2413070D01*
G01X5050545Y-2419026D01*
G01X5040258Y-2427843D01*
G01X5032511Y-2438958D01*
G01X5027799Y-2451660D01*
G01X5026423Y-2465139D01*
G01X5028470Y-2478531D01*
G01X5033811Y-2490983D01*
G01X5042103Y-2501697D01*
G01X5052817Y-2509989D01*
G01X5065269Y-2515330D01*
G01X5078661Y-2517377D01*
G01X5092140Y-2516001D01*
G01X5104842Y-2511289D01*
G01X5115957Y-2503542D01*
G01X5124774Y-2493255D01*
G01X5130730Y-2481086D01*
G01X5133444Y-2467813D01*
G01X5133906Y-2463728D01*
G01X5134572Y-2460906D01*
G01X5135315Y-2459134D01*
G01X5431266Y-2163183D01*
G01X5434737Y-2159153D01*
G01X5439037Y-2164351D01*
G01X5535741Y-2261055D01*
G01X5523679Y-2267288D01*
G01X5513571Y-2276351D01*
G01X5506065Y-2287664D01*
G01X5501642Y-2300501D01*
G01X5500587Y-2314036D01*
G01X5502967Y-2327403D01*
G01X5508630Y-2339742D01*
G01X5517211Y-2350263D01*
G01X5528161Y-2358290D01*
G01X5540777Y-2363307D01*
G01X5539486Y-2372835D01*
G01X5539486Y-2656580D01*
G01X5526673Y-2660296D01*
G01X5515175Y-2667062D01*
G01X5505705Y-2676458D01*
G01X5498848Y-2687901D01*
G01X5495030Y-2700684D01*
G01X5494488Y-2714014D01*
G01X5497255Y-2727065D01*
G01X5503159Y-2739028D01*
G01X5511835Y-2749162D01*
G01X5522746Y-2756839D01*
G01X5535214Y-2761584D01*
G01X5548468Y-2763102D01*
G01X5561687Y-2761299D01*
G01X5574050Y-2756288D01*
G01X5584793Y-2748378D01*
G01X5593250Y-2738060D01*
G01X5598896Y-2725972D01*
G01X5601381Y-2712865D01*
G01X5601692Y-2708149D01*
G01X5601999Y-2705974D01*
G01X5608215Y-2696219D01*
G01X5620616Y-2701051D01*
G01X5633826Y-2702677D01*
G01X5647029Y-2700999D01*
G01X5659411Y-2696118D01*
G01X5670209Y-2688337D01*
G01X5678757Y-2678135D01*
G01X5684527Y-2666142D01*
G01X5687164Y-2653096D01*
G01X5687626Y-2649011D01*
G01X5688292Y-2646189D01*
G01X5689035Y-2644417D01*
G01X5702224Y-2631228D01*
G01X5704796Y-2627876D01*
G01X6143427Y-2627876D01*
G01X6145401Y-2643721D01*
G01X6150758Y-2658763D01*
G01X6159244Y-2672289D01*
G01X6170458Y-2683656D01*
G01X6183867Y-2692326D01*
G01X6198835Y-2697888D01*
G01X6214651Y-2700077D01*
G01X6230567Y-2698789D01*
G01X6245827Y-2694087D01*
G01X6259706Y-2686192D01*
G01X6271547Y-2675480D01*
G01X6271547Y-2845025D01*
G01X6270819Y-2846804D01*
G01X6270819Y-2846804D01*
G01X6269295Y-2849270D01*
G01X6266730Y-2852490D01*
G01X6259265Y-2863795D01*
G01X6254872Y-2876611D01*
G01X6253834Y-2890119D01*
G01X6256216Y-2903455D01*
G01X6261867Y-2915769D01*
G01X6270424Y-2926272D01*
G01X6281342Y-2934293D01*
G01X6293922Y-2939321D01*
G01X6307361Y-2941033D01*
G01X6320800Y-2939321D01*
G01X6333381Y-2934293D01*
G01X6344298Y-2926271D01*
G01X6352856Y-2915768D01*
G01X6358506Y-2903455D01*
G01X6360888Y-2890118D01*
G01X6359850Y-2876610D01*
G01X6355457Y-2863794D01*
G01X6347992Y-2852489D01*
G01X6345427Y-2849270D01*
G01X6343903Y-2846804D01*
G01X6343175Y-2845026D01*
G01X6343175Y-2571554D01*
G01X6341955Y-2562285D01*
G01X6338377Y-2553647D01*
G01X6332685Y-2546230D01*
G01X6252915Y-2466461D01*
G01X6252172Y-2464688D01*
G01X6251506Y-2461866D01*
G01X6251044Y-2457781D01*
G01X6248330Y-2444507D01*
G01X6242374Y-2432338D01*
G01X6233557Y-2422051D01*
G01X6222442Y-2414305D01*
G01X6209740Y-2409592D01*
G01X6196261Y-2408216D01*
G01X6182869Y-2410264D01*
G01X6170417Y-2415604D01*
G01X6159703Y-2423897D01*
G01X6151411Y-2434611D01*
G01X6146070Y-2447062D01*
G01X6144023Y-2460455D01*
G01X6145399Y-2473933D01*
G01X6150111Y-2486635D01*
G01X6157858Y-2497750D01*
G01X6168145Y-2506567D01*
G01X6180314Y-2512523D01*
G01X6193587Y-2515237D01*
G01X6197672Y-2515700D01*
G01X6200494Y-2516366D01*
G01X6202266Y-2517108D01*
G01X6243824Y-2558666D01*
G01X6228432Y-2554417D01*
G01X6212485Y-2553600D01*
G01X6196740Y-2556256D01*
G01X6181943Y-2562258D01*
G01X6168797Y-2571321D01*
G01X6157924Y-2583015D01*
G01X6149841Y-2596785D01*
G01X6144931Y-2611979D01*
G01X6143427Y-2627876D01*
G01X5704796Y-2627876D01*
G01X5707916Y-2623810D01*
G01X5711494Y-2615173D01*
G01X5712714Y-2605903D01*
G01X5712714Y-2301276D01*
G01X5711494Y-2292006D01*
G01X5707916Y-2283369D01*
G01X5702224Y-2275951D01*
G01X5535736Y-2109463D01*
G01X5535736Y-2046808D01*
G01X6143419Y-2046808D01*
G01X6145306Y-2063334D01*
G01X6150870Y-2079009D01*
G01X6159823Y-2093027D01*
G01X6171706Y-2104666D01*
G01X6185907Y-2113327D01*
G01X6201694Y-2118564D01*
G01X6218256Y-2120107D01*
G01X6234739Y-2117877D01*
G01X6250296Y-2111990D01*
G01X6264124Y-2102747D01*
G01X6275514Y-2090625D01*
G01X6283878Y-2076247D01*
G01X6288786Y-2060355D01*
G01X6288786Y-2156865D01*
G01X6262445Y-2183206D01*
G01X6262445Y-2183206D01*
G01X6256194Y-2183206D01*
G01X6254415Y-2182478D01*
G01X6251949Y-2180954D01*
G01X6248730Y-2178389D01*
G01X6237425Y-2170924D01*
G01X6224609Y-2166531D01*
G01X6211101Y-2165493D01*
G01X6197764Y-2167875D01*
G01X6185451Y-2173525D01*
G01X6174948Y-2182083D01*
G01X6166926Y-2193000D01*
G01X6161898Y-2205581D01*
G01X6160186Y-2219020D01*
G01X6161898Y-2232459D01*
G01X6166926Y-2245039D01*
G01X6174948Y-2255957D01*
G01X6185451Y-2264515D01*
G01X6197764Y-2270165D01*
G01X6211101Y-2272547D01*
G01X6224609Y-2271509D01*
G01X6237425Y-2267116D01*
G01X6248730Y-2259650D01*
G01X6251949Y-2257086D01*
G01X6254415Y-2255562D01*
G01X6256193Y-2254834D01*
G01X6277280Y-2254834D01*
G01X6286549Y-2253614D01*
G01X6295187Y-2250036D01*
G01X6302604Y-2244344D01*
G01X6349924Y-2197024D01*
G01X6355616Y-2189607D01*
G01X6359194Y-2180969D01*
G01X6360414Y-2171700D01*
G01X6360414Y-1860063D01*
G01X6360657Y-1857944D01*
G01X6361258Y-1856033D01*
G01X6362727Y-1852838D01*
G01X6365043Y-1848579D01*
G01X6370093Y-1836038D01*
G01X6371844Y-1822632D01*
G01X6370184Y-1809215D01*
G01X6365220Y-1796640D01*
G01X6357267Y-1785708D01*
G01X6346831Y-1777113D01*
G01X6334577Y-1771403D01*
G01X6321284Y-1768942D01*
G01X6307797Y-1769885D01*
G01X6294976Y-1774173D01*
G01X6283636Y-1781533D01*
G01X6274498Y-1791497D01*
G01X6268144Y-1803430D01*
G01X6264979Y-1816574D01*
G01X6265204Y-1830091D01*
G01X6268803Y-1843122D01*
G01X6275550Y-1854838D01*
G01X6285013Y-1864493D01*
G01X6286799Y-1866201D01*
G01X6288017Y-1867942D01*
G01X6288786Y-1869657D01*
G01X6288786Y-2033262D01*
G01X6283878Y-2017369D01*
G01X6275514Y-2002991D01*
G01X6264124Y-1990869D01*
G01X6250296Y-1981627D01*
G01X6234739Y-1975739D01*
G01X6218256Y-1973509D01*
G01X6201694Y-1975053D01*
G01X6185907Y-1980290D01*
G01X6171706Y-1988950D01*
G01X6159823Y-2000589D01*
G01X6150870Y-2014607D01*
G01X6145306Y-2030282D01*
G01X6143419Y-2046808D01*
G01X5535736Y-2046808D01*
G01X5535736Y-1728532D01*
G01X5535588Y-1725285D01*
G01X5545854Y-1734033D01*
G01X5557979Y-1739942D01*
G01X5571195Y-1742636D01*
G01X5575280Y-1743099D01*
G01X5578102Y-1743765D01*
G01X5579874Y-1744508D01*
G01X5658353Y-1822987D01*
G01X5665770Y-1828678D01*
G01X5674408Y-1832256D01*
G01X5683677Y-1833476D01*
G01X5736605Y-1833476D01*
G01X5729607Y-1844949D01*
G01X5725684Y-1857802D01*
G01X5725081Y-1871227D01*
G01X5727837Y-1884380D01*
G01X5733778Y-1896434D01*
G01X5742531Y-1906631D01*
G01X5753546Y-1914330D01*
G01X5766129Y-1919047D01*
G01X5779491Y-1920485D01*
G01X5792790Y-1918554D01*
G01X5805191Y-1913375D01*
G01X5815913Y-1905274D01*
G01X5824283Y-1894761D01*
G01X5829775Y-1882495D01*
G01X5832042Y-1869249D01*
G01X5830944Y-1855856D01*
G01X5826548Y-1843157D01*
G01X5819131Y-1831950D01*
G01X5816566Y-1828731D01*
G01X5815042Y-1826265D01*
G01X5814314Y-1824487D01*
G01X5814314Y-1816100D01*
G01X5813094Y-1806831D01*
G01X5809516Y-1798193D01*
G01X5803824Y-1790776D01*
G01X5785387Y-1772338D01*
G01X5777932Y-1766625D01*
G01X5782972Y-1755367D01*
G01X5785305Y-1743255D01*
G01X5785767Y-1739170D01*
G01X5786433Y-1736348D01*
G01X5787176Y-1734576D01*
G01X5892724Y-1629028D01*
G01X5898416Y-1621610D01*
G01X5901994Y-1612973D01*
G01X5903214Y-1603703D01*
G01X5903214Y-1574527D01*
G01X5903942Y-1572748D01*
G01X5905466Y-1570282D01*
G01X5908031Y-1567062D01*
G01X5915496Y-1555757D01*
G01X5919889Y-1542941D01*
G01X5920927Y-1529433D01*
G01X5918545Y-1516096D01*
G01X5912895Y-1503783D01*
G01X5904337Y-1493280D01*
G01X5893419Y-1485259D01*
G01X5880839Y-1480231D01*
G01X5867400Y-1478519D01*
G01X5853961Y-1480231D01*
G01X5841381Y-1485259D01*
G01X5830463Y-1493280D01*
G01X5821905Y-1503783D01*
G01X5816255Y-1516096D01*
G01X5813873Y-1529433D01*
G01X5814911Y-1542941D01*
G01X5819304Y-1555757D01*
G01X5826769Y-1567062D01*
G01X5829334Y-1570282D01*
G01X5830858Y-1572748D01*
G01X5831586Y-1574526D01*
G01X5831586Y-1588869D01*
G01X5736528Y-1683927D01*
G01X5734755Y-1684670D01*
G01X5731933Y-1685336D01*
G01X5727848Y-1685799D01*
G01X5714405Y-1688571D01*
G01X5702106Y-1694667D01*
G01X5691759Y-1703687D01*
G01X5684043Y-1715039D01*
G01X5679464Y-1727979D01*
G01X5678322Y-1741658D01*
G01X5630523Y-1693860D01*
G01X5629779Y-1692087D01*
G01X5629114Y-1689265D01*
G01X5628651Y-1685180D01*
G01X5626613Y-1674034D01*
G01X5622277Y-1663566D01*
G01X5615838Y-1654243D01*
G01X5613274Y-1651024D01*
G01X5611749Y-1648558D01*
G01X5611021Y-1646779D01*
G01X5611021Y-1551627D01*
G01X5729986Y-1432663D01*
G01X5729986Y-1559965D01*
G01X5712865Y-1577086D01*
G01X5708916Y-1577086D01*
G01X5707138Y-1576358D01*
G01X5704672Y-1574834D01*
G01X5701452Y-1572269D01*
G01X5690147Y-1564804D01*
G01X5677331Y-1560411D01*
G01X5663823Y-1559373D01*
G01X5650486Y-1561755D01*
G01X5638173Y-1567405D01*
G01X5627670Y-1575963D01*
G01X5619648Y-1586880D01*
G01X5614621Y-1599461D01*
G01X5612909Y-1612900D01*
G01X5614621Y-1626339D01*
G01X5619648Y-1638920D01*
G01X5627670Y-1649837D01*
G01X5638173Y-1658395D01*
G01X5650486Y-1664045D01*
G01X5663823Y-1666427D01*
G01X5677331Y-1665389D01*
G01X5690147Y-1660996D01*
G01X5701452Y-1653531D01*
G01X5704672Y-1650966D01*
G01X5707138Y-1649442D01*
G01X5708915Y-1648714D01*
G01X5727700Y-1648714D01*
G01X5736969Y-1647494D01*
G01X5745607Y-1643916D01*
G01X5753024Y-1638224D01*
G01X5791124Y-1600124D01*
G01X5796816Y-1592707D01*
G01X5800394Y-1584069D01*
G01X5801614Y-1574800D01*
G01X5801614Y-1411324D01*
G01X5907124Y-1305814D01*
G01X6383786Y-1305814D01*
G01X6385565Y-1306542D01*
G01X6388031Y-1308066D01*
G01X6391250Y-1310631D01*
G01X6402555Y-1318096D01*
G01X6415371Y-1322489D01*
G01X6428879Y-1323527D01*
G01X6442216Y-1321145D01*
G01X6454529Y-1315495D01*
G01X6465032Y-1306937D01*
G01X6473054Y-1296020D01*
G01X6478082Y-1283439D01*
G01X6479794Y-1270000D01*
G01X6478082Y-1256561D01*
G01X6473054Y-1243980D01*
G01X6465032Y-1233063D01*
G01X6454529Y-1224505D01*
G01X6442216Y-1218855D01*
G01X6428879Y-1216473D01*
G01X6415371Y-1217511D01*
G01X6402555Y-1221904D01*
G01X6391250Y-1229369D01*
G01X6388031Y-1231934D01*
G01X6385565Y-1233458D01*
G01X6383787Y-1234186D01*
G01X5892289Y-1234186D01*
G01X5883020Y-1235406D01*
G01X5874382Y-1238984D01*
G01X5866965Y-1244676D01*
G01X5814314Y-1297327D01*
G01X5814314Y-753614D01*
G01X5815042Y-751835D01*
G01X5816566Y-749369D01*
G01X5819131Y-746150D01*
G01X5826596Y-734845D01*
G01X5830989Y-722029D01*
G01X5832027Y-708521D01*
G01X5829645Y-695184D01*
G01X5823995Y-682871D01*
G01X5815437Y-672368D01*
G01X5804520Y-664346D01*
G01X5791939Y-659318D01*
G01X5778500Y-657606D01*
G01X5765061Y-659318D01*
G01X5752480Y-664346D01*
G01X5741563Y-672368D01*
G01X5733005Y-682871D01*
G01X5727355Y-695184D01*
G01X5724973Y-708521D01*
G01X5726011Y-722029D01*
G01X5730404Y-734845D01*
G01X5737869Y-746150D01*
G01X5740434Y-749369D01*
G01X5741958Y-751835D01*
G01X5742686Y-753613D01*
G01X5742686Y-1318665D01*
G01X5549883Y-1511468D01*
G01X5544191Y-1518886D01*
G01X5540614Y-1527523D01*
G01X5539393Y-1536793D01*
G01X5539394Y-1646779D01*
G01X5538666Y-1648558D01*
G01X5537141Y-1651024D01*
G01X5534577Y-1654243D01*
G01X5527618Y-1664543D01*
G01X5523220Y-1676170D01*
G01X5521618Y-1688496D01*
G01X5522899Y-1700861D01*
G01X5221791Y-1399753D01*
G01X5234110Y-1397820D01*
G01X5245648Y-1393094D01*
G01X5255782Y-1385828D01*
G01X5263963Y-1376418D01*
G01X5269748Y-1365372D01*
G01X5272823Y-1353288D01*
G01X5273023Y-1340820D01*
G01X5270337Y-1328644D01*
G01X5264909Y-1317418D01*
G01X5257035Y-1307750D01*
G01X5254704Y-1305196D01*
G01X5253284Y-1303061D01*
G01X5252560Y-1301393D01*
G01X5252560Y-1169760D01*
G01X5253288Y-1167981D01*
G01X5254812Y-1165515D01*
G01X5257377Y-1162295D01*
G01X5264842Y-1150990D01*
G01X5269235Y-1138174D01*
G01X5270273Y-1124666D01*
G01X5267891Y-1111330D01*
G01X5262241Y-1099016D01*
G01X5253683Y-1088513D01*
G01X5242765Y-1080492D01*
G01X5230185Y-1075464D01*
G01X5216746Y-1073752D01*
G01X5203307Y-1075464D01*
G01X5190727Y-1080492D01*
G01X5179809Y-1088513D01*
G01X5171251Y-1099016D01*
G01X5165601Y-1111330D01*
G01X5163219Y-1124666D01*
G01X5164257Y-1138174D01*
G01X5168650Y-1150990D01*
G01X5176115Y-1162295D01*
G01X5178680Y-1165515D01*
G01X5180204Y-1167981D01*
G01X5180932Y-1169759D01*
G01X5180932Y-1306199D01*
G01X5180908Y-1306537D01*
G01X5180163Y-1308537D01*
G01X5179314Y-1310068D01*
G01X5179314Y-1308611D01*
G01X5178094Y-1299341D01*
G01X5174516Y-1290704D01*
G01X5168824Y-1283286D01*
G01X5104814Y-1219276D01*
G01X5097396Y-1213584D01*
G01X5088759Y-1210006D01*
G01X5079489Y-1208786D01*
G01X4881114Y-1208786D01*
G01X4879335Y-1208058D01*
G01X4876869Y-1206534D01*
G01X4873650Y-1203969D01*
G01X4864327Y-1197530D01*
G01X4853858Y-1193194D01*
G01X4842713Y-1191156D01*
G01X4838628Y-1190694D01*
G01X4835806Y-1190028D01*
G01X4834034Y-1189285D01*
G01X4804997Y-1160248D01*
G01X4816197Y-1167219D01*
G01X4828760Y-1171242D01*
G01X4841926Y-1172075D01*
G01X4854896Y-1169666D01*
G01X4866885Y-1164162D01*
G01X4877166Y-1155896D01*
G01X4885117Y-1145370D01*
G01X4890255Y-1133220D01*
G01X4892270Y-1120183D01*
G01X4891039Y-1107048D01*
G01X4886637Y-1094612D01*
G01X4879331Y-1083629D01*
G01X4876766Y-1080409D01*
G01X4875242Y-1077943D01*
G01X4874514Y-1076165D01*
G01X4874514Y-1074196D01*
G01X4873294Y-1064927D01*
G01X4869716Y-1056289D01*
G01X4864024Y-1048872D01*
G01X4857076Y-1041923D01*
G01X4868387Y-1036199D01*
G01X4878037Y-1027977D01*
G01X4885486Y-1017720D01*
G01X4890317Y-1005999D01*
G01X4892261Y-993471D01*
G01X4891207Y-980838D01*
G01X4887215Y-968806D01*
G01X4880509Y-958047D01*
G01X4871464Y-949165D01*
G01X4860585Y-942656D01*
G01X4848482Y-938884D01*
G01X4835831Y-938061D01*
G01X4811014Y-913243D01*
G01X4811014Y-624435D01*
G01X4865135Y-570314D01*
G01X5105992Y-570314D01*
G01X5115262Y-569094D01*
G01X5123899Y-565516D01*
G01X5131317Y-559824D01*
G01X5235964Y-455177D01*
G01X5241656Y-447759D01*
G01X5245234Y-439122D01*
G01X5246454Y-429852D01*
G01X5246454Y-244940D01*
G01X5245234Y-235670D01*
G01X5241656Y-227033D01*
G01X5235964Y-219615D01*
G01X5205022Y-188673D01*
G01X5201318Y-184630D01*
G01X5199232Y-181811D01*
G01X5198156Y-179883D01*
G01X5197700Y-178672D01*
G01X5197515Y-177770D01*
G01X5197458Y-176642D01*
G01X5197597Y-174855D01*
G01X5198034Y-172346D01*
G01X5198448Y-170701D01*
G01X5609976Y-170701D01*
G01X5611752Y-186459D01*
G01X5616989Y-201426D01*
G01X5625426Y-214853D01*
G01X5636639Y-226066D01*
G01X5650066Y-234503D01*
G01X5665033Y-239740D01*
G01X5680791Y-241516D01*
G01X5696549Y-239740D01*
G01X5711517Y-234503D01*
G01X5724944Y-226066D01*
G01X5736157Y-214853D01*
G01X5744594Y-201426D01*
G01X5749831Y-186459D01*
G01X5751606Y-170701D01*
G01X5751606Y-170701D01*
G01X5779978Y-170701D01*
G01X5781754Y-186459D01*
G01X5786991Y-201426D01*
G01X5795428Y-214853D01*
G01X5806641Y-226066D01*
G01X5820068Y-234503D01*
G01X5835036Y-239740D01*
G01X5850793Y-241516D01*
G01X5866551Y-239740D01*
G01X5881519Y-234503D01*
G01X5894946Y-226066D01*
G01X5906159Y-214853D01*
G01X5914596Y-201426D01*
G01X5919833Y-186459D01*
G01X5921609Y-170701D01*
G01X5919833Y-154943D01*
G01X5914596Y-139975D01*
G01X5906159Y-126548D01*
G01X5894946Y-115335D01*
G01X5881519Y-106898D01*
G01X5866551Y-101661D01*
G01X5850793Y-99885D01*
G01X5835036Y-101661D01*
G01X5820068Y-106898D01*
G01X5806641Y-115335D01*
G01X5795428Y-126548D01*
G01X5786991Y-139975D01*
G01X5781754Y-154943D01*
G01X5779978Y-170701D01*
G01X5779978Y-170701D01*
G01X5751606Y-170701D01*
G01X5749831Y-154943D01*
G01X5744594Y-139975D01*
G01X5736157Y-126548D01*
G01X5724944Y-115335D01*
G01X5711517Y-106898D01*
G01X5696549Y-101661D01*
G01X5680791Y-99885D01*
G01X5665033Y-101661D01*
G01X5650066Y-106898D01*
G01X5636639Y-115335D01*
G01X5625426Y-126548D01*
G01X5616989Y-139975D01*
G01X5611752Y-154943D01*
G01X5609976Y-170701D01*
G01X5609976Y-170701D01*
G01X5198448Y-170701D01*
G01X5202819Y-153346D01*
G01X5203110Y-152030D01*
G01X5204217Y-146221D01*
G01X5204439Y-144828D01*
G01X5204640Y-143254D01*
G01X5205125Y-139469D01*
G01X5205243Y-138547D01*
G01X5205394Y-136892D01*
G01X5205419Y-136440D01*
G01X5205772Y-130089D01*
G01X5205805Y-128412D01*
G01X5205778Y-124168D01*
G01X5205593Y-119927D01*
G01X5202635Y-100378D01*
G01X5196318Y-81643D01*
G01X5186836Y-64293D01*
G01X5174477Y-48860D01*
G01X5159620Y-35814D01*
G01X6400800Y-35814D01*
G01X6442103Y-37843D01*
G01X6483008Y-43911D01*
G01X6523122Y-53959D01*
G01X6562057Y-67890D01*
G01X6599440Y-85571D01*
G01X6634910Y-106830D01*
G01X6668124Y-131464D01*
G01X6698765Y-159235D01*
G01X6726536Y-189876D01*
G01X6751170Y-223090D01*
G01X6772429Y-258560D01*
G01X6790110Y-295943D01*
G01X6804041Y-334878D01*
G01X6814089Y-374992D01*
G01X6820157Y-415897D01*
G01X6822186Y-457200D01*
G01X6822186Y-5638800D01*
G01X6820157Y-5680103D01*
G01X6814089Y-5721008D01*
G01X6804041Y-5761122D01*
G01X6790110Y-5800057D01*
G01X6772429Y-5837440D01*
G01X6751170Y-5872910D01*
G01X6726536Y-5906124D01*
G01X6698765Y-5936765D01*
G01X6668124Y-5964536D01*
G01X6634910Y-5989170D01*
G01X6599440Y-6010429D01*
G01X6562057Y-6028110D01*
G01X6523122Y-6042041D01*
G01X6483008Y-6052089D01*
G01X6442103Y-6058157D01*
G01X6400800Y-6060186D01*
G01X457200Y-6060186D01*
G01X415897Y-6058157D01*
G01X374992Y-6052089D01*
G01X334878Y-6042041D01*
G01X295943Y-6028110D01*
G01X258560Y-6010429D01*
G01X223090Y-5989170D01*
G01X189876Y-5964536D01*
G01X159235Y-5936765D01*
G01X131464Y-5906124D01*
G01X106830Y-5872910D01*
G01X85571Y-5837440D01*
G01X67890Y-5800057D01*
G01X53959Y-5761122D01*
G01X43911Y-5721008D01*
G01X37843Y-5680103D01*
G01X35814Y-5638800D01*
G01X35814Y-5384800D01*
G01X1594587Y-5384800D01*
G01X1594587Y-5537200D01*
G01X1596346Y-5546045D01*
G01X1601357Y-5553544D01*
G01X1608855Y-5558555D01*
G01X1617701Y-5560314D01*
G01X1770101Y-5560314D01*
G01X1770101Y-5560314D01*
G01X1778946Y-5558555D01*
G01X1786445Y-5553544D01*
G01X1791455Y-5546045D01*
G01X1793215Y-5537200D01*
G01X1793215Y-5384800D01*
G01X1791455Y-5375955D01*
G01X1786445Y-5368456D01*
G01X1778946Y-5363445D01*
G01X1770101Y-5361686D01*
G01X1617701Y-5361686D01*
G01X1608855Y-5363445D01*
G01X1601357Y-5368456D01*
G01X1596346Y-5375955D01*
G01X1594587Y-5384800D01*
G01X35814Y-5384800D01*
G01X35814Y-5241229D01*
G01X920344Y-5241229D01*
G01X920344Y-5262103D01*
G01X924179Y-5282621D01*
G01X931719Y-5302085D01*
G01X942708Y-5319832D01*
G01X956771Y-5335258D01*
G01X973428Y-5347837D01*
G01X992113Y-5357141D01*
G01X1012190Y-5362854D01*
G01X1032975Y-5364780D01*
G01X1252974Y-5364780D01*
G01X1273759Y-5362854D01*
G01X1293836Y-5357141D01*
G01X1312521Y-5347837D01*
G01X1329179Y-5335258D01*
G01X1343241Y-5319832D01*
G01X1354230Y-5302085D01*
G01X1361770Y-5282621D01*
G01X1365606Y-5262103D01*
G01X1365606Y-5241229D01*
G01X1361770Y-5220711D01*
G01X1354230Y-5201247D01*
G01X1343241Y-5183500D01*
G01X1329179Y-5168074D01*
G01X1312521Y-5155495D01*
G01X1293836Y-5146190D01*
G01X1273759Y-5140478D01*
G01X1252974Y-5138552D01*
G01X1252974Y-5138552D01*
G01X1032975Y-5138552D01*
G01X1012190Y-5140478D01*
G01X992113Y-5146190D01*
G01X973428Y-5155495D01*
G01X956771Y-5168074D01*
G01X942708Y-5183500D01*
G01X931719Y-5201247D01*
G01X924179Y-5220711D01*
G01X920344Y-5241229D01*
G01X35814Y-5241229D01*
G01X35814Y-3732981D01*
G01X989890Y-3732981D01*
G01X991507Y-3753403D01*
G01X996629Y-3773239D01*
G01X1005102Y-3791892D01*
G01X1016670Y-3808800D01*
G01X1030986Y-3823454D01*
G01X1030986Y-4229888D01*
G01X1032365Y-4247411D01*
G01X1036468Y-4264502D01*
G01X1043195Y-4280741D01*
G01X1052379Y-4295728D01*
G01X1063794Y-4309094D01*
G01X1330701Y-4576001D01*
G01X1330436Y-4619082D01*
G01X1329888Y-4661032D01*
G01X1329886Y-4661334D01*
G01X1329886Y-4901334D01*
G01X1331812Y-4922118D01*
G01X1337524Y-4942195D01*
G01X1346828Y-4960881D01*
G01X1359407Y-4977538D01*
G01X1374833Y-4991601D01*
G01X1392580Y-5002589D01*
G01X1412044Y-5010130D01*
G01X1432563Y-5013965D01*
G01X1453436Y-5013965D01*
G01X1473954Y-5010130D01*
G01X1493419Y-5002589D01*
G01X1511166Y-4991601D01*
G01X1526592Y-4977538D01*
G01X1539171Y-4960881D01*
G01X1548475Y-4942195D01*
G01X1554187Y-4922118D01*
G01X1556113Y-4901334D01*
G01X1556113Y-4690077D01*
G01X1569466Y-4690077D01*
G01X1569466Y-5041900D01*
G01X1570946Y-5053142D01*
G01X1575285Y-5063617D01*
G01X1582188Y-5072612D01*
G01X1850466Y-5340891D01*
G01X1850466Y-5356766D01*
G01X1850322Y-5360142D01*
G01X1850020Y-5362340D01*
G01X1849617Y-5363978D01*
G01X1849147Y-5365261D01*
G01X1848577Y-5366410D01*
G01X1848049Y-5367244D01*
G01X1845125Y-5370765D01*
G01X1840847Y-5374868D01*
G01X1834990Y-5380030D01*
G01X1834678Y-5380311D01*
G01X1828024Y-5386394D01*
G01X1826958Y-5387434D01*
G01X1824952Y-5389520D01*
G01X1812246Y-5404468D01*
G01X1802727Y-5421621D01*
G01X1796765Y-5440310D01*
G01X1794593Y-5459807D01*
G01X1796296Y-5479350D01*
G01X1801807Y-5498178D01*
G01X1810912Y-5515554D01*
G01X1823254Y-5530802D01*
G01X1838353Y-5543327D01*
G01X1855619Y-5552640D01*
G01X1874379Y-5558377D01*
G01X1893900Y-5560314D01*
G01X1913422Y-5558377D01*
G01X1932181Y-5552640D01*
G01X1949448Y-5543327D01*
G01X1964546Y-5530802D01*
G01X1976889Y-5515554D01*
G01X1985993Y-5498178D01*
G01X1991504Y-5479350D01*
G01X1993103Y-5461000D01*
G01X1994586Y-5461000D01*
G01X1996494Y-5480375D01*
G01X2002146Y-5499006D01*
G01X2011323Y-5516176D01*
G01X2023674Y-5531226D01*
G01X2038724Y-5543577D01*
G01X2055894Y-5552754D01*
G01X2074525Y-5558406D01*
G01X2093900Y-5560314D01*
G01X2113275Y-5558406D01*
G01X2131906Y-5552754D01*
G01X2149076Y-5543577D01*
G01X2164125Y-5531226D01*
G01X2176476Y-5516176D01*
G01X2185654Y-5499006D01*
G01X2191306Y-5480375D01*
G01X2193214Y-5461000D01*
G01X2191306Y-5441625D01*
G01X2185654Y-5422994D01*
G01X2176476Y-5405824D01*
G01X2164125Y-5390774D01*
G01X2149076Y-5378423D01*
G01X2131906Y-5369246D01*
G01X2113275Y-5363594D01*
G01X2093900Y-5361686D01*
G01X2074525Y-5363594D01*
G01X2055894Y-5369246D01*
G01X2038724Y-5378423D01*
G01X2023674Y-5390774D01*
G01X2011323Y-5405824D01*
G01X2002146Y-5422994D01*
G01X1996494Y-5441625D01*
G01X1994586Y-5461000D01*
G01X1994586Y-5461000D01*
G01X1993103Y-5461000D01*
G01X1993207Y-5459807D01*
G01X1991035Y-5440310D01*
G01X1985073Y-5421621D01*
G01X1975554Y-5404468D01*
G01X1962849Y-5389520D01*
G01X1960843Y-5387434D01*
G01X1959777Y-5386394D01*
G01X1953123Y-5380311D01*
G01X1952810Y-5380030D01*
G01X1946953Y-5374868D01*
G01X1942675Y-5370765D01*
G01X1939752Y-5367244D01*
G01X1939223Y-5366410D01*
G01X1938653Y-5365261D01*
G01X1938184Y-5363978D01*
G01X1937781Y-5362340D01*
G01X1937478Y-5360142D01*
G01X1937334Y-5356766D01*
G01X1937334Y-5322900D01*
G01X1935854Y-5311659D01*
G01X1931515Y-5301183D01*
G01X1924613Y-5292188D01*
G01X1656334Y-5023909D01*
G01X1656334Y-5023909D01*
G01X1656334Y-4708068D01*
G01X1657161Y-4707241D01*
G01X1660608Y-4704247D01*
G01X1663985Y-4702026D01*
G01X1667547Y-4700439D01*
G01X1668533Y-4700300D01*
G01X1683648Y-4697150D01*
G01X1697494Y-4690317D01*
G01X1709190Y-4680238D01*
G01X1717992Y-4667553D01*
G01X1723340Y-4653069D01*
G01X1724894Y-4637708D01*
G01X1722555Y-4622446D01*
G01X1716471Y-4608255D01*
G01X1707030Y-4596038D01*
G01X1694833Y-4586572D01*
G01X1680655Y-4580458D01*
G01X1665399Y-4578087D01*
G01X1650034Y-4579608D01*
G01X1635539Y-4584926D01*
G01X1622835Y-4593701D01*
G01X1612731Y-4605375D01*
G01X1605870Y-4619207D01*
G01X1602687Y-4634315D01*
G01X1602491Y-4635597D01*
G01X1600951Y-4638992D01*
G01X1598731Y-4642370D01*
G01X1595736Y-4645816D01*
G01X1582188Y-4659365D01*
G01X1575285Y-4668360D01*
G01X1570946Y-4678836D01*
G01X1569466Y-4690077D01*
G01X1556113Y-4690077D01*
G01X1556113Y-4661334D01*
G01X1556111Y-4661032D01*
G01X1555562Y-4619082D01*
G01X1555087Y-4541729D01*
G01X1568018Y-4548304D01*
G01X1582240Y-4551170D01*
G01X1596708Y-4550116D01*
G01X1610365Y-4545221D01*
G01X1622208Y-4536842D01*
G01X1631370Y-4525594D01*
G01X1637179Y-4512301D01*
G01X1639211Y-4497937D01*
G01X1637316Y-4483555D01*
G01X1631633Y-4470207D01*
G01X1622579Y-4458872D01*
G01X1610816Y-4450381D01*
G01X1597207Y-4445356D01*
G01X1582749Y-4444165D01*
G01X1564894Y-4426310D01*
G01X1564894Y-4353893D01*
G01X1576940Y-4357843D01*
G01X1589577Y-4358854D01*
G01X1602098Y-4356868D01*
G01X1613802Y-4351996D01*
G01X1624034Y-4344512D01*
G01X1632222Y-4334834D01*
G01X1637908Y-4323503D01*
G01X1640773Y-4311154D01*
G01X1640658Y-4298477D01*
G01X1637568Y-4286182D01*
G01X1631677Y-4274957D01*
G01X1623314Y-4265429D01*
G01X1623314Y-4213946D01*
G01X1630976Y-4225244D01*
G01X1641243Y-4234239D01*
G01X1653450Y-4240349D01*
G01X1666805Y-4243177D01*
G01X1680441Y-4242539D01*
G01X1693473Y-4238477D01*
G01X1705056Y-4231255D01*
G01X1714440Y-4221340D01*
G01X1715707Y-4234226D01*
G01X1720028Y-4246431D01*
G01X1727150Y-4257245D01*
G01X1736657Y-4266034D01*
G01X1747995Y-4272287D01*
G01X1760502Y-4275639D01*
G01X1773447Y-4275893D01*
G01X1786076Y-4273035D01*
G01X1797651Y-4267232D01*
G01X1807496Y-4258823D01*
G01X1815037Y-4248297D01*
G01X1819834Y-4236271D01*
G01X1821606Y-4223445D01*
G01X1820251Y-4210568D01*
G01X1815847Y-4198392D01*
G01X1808652Y-4187628D01*
G01X1807752Y-4186497D01*
G01X2125575Y-3868674D01*
G01X2610103Y-3868674D01*
G01X2611882Y-3869402D01*
G01X2614348Y-3870926D01*
G01X2617568Y-3873491D01*
G01X2629639Y-3881326D01*
G01X2643360Y-3885666D01*
G01X2657742Y-3886199D01*
G01X2671746Y-3882886D01*
G01X2684364Y-3875965D01*
G01X2694686Y-3865937D01*
G01X2694686Y-4143159D01*
G01X2347114Y-4490731D01*
G01X2345341Y-4491474D01*
G01X2342519Y-4492140D01*
G01X2338434Y-4492603D01*
G01X2325406Y-4495234D01*
G01X2313425Y-4500990D01*
G01X2303230Y-4509517D01*
G01X2295447Y-4520292D01*
G01X2290554Y-4532650D01*
G01X2288853Y-4545832D01*
G01X2290449Y-4559027D01*
G01X2295242Y-4571424D01*
G01X2302939Y-4582260D01*
G01X2313066Y-4590869D01*
G01X2300989Y-4600389D01*
G01X2291666Y-4612619D01*
G01X2285684Y-4626786D01*
G01X2283423Y-4641997D01*
G01X2285024Y-4657291D01*
G01X2290386Y-4671704D01*
G01X2299171Y-4684326D01*
G01X2310824Y-4694360D01*
G01X2324611Y-4701173D01*
G01X2339660Y-4704335D01*
G01X2340943Y-4704531D01*
G01X2344337Y-4706071D01*
G01X2347715Y-4708292D01*
G01X2351161Y-4711286D01*
G01X2356866Y-4716991D01*
G01X2356866Y-5189009D01*
G01X2263187Y-5282688D01*
G01X2256284Y-5291684D01*
G01X2251945Y-5302159D01*
G01X2250465Y-5313401D01*
G01X2250465Y-5356766D01*
G01X2250321Y-5360142D01*
G01X2250019Y-5362340D01*
G01X2249616Y-5363978D01*
G01X2249146Y-5365261D01*
G01X2248576Y-5366410D01*
G01X2248048Y-5367244D01*
G01X2245124Y-5370765D01*
G01X2240846Y-5374868D01*
G01X2234990Y-5380030D01*
G01X2234677Y-5380311D01*
G01X2228023Y-5386394D01*
G01X2226957Y-5387434D01*
G01X2224951Y-5389520D01*
G01X2212246Y-5404468D01*
G01X2202726Y-5421621D01*
G01X2196764Y-5440310D01*
G01X2194593Y-5459807D01*
G01X2196295Y-5479350D01*
G01X2201806Y-5498178D01*
G01X2210911Y-5515554D01*
G01X2223253Y-5530802D01*
G01X2238352Y-5543327D01*
G01X2255618Y-5552640D01*
G01X2274378Y-5558377D01*
G01X2293899Y-5560314D01*
G01X2313421Y-5558377D01*
G01X2332181Y-5552640D01*
G01X2349447Y-5543327D01*
G01X2364546Y-5530802D01*
G01X2376888Y-5515554D01*
G01X2385992Y-5498178D01*
G01X2391503Y-5479350D01*
G01X2393206Y-5459807D01*
G01X2391034Y-5440310D01*
G01X2385072Y-5421621D01*
G01X2375553Y-5404468D01*
G01X2362848Y-5389520D01*
G01X2360842Y-5387434D01*
G01X2359776Y-5386394D01*
G01X2358032Y-5384800D01*
G01X3067787Y-5384800D01*
G01X3067787Y-5537200D01*
G01X3069546Y-5546045D01*
G01X3074557Y-5553544D01*
G01X3082055Y-5558555D01*
G01X3090901Y-5560314D01*
G01X3243301Y-5560314D01*
G01X3243301Y-5560314D01*
G01X3252146Y-5558555D01*
G01X3259645Y-5553544D01*
G01X3264655Y-5546045D01*
G01X3266415Y-5537200D01*
G01X3266415Y-5384800D01*
G01X3264655Y-5375955D01*
G01X3259645Y-5368456D01*
G01X3252146Y-5363445D01*
G01X3243301Y-5361686D01*
G01X3090901Y-5361686D01*
G01X3082055Y-5363445D01*
G01X3074557Y-5368456D01*
G01X3069546Y-5375955D01*
G01X3067787Y-5384800D01*
G01X2358032Y-5384800D01*
G01X2353122Y-5380311D01*
G01X2352809Y-5380030D01*
G01X2346952Y-5374868D01*
G01X2342674Y-5370765D01*
G01X2339751Y-5367244D01*
G01X2339223Y-5366410D01*
G01X2338652Y-5365261D01*
G01X2338183Y-5363978D01*
G01X2337780Y-5362340D01*
G01X2337477Y-5360142D01*
G01X2337333Y-5356766D01*
G01X2337333Y-5331392D01*
G01X2431012Y-5237712D01*
G01X2437915Y-5228717D01*
G01X2442254Y-5218242D01*
G01X2443734Y-5207000D01*
G01X2443734Y-4752040D01*
G01X2991866Y-4752040D01*
G01X2991866Y-5003800D01*
G01X2993346Y-5015042D01*
G01X2997685Y-5025517D01*
G01X3004588Y-5034512D01*
G01X3323666Y-5353591D01*
G01X3323666Y-5353591D01*
G01X3323666Y-5356766D01*
G01X3323522Y-5360142D01*
G01X3323220Y-5362340D01*
G01X3322817Y-5363978D01*
G01X3322347Y-5365261D01*
G01X3321777Y-5366410D01*
G01X3321249Y-5367244D01*
G01X3318325Y-5370765D01*
G01X3314047Y-5374868D01*
G01X3308190Y-5380030D01*
G01X3307878Y-5380311D01*
G01X3301224Y-5386394D01*
G01X3300158Y-5387434D01*
G01X3298152Y-5389520D01*
G01X3285446Y-5404468D01*
G01X3275927Y-5421621D01*
G01X3269965Y-5440310D01*
G01X3267793Y-5459807D01*
G01X3269496Y-5479350D01*
G01X3275007Y-5498178D01*
G01X3284112Y-5515554D01*
G01X3296454Y-5530802D01*
G01X3311553Y-5543327D01*
G01X3328819Y-5552640D01*
G01X3347579Y-5558377D01*
G01X3367100Y-5560314D01*
G01X3386622Y-5558377D01*
G01X3405381Y-5552640D01*
G01X3422648Y-5543327D01*
G01X3437746Y-5530802D01*
G01X3450089Y-5515554D01*
G01X3459193Y-5498178D01*
G01X3464704Y-5479350D01*
G01X3466303Y-5461000D01*
G01X3467786Y-5461000D01*
G01X3469694Y-5480375D01*
G01X3475346Y-5499006D01*
G01X3484523Y-5516176D01*
G01X3496874Y-5531226D01*
G01X3511924Y-5543577D01*
G01X3529094Y-5552754D01*
G01X3547725Y-5558406D01*
G01X3567100Y-5560314D01*
G01X3586475Y-5558406D01*
G01X3605106Y-5552754D01*
G01X3622276Y-5543577D01*
G01X3637325Y-5531226D01*
G01X3649676Y-5516176D01*
G01X3658854Y-5499006D01*
G01X3664506Y-5480375D01*
G01X3666414Y-5461000D01*
G01X3666296Y-5459807D01*
G01X3667793Y-5459807D01*
G01X3669495Y-5479350D01*
G01X3675006Y-5498178D01*
G01X3684111Y-5515554D01*
G01X3696453Y-5530802D01*
G01X3711552Y-5543327D01*
G01X3728818Y-5552640D01*
G01X3747578Y-5558377D01*
G01X3767099Y-5560314D01*
G01X3786621Y-5558377D01*
G01X3805381Y-5552640D01*
G01X3822647Y-5543327D01*
G01X3837746Y-5530802D01*
G01X3850088Y-5515554D01*
G01X3859192Y-5498178D01*
G01X3864703Y-5479350D01*
G01X3866406Y-5459807D01*
G01X3864234Y-5440310D01*
G01X3858272Y-5421621D01*
G01X3848753Y-5404468D01*
G01X3836048Y-5389520D01*
G01X3834042Y-5387434D01*
G01X3832976Y-5386394D01*
G01X3831232Y-5384800D01*
G01X4553687Y-5384800D01*
G01X4553687Y-5537200D01*
G01X4555446Y-5546045D01*
G01X4560457Y-5553544D01*
G01X4567955Y-5558555D01*
G01X4576801Y-5560314D01*
G01X4729201Y-5560314D01*
G01X4729201Y-5560314D01*
G01X4738046Y-5558555D01*
G01X4745545Y-5553544D01*
G01X4750555Y-5546045D01*
G01X4752315Y-5537200D01*
G01X4752315Y-5384800D01*
G01X4750555Y-5375955D01*
G01X4745545Y-5368456D01*
G01X4738046Y-5363445D01*
G01X4729201Y-5361686D01*
G01X4576801Y-5361686D01*
G01X4567955Y-5363445D01*
G01X4560457Y-5368456D01*
G01X4555446Y-5375955D01*
G01X4553687Y-5384800D01*
G01X3831232Y-5384800D01*
G01X3826322Y-5380311D01*
G01X3826009Y-5380030D01*
G01X3820152Y-5374868D01*
G01X3815874Y-5370765D01*
G01X3812951Y-5367244D01*
G01X3812423Y-5366410D01*
G01X3811852Y-5365261D01*
G01X3811383Y-5363978D01*
G01X3810980Y-5362340D01*
G01X3810677Y-5360142D01*
G01X3810533Y-5356766D01*
G01X3810533Y-5344092D01*
G01X3967712Y-5186912D01*
G01X3974615Y-5177917D01*
G01X3978954Y-5167442D01*
G01X3980434Y-5156200D01*
G01X3980434Y-4740604D01*
G01X3978954Y-4729363D01*
G01X3974615Y-4718887D01*
G01X3969100Y-4711700D01*
G01X4490466Y-4711700D01*
G01X4490466Y-5016500D01*
G01X4491946Y-5027742D01*
G01X4496285Y-5038217D01*
G01X4503188Y-5047212D01*
G01X4809566Y-5353591D01*
G01X4809566Y-5353591D01*
G01X4809566Y-5356766D01*
G01X4809422Y-5360142D01*
G01X4809120Y-5362340D01*
G01X4808717Y-5363978D01*
G01X4808247Y-5365261D01*
G01X4807677Y-5366410D01*
G01X4807149Y-5367244D01*
G01X4804225Y-5370765D01*
G01X4799947Y-5374868D01*
G01X4794090Y-5380030D01*
G01X4793778Y-5380311D01*
G01X4787124Y-5386394D01*
G01X4786058Y-5387434D01*
G01X4784052Y-5389520D01*
G01X4771346Y-5404468D01*
G01X4761827Y-5421621D01*
G01X4755865Y-5440310D01*
G01X4753693Y-5459807D01*
G01X4755396Y-5479350D01*
G01X4760907Y-5498178D01*
G01X4770012Y-5515554D01*
G01X4782354Y-5530802D01*
G01X4797453Y-5543327D01*
G01X4814719Y-5552640D01*
G01X4833479Y-5558377D01*
G01X4853000Y-5560314D01*
G01X4872522Y-5558377D01*
G01X4891281Y-5552640D01*
G01X4908548Y-5543327D01*
G01X4923646Y-5530802D01*
G01X4935989Y-5515554D01*
G01X4945093Y-5498178D01*
G01X4950604Y-5479350D01*
G01X4952203Y-5461000D01*
G01X4953686Y-5461000D01*
G01X4955594Y-5480375D01*
G01X4961246Y-5499006D01*
G01X4970423Y-5516176D01*
G01X4982774Y-5531226D01*
G01X4997824Y-5543577D01*
G01X5014994Y-5552754D01*
G01X5033625Y-5558406D01*
G01X5053000Y-5560314D01*
G01X5072375Y-5558406D01*
G01X5091006Y-5552754D01*
G01X5108176Y-5543577D01*
G01X5123225Y-5531226D01*
G01X5135576Y-5516176D01*
G01X5144754Y-5499006D01*
G01X5150406Y-5480375D01*
G01X5152314Y-5461000D01*
G01X5150406Y-5441625D01*
G01X5144754Y-5422994D01*
G01X5135576Y-5405824D01*
G01X5123225Y-5390774D01*
G01X5108176Y-5378423D01*
G01X5091006Y-5369246D01*
G01X5072375Y-5363594D01*
G01X5053000Y-5361686D01*
G01X5033625Y-5363594D01*
G01X5014994Y-5369246D01*
G01X4997824Y-5378423D01*
G01X4982774Y-5390774D01*
G01X4970423Y-5405824D01*
G01X4961246Y-5422994D01*
G01X4955594Y-5441625D01*
G01X4953686Y-5461000D01*
G01X4953686Y-5461000D01*
G01X4952203Y-5461000D01*
G01X4952307Y-5459807D01*
G01X4950135Y-5440310D01*
G01X4944173Y-5421621D01*
G01X4934654Y-5404468D01*
G01X4921949Y-5389520D01*
G01X4919943Y-5387434D01*
G01X4918877Y-5386394D01*
G01X4912223Y-5380311D01*
G01X4911910Y-5380030D01*
G01X4906053Y-5374868D01*
G01X4901775Y-5370765D01*
G01X4898852Y-5367244D01*
G01X4898323Y-5366410D01*
G01X4897753Y-5365261D01*
G01X4897284Y-5363978D01*
G01X4896881Y-5362340D01*
G01X4896578Y-5360142D01*
G01X4896434Y-5356766D01*
G01X4896434Y-5335600D01*
G01X4894954Y-5324359D01*
G01X4890615Y-5313883D01*
G01X4883713Y-5304888D01*
G01X4577334Y-4998509D01*
G01X4577334Y-4729691D01*
G01X4603561Y-4703464D01*
G01X4607008Y-4700469D01*
G01X4610385Y-4698249D01*
G01X4613947Y-4696662D01*
G01X4614933Y-4696523D01*
G01X4630048Y-4693372D01*
G01X4643894Y-4686540D01*
G01X4655590Y-4676461D01*
G01X4664392Y-4663776D01*
G01X4669740Y-4649292D01*
G01X4671294Y-4633930D01*
G01X4668955Y-4618669D01*
G01X4662871Y-4604478D01*
G01X4653430Y-4592261D01*
G01X4641233Y-4582794D01*
G01X4627055Y-4576681D01*
G01X4611799Y-4574310D01*
G01X4596434Y-4575831D01*
G01X4581939Y-4581148D01*
G01X4569235Y-4589924D01*
G01X4559131Y-4601598D01*
G01X4552270Y-4615430D01*
G01X4549087Y-4630538D01*
G01X4548891Y-4631820D01*
G01X4547351Y-4635215D01*
G01X4545131Y-4638592D01*
G01X4542136Y-4642039D01*
G01X4503188Y-4680988D01*
G01X4496285Y-4689983D01*
G01X4491946Y-4700458D01*
G01X4490466Y-4711700D01*
G01X3969100Y-4711700D01*
G01X3967712Y-4709892D01*
G01X3912472Y-4654652D01*
G01X3908182Y-4640623D01*
G01X3900249Y-4628283D01*
G01X3889267Y-4618556D01*
G01X3876059Y-4612172D01*
G01X3861614Y-4609608D01*
G01X3847016Y-4611057D01*
G01X3833357Y-4616410D01*
G01X3821662Y-4625266D01*
G01X3812806Y-4636961D01*
G01X3807453Y-4650620D01*
G01X3806004Y-4665218D01*
G01X3808568Y-4679663D01*
G01X3814952Y-4692871D01*
G01X3824679Y-4703853D01*
G01X3837019Y-4711786D01*
G01X3851047Y-4716077D01*
G01X3893566Y-4758595D01*
G01X3893566Y-5138209D01*
G01X3736387Y-5295388D01*
G01X3736387Y-5295388D01*
G01X3729484Y-5304384D01*
G01X3725145Y-5314859D01*
G01X3723665Y-5326101D01*
G01X3723665Y-5356766D01*
G01X3723521Y-5360142D01*
G01X3723219Y-5362340D01*
G01X3722816Y-5363978D01*
G01X3722346Y-5365261D01*
G01X3721776Y-5366410D01*
G01X3721248Y-5367244D01*
G01X3718324Y-5370765D01*
G01X3714046Y-5374868D01*
G01X3708190Y-5380030D01*
G01X3707877Y-5380311D01*
G01X3701223Y-5386394D01*
G01X3700157Y-5387434D01*
G01X3698151Y-5389520D01*
G01X3685446Y-5404468D01*
G01X3675926Y-5421621D01*
G01X3669964Y-5440310D01*
G01X3667793Y-5459807D01*
G01X3666296Y-5459807D01*
G01X3664506Y-5441625D01*
G01X3658854Y-5422994D01*
G01X3649676Y-5405824D01*
G01X3637325Y-5390774D01*
G01X3622276Y-5378423D01*
G01X3605106Y-5369246D01*
G01X3586475Y-5363594D01*
G01X3567100Y-5361686D01*
G01X3547725Y-5363594D01*
G01X3529094Y-5369246D01*
G01X3511924Y-5378423D01*
G01X3496874Y-5390774D01*
G01X3484523Y-5405824D01*
G01X3475346Y-5422994D01*
G01X3469694Y-5441625D01*
G01X3467786Y-5461000D01*
G01X3467786Y-5461000D01*
G01X3466303Y-5461000D01*
G01X3466407Y-5459807D01*
G01X3464235Y-5440310D01*
G01X3458273Y-5421621D01*
G01X3448754Y-5404468D01*
G01X3436049Y-5389520D01*
G01X3434043Y-5387434D01*
G01X3432977Y-5386394D01*
G01X3426323Y-5380311D01*
G01X3426010Y-5380030D01*
G01X3420153Y-5374868D01*
G01X3415875Y-5370765D01*
G01X3412952Y-5367244D01*
G01X3412423Y-5366410D01*
G01X3411853Y-5365261D01*
G01X3411384Y-5363978D01*
G01X3410981Y-5362340D01*
G01X3410678Y-5360142D01*
G01X3410534Y-5356766D01*
G01X3410534Y-5335600D01*
G01X3409054Y-5324359D01*
G01X3404715Y-5313883D01*
G01X3397813Y-5304888D01*
G01X3078734Y-4985809D01*
G01X3078734Y-4770031D01*
G01X3158111Y-4690654D01*
G01X3172140Y-4686364D01*
G01X3184480Y-4678431D01*
G01X3194206Y-4667449D01*
G01X3200591Y-4654241D01*
G01X3203155Y-4639796D01*
G01X3201706Y-4625198D01*
G01X3196353Y-4611539D01*
G01X3187497Y-4599844D01*
G01X3175801Y-4590988D01*
G01X3162143Y-4585635D01*
G01X3147544Y-4584186D01*
G01X3133100Y-4586750D01*
G01X3119892Y-4593134D01*
G01X3108910Y-4602860D01*
G01X3100976Y-4615200D01*
G01X3096686Y-4629229D01*
G01X3004588Y-4721328D01*
G01X2997685Y-4730323D01*
G01X2993346Y-4740799D01*
G01X2991866Y-4752040D01*
G01X2443734Y-4752040D01*
G01X2443734Y-4699000D01*
G01X2442254Y-4687758D01*
G01X2437915Y-4677283D01*
G01X2431012Y-4668288D01*
G01X2412586Y-4649861D01*
G01X2409592Y-4646415D01*
G01X2407371Y-4643037D01*
G01X2405784Y-4639476D01*
G01X2405645Y-4638489D01*
G01X2402578Y-4623616D01*
G01X2395943Y-4609956D01*
G01X2386151Y-4598350D01*
G01X2373802Y-4589511D01*
G01X2382451Y-4581712D01*
G01X2389210Y-4572228D01*
G01X2393762Y-4561509D01*
G01X2395891Y-4550059D01*
G01X2396353Y-4545974D01*
G01X2397019Y-4543152D01*
G01X2397762Y-4541380D01*
G01X2552843Y-4386299D01*
G01X2558559Y-4397999D01*
G01X2566927Y-4407976D01*
G01X2577455Y-4415640D01*
G01X2589520Y-4420538D01*
G01X2602410Y-4422383D01*
G01X2615365Y-4421064D01*
G01X2627619Y-4416660D01*
G01X2638450Y-4409431D01*
G01X2641669Y-4406866D01*
G01X2644135Y-4405342D01*
G01X2645913Y-4404614D01*
G01X2939438Y-4404614D01*
G01X2948707Y-4403394D01*
G01X2957345Y-4399816D01*
G01X2964762Y-4394124D01*
G01X3127580Y-4231306D01*
G01X3133272Y-4223889D01*
G01X3136850Y-4215251D01*
G01X3138070Y-4205982D01*
G01X3138070Y-4130181D01*
G01X3138963Y-4129412D01*
G01X3182102Y-4172551D01*
G01X3183782Y-4174584D01*
G01X3185089Y-4176791D01*
G01X3186664Y-4180221D01*
G01X3188431Y-4184716D01*
G01X3194547Y-4196267D01*
G01X3203278Y-4205995D01*
G01X3214105Y-4213320D01*
G01X3226382Y-4217806D01*
G01X3239380Y-4219187D01*
G01X3252326Y-4217380D01*
G01X3264449Y-4212493D01*
G01X3275029Y-4204817D01*
G01X3283436Y-4194808D01*
G01X3289170Y-4183061D01*
G01X3291890Y-4170276D01*
G01X3291434Y-4157213D01*
G01X3287829Y-4144649D01*
G01X3281290Y-4133330D01*
G01X3272206Y-4123932D01*
G01X3261117Y-4117012D01*
G01X3269912Y-4107137D01*
G01X3276022Y-4095409D01*
G01X3279075Y-4082543D01*
G01X3278883Y-4069320D01*
G01X3275461Y-4056547D01*
G01X3269014Y-4045001D01*
G01X3259937Y-4035384D01*
G01X3248781Y-4028283D01*
G01X3236226Y-4024130D01*
G01X3223037Y-4023177D01*
G01X3210016Y-4025483D01*
G01X3197955Y-4030907D01*
G01X3197955Y-3872731D01*
G01X3206729Y-3862597D01*
G01X3212713Y-3850603D01*
G01X3215534Y-3837499D01*
G01X3215015Y-3824105D01*
G01X3211189Y-3811259D01*
G01X3216077Y-3811905D01*
G01X3229390Y-3812674D01*
G01X3242481Y-3810132D01*
G01X3254540Y-3804436D01*
G01X3264819Y-3795940D01*
G01X3272682Y-3785170D01*
G01X3277642Y-3772791D01*
G01X3826238Y-4321387D01*
G01X3826238Y-4503632D01*
G01X3825510Y-4505411D01*
G01X3823986Y-4507877D01*
G01X3821421Y-4511097D01*
G01X3813956Y-4522402D01*
G01X3809563Y-4535218D01*
G01X3808525Y-4548726D01*
G01X3810907Y-4562062D01*
G01X3816557Y-4574376D01*
G01X3825115Y-4584879D01*
G01X3836032Y-4592900D01*
G01X3848613Y-4597928D01*
G01X3862052Y-4599640D01*
G01X3875491Y-4597928D01*
G01X3888071Y-4592900D01*
G01X3898989Y-4584879D01*
G01X3907547Y-4574376D01*
G01X3913197Y-4562062D01*
G01X3915579Y-4548726D01*
G01X3914541Y-4535218D01*
G01X3910148Y-4522402D01*
G01X3902682Y-4511097D01*
G01X3900118Y-4507877D01*
G01X3898594Y-4505411D01*
G01X3897866Y-4503633D01*
G01X3897866Y-4371479D01*
G01X4035873Y-4371479D01*
G01X4038255Y-4384816D01*
G01X4043905Y-4397129D01*
G01X4052463Y-4407632D01*
G01X4063380Y-4415654D01*
G01X4075961Y-4420682D01*
G01X4089400Y-4422394D01*
G01X4102839Y-4420682D01*
G01X4115420Y-4415654D01*
G01X4126337Y-4407632D01*
G01X4134895Y-4397129D01*
G01X4140545Y-4384816D01*
G01X4142927Y-4371479D01*
G01X4141889Y-4357971D01*
G01X4137496Y-4345155D01*
G01X4130031Y-4333850D01*
G01X4127466Y-4330631D01*
G01X4125942Y-4328165D01*
G01X4125214Y-4326387D01*
G01X4125214Y-3801614D01*
G01X4125942Y-3799835D01*
G01X4127466Y-3797369D01*
G01X4130031Y-3794150D01*
G01X4137496Y-3782845D01*
G01X4141889Y-3770029D01*
G01X4142927Y-3756521D01*
G01X4140545Y-3743184D01*
G01X4134895Y-3730871D01*
G01X4126337Y-3720368D01*
G01X4115420Y-3712346D01*
G01X4102839Y-3707318D01*
G01X4089400Y-3705606D01*
G01X4075961Y-3707318D01*
G01X4063380Y-3712346D01*
G01X4052463Y-3720368D01*
G01X4043905Y-3730871D01*
G01X4038255Y-3743184D01*
G01X4035873Y-3756521D01*
G01X4036911Y-3770029D01*
G01X4041304Y-3782845D01*
G01X4048769Y-3794150D01*
G01X4051334Y-3797369D01*
G01X4052858Y-3799835D01*
G01X4053586Y-3801613D01*
G01X4053586Y-4326386D01*
G01X4052858Y-4328165D01*
G01X4052858Y-4328165D01*
G01X4051334Y-4330631D01*
G01X4048769Y-4333850D01*
G01X4041304Y-4345155D01*
G01X4036911Y-4357971D01*
G01X4035873Y-4371479D01*
G01X3897866Y-4371479D01*
G01X3897866Y-4306552D01*
G01X3896646Y-4297283D01*
G01X3893068Y-4288645D01*
G01X3887376Y-4281228D01*
G01X3104134Y-3497985D01*
G01X3104134Y-2529071D01*
G01X3113219Y-2518464D01*
G01X3119256Y-2505870D01*
G01X3121833Y-2492144D01*
G01X3120777Y-2478218D01*
G01X3116158Y-2465038D01*
G01X3108292Y-2453499D01*
G01X3097711Y-2444384D01*
G01X3085134Y-2438312D01*
G01X3097561Y-2432168D01*
G01X3107997Y-2423041D01*
G01X3115743Y-2411544D01*
G01X3120280Y-2398444D01*
G01X3121306Y-2384618D01*
G01X3118751Y-2370993D01*
G01X3112786Y-2358478D01*
G01X3103811Y-2347912D01*
G01X3092426Y-2340001D01*
G01X3079393Y-2335276D01*
G01X3065583Y-2334052D01*
G01X3051922Y-2336410D01*
G01X3039323Y-2342194D01*
G01X3028629Y-2351016D01*
G01X3020556Y-2362287D01*
G01X3015643Y-2375250D01*
G01X3014477Y-2379879D01*
G01X3013404Y-2383097D01*
G01X3012607Y-2384711D01*
G01X3011429Y-2386222D01*
G01X3010154Y-2387497D01*
G01X3010154Y-2361795D01*
G01X3056033Y-2315915D01*
G01X3057806Y-2315172D01*
G01X3060628Y-2314506D01*
G01X3064713Y-2314044D01*
G01X3077986Y-2311330D01*
G01X3090155Y-2305374D01*
G01X3100442Y-2296557D01*
G01X3108189Y-2285442D01*
G01X3112901Y-2272740D01*
G01X3114277Y-2259261D01*
G01X3112230Y-2245869D01*
G01X3106889Y-2233417D01*
G01X3098597Y-2222703D01*
G01X3087883Y-2214411D01*
G01X3075431Y-2209070D01*
G01X3062039Y-2207023D01*
G01X3048560Y-2208399D01*
G01X3035858Y-2213111D01*
G01X3024743Y-2220858D01*
G01X3015926Y-2231145D01*
G01X3009970Y-2243314D01*
G01X3007256Y-2256587D01*
G01X3006794Y-2260672D01*
G01X3006128Y-2263494D01*
G01X3005385Y-2265266D01*
G01X2949016Y-2321636D01*
G01X2943324Y-2329053D01*
G01X2939746Y-2337691D01*
G01X2938526Y-2346960D01*
G01X2938526Y-4175414D01*
G01X2939746Y-4184683D01*
G01X2943324Y-4193321D01*
G01X2949016Y-4200738D01*
G01X2956958Y-4208679D01*
G01X2957701Y-4210452D01*
G01X2958366Y-4213274D01*
G01X2958829Y-4217359D01*
G01X2961138Y-4229395D01*
G01X2966121Y-4240592D01*
G01X2973517Y-4250364D01*
G01X2982940Y-4258201D01*
G01X2993897Y-4263692D01*
G01X2924603Y-4332986D01*
G01X2645914Y-4332986D01*
G01X2644135Y-4332258D01*
G01X2641669Y-4330734D01*
G01X2638450Y-4328169D01*
G01X2630199Y-4322330D01*
G01X2620999Y-4318143D01*
G01X2755824Y-4183318D01*
G01X2761516Y-4175900D01*
G01X2765094Y-4167263D01*
G01X2766314Y-4157993D01*
G01X2766314Y-3828224D01*
G01X2765094Y-3818955D01*
G01X2761516Y-3810317D01*
G01X2755824Y-3802900D01*
G01X2538654Y-3585730D01*
G01X2538654Y-2584992D01*
G01X3065704Y-2057941D01*
G01X3071396Y-2050524D01*
G01X3074974Y-2041886D01*
G01X3076194Y-2032617D01*
G01X3076194Y-1813154D01*
G01X3081433Y-1807915D01*
G01X3083206Y-1807172D01*
G01X3086028Y-1806506D01*
G01X3090113Y-1806044D01*
G01X3103386Y-1803330D01*
G01X3115555Y-1797374D01*
G01X3125842Y-1788557D01*
G01X3133589Y-1777442D01*
G01X3138301Y-1764740D01*
G01X3139677Y-1751261D01*
G01X3137630Y-1737869D01*
G01X3132289Y-1725417D01*
G01X3123997Y-1714703D01*
G01X3113283Y-1706411D01*
G01X3100831Y-1701070D01*
G01X3087439Y-1699023D01*
G01X3073960Y-1700399D01*
G01X3061258Y-1705111D01*
G01X3050143Y-1712858D01*
G01X3041326Y-1723145D01*
G01X3035370Y-1735314D01*
G01X3032656Y-1748587D01*
G01X3032194Y-1752672D01*
G01X3031528Y-1755494D01*
G01X3030785Y-1757266D01*
G01X3015056Y-1772996D01*
G01X3009364Y-1780413D01*
G01X3005786Y-1789051D01*
G01X3004566Y-1798320D01*
G01X3004566Y-1826596D01*
G01X2992293Y-1822601D01*
G01X2979421Y-1821655D01*
G01X2966696Y-1823815D01*
G01X2954857Y-1828954D01*
G01X2944589Y-1836774D01*
G01X2936489Y-1846823D01*
G01X2931026Y-1858516D01*
G01X2928516Y-1871177D01*
G01X2928054Y-1875262D01*
G01X2927388Y-1878084D01*
G01X2926645Y-1879856D01*
G01X2898216Y-1908285D01*
G01X2892524Y-1915702D01*
G01X2888946Y-1924340D01*
G01X2887726Y-1933609D01*
G01X2887726Y-1993584D01*
G01X2406395Y-2474914D01*
G01X2400704Y-2482332D01*
G01X2397126Y-2490969D01*
G01X2395906Y-2500239D01*
G01X2395906Y-3027146D01*
G01X1587576Y-3835476D01*
G01X1587576Y-3835476D01*
G01X1581884Y-3842893D01*
G01X1578306Y-3851531D01*
G01X1577086Y-3860800D01*
G01X1577086Y-4075076D01*
G01X1503756Y-4148406D01*
G01X1498064Y-4155824D01*
G01X1494486Y-4164461D01*
G01X1493266Y-4173731D01*
G01X1493266Y-4421742D01*
G01X1255014Y-4183490D01*
G01X1255014Y-3823454D01*
G01X1269330Y-3808800D01*
G01X1280898Y-3791892D01*
G01X1289371Y-3773239D01*
G01X1294493Y-3753403D01*
G01X1296110Y-3732981D01*
G01X1294174Y-3712586D01*
G01X1288744Y-3692832D01*
G01X1279981Y-3674314D01*
G01X1268151Y-3657588D01*
G01X1253608Y-3643159D01*
G01X1236791Y-3631459D01*
G01X1218205Y-3622841D01*
G01X1198409Y-3617564D01*
G01X1178000Y-3615788D01*
G01X1108000Y-3615788D01*
G01X1087591Y-3617564D01*
G01X1067795Y-3622841D01*
G01X1049209Y-3631459D01*
G01X1032392Y-3643159D01*
G01X1017849Y-3657588D01*
G01X1006019Y-3674314D01*
G01X997256Y-3692832D01*
G01X991826Y-3712586D01*
G01X989890Y-3732981D01*
G01X35814Y-3732981D01*
G01X35814Y-3253002D01*
G01X990390Y-3253002D01*
G01X990390Y-3274798D01*
G01X994395Y-3296223D01*
G01X1002269Y-3316548D01*
G01X1013743Y-3335079D01*
G01X1028427Y-3351187D01*
G01X1045821Y-3364322D01*
G01X1065332Y-3374038D01*
G01X1086297Y-3380003D01*
G01X1108000Y-3382014D01*
G01X1178000Y-3382014D01*
G01X1199703Y-3380003D01*
G01X1220668Y-3374038D01*
G01X1240179Y-3364322D01*
G01X1257573Y-3351187D01*
G01X1272257Y-3335079D01*
G01X1283731Y-3316548D01*
G01X1291605Y-3296223D01*
G01X1295610Y-3274798D01*
G01X1295610Y-3253002D01*
G01X1291605Y-3231577D01*
G01X1283731Y-3211252D01*
G01X1272257Y-3192721D01*
G01X1257573Y-3176613D01*
G01X1240179Y-3163478D01*
G01X1220668Y-3153762D01*
G01X1199703Y-3147797D01*
G01X1178000Y-3145786D01*
G01X1178000Y-3145786D01*
G01X1108000Y-3145786D01*
G01X1086297Y-3147797D01*
G01X1065332Y-3153762D01*
G01X1045821Y-3163478D01*
G01X1028427Y-3176613D01*
G01X1013743Y-3192721D01*
G01X1002269Y-3211252D01*
G01X994395Y-3231577D01*
G01X990390Y-3253002D01*
G01X35814Y-3253002D01*
G01X35814Y-2783000D01*
G01X990390Y-2783000D01*
G01X990390Y-2804797D01*
G01X994395Y-2826222D01*
G01X1002269Y-2846546D01*
G01X1013743Y-2865078D01*
G01X1028427Y-2881186D01*
G01X1045821Y-2894321D01*
G01X1065332Y-2904036D01*
G01X1086297Y-2910001D01*
G01X1108000Y-2912012D01*
G01X1178000Y-2912012D01*
G01X1199703Y-2910001D01*
G01X1220668Y-2904036D01*
G01X1240179Y-2894321D01*
G01X1257573Y-2881186D01*
G01X1272257Y-2865078D01*
G01X1283731Y-2846546D01*
G01X1291605Y-2826222D01*
G01X1295610Y-2804797D01*
G01X1295610Y-2783000D01*
G01X1291605Y-2761575D01*
G01X1283731Y-2741251D01*
G01X1272257Y-2722719D01*
G01X1257573Y-2706611D01*
G01X1240179Y-2693476D01*
G01X1220668Y-2683761D01*
G01X1199703Y-2677796D01*
G01X1178000Y-2675785D01*
G01X1178000Y-2675785D01*
G01X1108000Y-2675785D01*
G01X1086297Y-2677796D01*
G01X1065332Y-2683761D01*
G01X1045821Y-2693476D01*
G01X1028427Y-2706611D01*
G01X1013743Y-2722719D01*
G01X1002269Y-2741251D01*
G01X994395Y-2761575D01*
G01X990390Y-2783000D01*
G01X35814Y-2783000D01*
G01X35814Y-2618925D01*
G01X1848147Y-2618925D01*
G01X1848147Y-2638875D01*
G01X1851813Y-2658487D01*
G01X1859020Y-2677090D01*
G01X1869523Y-2694053D01*
G01X1882964Y-2708797D01*
G01X1898885Y-2720820D01*
G01X1916745Y-2729713D01*
G01X1935934Y-2735173D01*
G01X1955800Y-2737014D01*
G01X1955800Y-2737014D01*
G01X1975666Y-2735173D01*
G01X1994855Y-2729713D01*
G01X2012715Y-2720820D01*
G01X2028636Y-2708797D01*
G01X2042077Y-2694053D01*
G01X2052580Y-2677090D01*
G01X2059787Y-2658487D01*
G01X2063453Y-2638875D01*
G01X2063453Y-2618925D01*
G01X2059787Y-2599313D01*
G01X2052580Y-2580710D01*
G01X2042077Y-2563747D01*
G01X2028636Y-2549003D01*
G01X2012715Y-2536980D01*
G01X1994855Y-2528087D01*
G01X1975666Y-2522627D01*
G01X1955800Y-2520786D01*
G01X1935934Y-2522627D01*
G01X1916745Y-2528087D01*
G01X1898885Y-2536980D01*
G01X1882964Y-2549003D01*
G01X1869523Y-2563747D01*
G01X1859020Y-2580710D01*
G01X1851813Y-2599313D01*
G01X1848147Y-2618925D01*
G01X35814Y-2618925D01*
G01X35814Y-2364925D01*
G01X1848147Y-2364925D01*
G01X1848147Y-2384875D01*
G01X1851813Y-2404487D01*
G01X1859020Y-2423090D01*
G01X1869523Y-2440053D01*
G01X1882964Y-2454797D01*
G01X1898885Y-2466820D01*
G01X1916745Y-2475713D01*
G01X1935934Y-2481173D01*
G01X1955800Y-2483014D01*
G01X1955800Y-2483014D01*
G01X1975666Y-2481173D01*
G01X1994855Y-2475713D01*
G01X2012715Y-2466820D01*
G01X2028636Y-2454797D01*
G01X2042077Y-2440053D01*
G01X2052580Y-2423090D01*
G01X2059787Y-2404487D01*
G01X2063453Y-2384875D01*
G01X2063453Y-2364925D01*
G01X2059787Y-2345313D01*
G01X2052580Y-2326710D01*
G01X2042077Y-2309747D01*
G01X2028636Y-2295003D01*
G01X2012715Y-2282980D01*
G01X1994855Y-2274087D01*
G01X1975666Y-2268627D01*
G01X1955800Y-2266786D01*
G01X1935934Y-2268627D01*
G01X1916745Y-2274087D01*
G01X1898885Y-2282980D01*
G01X1882964Y-2295003D01*
G01X1869523Y-2309747D01*
G01X1859020Y-2326710D01*
G01X1851813Y-2345313D01*
G01X1848147Y-2364925D01*
G01X35814Y-2364925D01*
G01X35814Y-2110925D01*
G01X1848147Y-2110925D01*
G01X1848147Y-2130875D01*
G01X1851813Y-2150487D01*
G01X1859020Y-2169090D01*
G01X1869523Y-2186053D01*
G01X1882964Y-2200797D01*
G01X1898885Y-2212820D01*
G01X1916745Y-2221713D01*
G01X1935934Y-2227173D01*
G01X1955800Y-2229014D01*
G01X1955800Y-2229014D01*
G01X1975666Y-2227173D01*
G01X1994855Y-2221713D01*
G01X2012715Y-2212820D01*
G01X2028636Y-2200797D01*
G01X2042077Y-2186053D01*
G01X2052580Y-2169090D01*
G01X2059787Y-2150487D01*
G01X2063453Y-2130875D01*
G01X2063453Y-2110925D01*
G01X2059787Y-2091313D01*
G01X2052580Y-2072710D01*
G01X2042077Y-2055747D01*
G01X2028636Y-2041003D01*
G01X2012715Y-2028980D01*
G01X1994855Y-2020087D01*
G01X1975666Y-2014627D01*
G01X1955800Y-2012786D01*
G01X1935934Y-2014627D01*
G01X1916745Y-2020087D01*
G01X1898885Y-2028980D01*
G01X1882964Y-2041003D01*
G01X1869523Y-2055747D01*
G01X1859020Y-2072710D01*
G01X1851813Y-2091313D01*
G01X1848147Y-2110925D01*
G01X35814Y-2110925D01*
G01X35814Y-1994103D01*
G01X322778Y-1994103D01*
G01X324653Y-2011945D01*
G01X330197Y-2029007D01*
G01X339167Y-2044543D01*
G01X351171Y-2057875D01*
G01X365685Y-2068420D01*
G01X382074Y-2075717D01*
G01X399622Y-2079447D01*
G01X417562Y-2079447D01*
G01X435110Y-2075717D01*
G01X451499Y-2068420D01*
G01X466013Y-2057875D01*
G01X478017Y-2044543D01*
G01X486987Y-2029007D01*
G01X492531Y-2011945D01*
G01X494406Y-1994103D01*
G01X492531Y-1976261D01*
G01X486987Y-1959200D01*
G01X478017Y-1943663D01*
G01X466013Y-1930331D01*
G01X451499Y-1919786D01*
G01X435110Y-1912489D01*
G01X417562Y-1908759D01*
G01X399622Y-1908759D01*
G01X382074Y-1912489D01*
G01X365685Y-1919786D01*
G01X351171Y-1930331D01*
G01X339167Y-1943663D01*
G01X330197Y-1959200D01*
G01X324653Y-1976261D01*
G01X322778Y-1994103D01*
G01X322778Y-1994103D01*
G01X35814Y-1994103D01*
G01X35814Y-1194105D01*
G01X322778Y-1194105D01*
G01X324653Y-1211947D01*
G01X330197Y-1229008D01*
G01X339167Y-1244545D01*
G01X351171Y-1257877D01*
G01X365685Y-1268422D01*
G01X382074Y-1275719D01*
G01X399622Y-1279449D01*
G01X417562Y-1279449D01*
G01X435110Y-1275719D01*
G01X451499Y-1268422D01*
G01X466013Y-1257877D01*
G01X478017Y-1244545D01*
G01X486987Y-1229008D01*
G01X492531Y-1211947D01*
G01X494406Y-1194105D01*
G01X492531Y-1176263D01*
G01X486987Y-1159201D01*
G01X478017Y-1143665D01*
G01X466013Y-1130333D01*
G01X451499Y-1119788D01*
G01X435110Y-1112491D01*
G01X417562Y-1108761D01*
G01X399622Y-1108761D01*
G01X382074Y-1112491D01*
G01X365685Y-1119788D01*
G01X351171Y-1130333D01*
G01X339167Y-1143665D01*
G01X330197Y-1159201D01*
G01X324653Y-1176263D01*
G01X322778Y-1194105D01*
G01X322778Y-1194105D01*
G01X35814Y-1194105D01*
G01X35814Y-457200D01*
G01X37843Y-415897D01*
G01X43911Y-374992D01*
G01X53959Y-334878D01*
G01X67890Y-295943D01*
G01X85571Y-258560D01*
G01X106830Y-223090D01*
G01X131464Y-189876D01*
G01X159235Y-159235D01*
G01X189876Y-131464D01*
G01X223090Y-106830D01*
G01X258560Y-85571D01*
G01X295943Y-67890D01*
G01X334878Y-53959D01*
G01X374992Y-43911D01*
G01X415897Y-37843D01*
G01X457200Y-35814D01*
G37*
G36*
G01X4783385Y-2256911D02*
G01X4784128Y-2258683D01*
G01X4784794Y-2261506D01*
G01X4785256Y-2265591D01*
G01X4787144Y-2276217D01*
G01X4791122Y-2286249D01*
G01X4797030Y-2295281D01*
G01X4722114Y-2220365D01*
G01X4722114Y-2195640D01*
G01X4783385Y-2256911D01*
G37*
G36*
G01X4731174Y-1017319D02*
G01X4797800Y-1083944D01*
G01X4790970Y-1094202D01*
G01X4786664Y-1105749D01*
G01X4785109Y-1117974D01*
G01X4786388Y-1130231D01*
G01X4790433Y-1141872D01*
G01X4797030Y-1152281D01*
G01X4731174Y-1086425D01*
G01X4731174Y-1017319D01*
G37*
G36*
G01X5216550Y-3017511D02*
G01X5219769Y-3014946D01*
G01X5222235Y-3013422D01*
G01X5224013Y-3012694D01*
G01X5713561Y-3012694D01*
G01X5747381Y-3046513D01*
G01X5748124Y-3048286D01*
G01X5748789Y-3051108D01*
G01X5749252Y-3055193D01*
G01X5751966Y-3068466D01*
G01X5757922Y-3080635D01*
G01X5766739Y-3090922D01*
G01X5777854Y-3098669D01*
G01X5790556Y-3103381D01*
G01X5804034Y-3104757D01*
G01X5817427Y-3102710D01*
G01X5829878Y-3097369D01*
G01X5840592Y-3089077D01*
G01X5848885Y-3078363D01*
G01X5854225Y-3065911D01*
G01X5856273Y-3052519D01*
G01X5854897Y-3039041D01*
G01X5850185Y-3026338D01*
G01X5842438Y-3015223D01*
G01X5832151Y-3006406D01*
G01X5819982Y-3000450D01*
G01X5806708Y-2997737D01*
G01X5802623Y-2997274D01*
G01X5799801Y-2996608D01*
G01X5798030Y-2995865D01*
G01X5779298Y-2977134D01*
G01X5822085Y-2977134D01*
G01X6358602Y-3513650D01*
G01X6362976Y-3521497D01*
G01X6365674Y-3530065D01*
G01X6366586Y-3539002D01*
G01X6366586Y-3626748D01*
G01X6364908Y-3642832D01*
G01X6359945Y-3658223D01*
G01X6351913Y-3672259D01*
G01X6241799Y-3782372D01*
G01X5709545Y-3782372D01*
G01X5697587Y-3775281D01*
G01X5684208Y-3771505D01*
G01X5670308Y-3771296D01*
G01X5656822Y-3774670D01*
G01X5644657Y-3781398D01*
G01X5634633Y-3791029D01*
G01X5627422Y-3802915D01*
G01X5623511Y-3816255D01*
G01X5158994Y-3351738D01*
G01X5158994Y-3025473D01*
G01X5170623Y-3029338D01*
G01X5182827Y-3030460D01*
G01X5194966Y-3028781D01*
G01X5206406Y-3024388D01*
G01X5216550Y-3017511D01*
G37*
G54D10*
G01X457200Y-35814D02*
G01X1469768Y-35814D01*
G03X1536700Y-240114I66932J-91186D01*
G03X1603632Y-35814I0J113114D01*
G01X1723768Y-35814D01*
G03X1683430Y-162886I66932J-91186D01*
G03X1792112Y-240105I107270J35886D01*
G01X1793789Y-240072D01*
G03X1800139Y-239719I-3089J113072D01*
G01X1800592Y-239694D01*
G01X1802247Y-239543D01*
G01X1803171Y-239424D01*
G03X1806953Y-238940I-12471J112424D01*
G01X1808528Y-238738D01*
G01X1809921Y-238517D01*
G01X1815730Y-237410D01*
G01X1817046Y-237119D01*
G01X1836046Y-232334D01*
G01X1838555Y-231896D01*
G01X1840342Y-231758D01*
G01X1841469Y-231815D01*
G01X1842371Y-232000D01*
G01X1843583Y-232456D01*
G01X1845512Y-233532D01*
G01X1848330Y-235618D01*
G01X1852375Y-239323D01*
G01X1890946Y-277895D01*
G01X1890946Y-328603D01*
G03X1677586Y-381161I-100246J-52397D01*
G03X1891095Y-433112I113114J161D01*
G03X1901436Y-455177I35665J3260D01*
G01X2096245Y-649986D01*
G01X2057400Y-649986D01*
G03X2032076Y-660476I0J-35814D01*
G01X1833467Y-859085D01*
G01X1831694Y-859828D01*
G01X1828872Y-860494D01*
G01X1824787Y-860956D01*
G03X1790903Y-952297I4013J-53444D01*
G03X1882244Y-918413I37897J37897D01*
G01X1882706Y-914328D01*
G01X1883372Y-911506D01*
G01X1884115Y-909734D01*
G01X1953114Y-840735D01*
G03X2014199Y-874866I50345J18375D01*
G03X2056976Y-819491I-10740J52507D01*
G01X2119293Y-757174D01*
G01X2250107Y-757174D01*
G03X2245106Y-779780I48593J-22606D01*
G03X2250107Y-802386I53594J0D01*
G01X2145788Y-802386D01*
G03X2120464Y-812876I0J-35814D01*
G01X2096843Y-836497D01*
G03X2041467Y-879274I-2868J-53517D01*
G03X2075598Y-940359I52507J-10740D01*
G01X1941476Y-1074482D01*
G01X1841184Y-1074482D01*
G03X1815860Y-1084972I0J-35814D01*
G01X1775047Y-1125785D01*
G01X1773274Y-1126528D01*
G01X1770452Y-1127194D01*
G01X1766367Y-1127656D01*
G03X1732483Y-1218997I4013J-53444D01*
G03X1823824Y-1185113I37897J37897D01*
G01X1824286Y-1181028D01*
G01X1824952Y-1178206D01*
G01X1825695Y-1176434D01*
G01X1856019Y-1146110D01*
G01X1899587Y-1146110D01*
G03X1938009Y-1221336I48593J-22606D01*
G03X2001697Y-1165847I10171J52620D01*
G01X2023122Y-1144423D01*
G03X2084207Y-1178554I50345J18375D01*
G03X2126984Y-1123179I-10740J52507D01*
G01X2269469Y-980694D01*
G01X3038245Y-980694D01*
G01X3247636Y-1190084D01*
G03X3272960Y-1200574I25324J25324D01*
G01X3311827Y-1200574D01*
G03X3330886Y-1267902I48593J-22606D01*
G03X3400291Y-1258994I29534J44722D01*
G01X3951543Y-1258994D01*
G01X3979412Y-1286869D01*
G01X3980184Y-1288672D01*
G01X3980901Y-1291568D01*
G01X3981463Y-1295786D01*
G03X4017595Y-1341227I53329J5320D01*
G03X4073906Y-1327106I17197J50760D01*
G01X4073906Y-1465430D01*
G03X4084396Y-1490755I35814J0D01*
G01X4236466Y-1642825D01*
G01X4236466Y-1897380D01*
G03X4246956Y-1922704I35814J0D01*
G01X4402385Y-2078133D01*
G01X4403128Y-2079906D01*
G01X4403794Y-2082728D01*
G01X4404256Y-2086813D01*
G03X4495597Y-2120697I53444J4013D01*
G03X4461713Y-2029356I-37897J37897D01*
G01X4457628Y-2028894D01*
G01X4454806Y-2028228D01*
G01X4453034Y-2027485D01*
G01X4423871Y-1998322D01*
G03X4459461Y-1980724I-4271J53424D01*
G01X4526026Y-2047289D01*
G01X4526026Y-2329219D01*
G03X4487841Y-2308816I-42198J-33041D01*
G01X4483756Y-2308353D01*
G01X4480934Y-2307687D01*
G01X4479162Y-2306944D01*
G01X4457710Y-2285492D01*
G01X4457039Y-2283798D01*
G01X4456524Y-2281261D01*
G01X4456348Y-2277754D01*
G03X4368183Y-2236356I-53592J446D01*
G03X4394207Y-2330216I34573J-40952D01*
G01X4398687Y-2331043D01*
G01X4401746Y-2331907D01*
G01X4403669Y-2332780D01*
G01X4403904Y-2332984D01*
G01X4428513Y-2357592D01*
G01X4429256Y-2359365D01*
G01X4429922Y-2362187D01*
G01X4430385Y-2366272D01*
G03X4442881Y-2396837I53444J4013D01*
G01X4399949Y-2396837D01*
G03X4374625Y-2407326I0J-35814D01*
G01X4300296Y-2481656D01*
G03X4289806Y-2506980I25324J-25324D01*
G01X4289806Y-2562757D01*
G01X4223764Y-2496715D01*
G03X4198439Y-2486225I-25324J-25324D01*
G01X3382514Y-2486226D01*
G01X3380735Y-2485498D01*
G01X3378269Y-2483973D01*
G01X3375050Y-2481409D01*
G03X3286506Y-2522039I-34950J-40631D01*
G03X3375050Y-2562670I53594J0D01*
G01X3378269Y-2560106D01*
G01X3380735Y-2558581D01*
G01X3382513Y-2557853D01*
G01X4183605Y-2557853D01*
G01X4254246Y-2628495D01*
G01X4254246Y-4314388D01*
G03X4264736Y-4339712I35814J0D01*
G01X4395348Y-4470324D01*
G03X4420672Y-4480814I25324J25324D01*
G01X5087959Y-4480814D01*
G03X5113283Y-4470324I0J35814D01*
G01X5128193Y-4455414D01*
G01X5293765Y-4455414D01*
G01X5302616Y-4464264D01*
G01X5302616Y-4497185D01*
G01X5301888Y-4498964D01*
G01X5300363Y-4501431D01*
G01X5297799Y-4504650D01*
G03X5309142Y-4584483I40631J-34949D01*
G03X5265810Y-4649531I17547J-58645D01*
G03X5321726Y-4704141I60878J6402D01*
G01X5323008Y-4704337D01*
G01X5326403Y-4705877D01*
G01X5329780Y-4708098D01*
G01X5333227Y-4711092D01*
G01X5341366Y-4719231D01*
G01X5341366Y-5189009D01*
G01X5222287Y-5308088D01*
G03X5209565Y-5338801I30712J-30712D01*
G01X5209565Y-5356766D01*
G01X5209421Y-5360142D01*
G01X5209119Y-5362340D01*
G01X5208716Y-5363978D01*
G01X5208246Y-5365261D01*
G01X5207676Y-5366410D01*
G01X5207148Y-5367244D01*
G01X5204224Y-5370765D01*
G01X5199946Y-5374868D01*
G01X5194090Y-5380030D01*
G01X5193777Y-5380311D01*
G01X5187123Y-5386394D01*
G01X5186057Y-5387434D01*
G01X5184051Y-5389520D01*
G03X5252999Y-5560314I68949J-71480D01*
G03X5321948Y-5389520I0J99314D01*
G01X5319942Y-5387434D01*
G01X5318876Y-5386394D01*
G01X5312222Y-5380311D01*
G01X5311909Y-5380030D01*
G01X5306052Y-5374868D01*
G01X5301774Y-5370765D01*
G01X5298851Y-5367244D01*
G01X5298323Y-5366410D01*
G01X5297752Y-5365261D01*
G01X5297283Y-5363978D01*
G01X5296880Y-5362340D01*
G01X5296577Y-5360142D01*
G01X5296433Y-5356792D01*
G01X5415512Y-5237712D01*
G03X5428234Y-5207000I-30712J30712D01*
G01X5428234Y-4701241D01*
G03X5415513Y-4670528I-43434J0D01*
G01X5394653Y-4649668D01*
G01X5391657Y-4646221D01*
G01X5389437Y-4642843D01*
G01X5387850Y-4639282D01*
G01X5387711Y-4638295D01*
G03X5356922Y-4589902I-61023J-4833D01*
G03X5379060Y-4504650I-18493J50302D01*
G01X5376496Y-4501431D01*
G01X5374971Y-4498964D01*
G01X5374244Y-4497186D01*
G01X5374244Y-4449430D01*
G03X5363754Y-4424105I-35814J0D01*
G01X5333924Y-4394276D01*
G03X5308600Y-4383786I-25324J-25324D01*
G01X5113359Y-4383786D01*
G03X5088035Y-4394276I0J-35814D01*
G01X5073124Y-4409186D01*
G01X4487459Y-4409186D01*
G03X4438044Y-4329104I-46547J26564D01*
G01X4361434Y-4252495D01*
G01X4361434Y-3591843D01*
G01X4434586Y-3664995D01*
G01X4434586Y-3792989D01*
G03X4416806Y-3832860I35814J-39871D01*
G03X4434586Y-3872731I53594J0D01*
G01X4434586Y-4116768D01*
G03X4433746Y-4185033I40894J-34641D01*
G03X4500626Y-4198738I41734J33624D01*
G01X4500626Y-4223739D01*
G01X4496314Y-4228050D01*
G01X4494542Y-4228793D01*
G01X4491720Y-4229459D01*
G01X4487635Y-4229922D01*
G03X4440430Y-4299149I4013J-53444D01*
G03X4518414Y-4329797I51217J15784D01*
G03X4573371Y-4384276I53586J-903D01*
G01X4575324Y-4384301D01*
G03X4597400Y-4391914I22076J28201D01*
G01X4635500Y-4391914D01*
G03X4660824Y-4381424I0J35814D01*
G01X4745133Y-4297115D01*
G01X4746906Y-4296372D01*
G01X4749728Y-4295706D01*
G01X4753813Y-4295244D01*
G03X4787697Y-4203903I-4013J53444D01*
G03X4696356Y-4237787I-37897J-37897D01*
G01X4695894Y-4241872D01*
G01X4695228Y-4244694D01*
G01X4694485Y-4246466D01*
G01X4623842Y-4317109D01*
G03X4545458Y-4284140I-51842J-13591D01*
G01X4545554Y-4283293D01*
G01X4546220Y-4280471D01*
G01X4546962Y-4278699D01*
G01X4561764Y-4263897D01*
G03X4572254Y-4238573I-25324J25324D01*
G01X4572254Y-4152109D01*
G03X4569714Y-4138862I-35814J0D01*
G01X4569714Y-3827522D01*
G03X4582169Y-3855110I53086J7362D01*
G01X4584734Y-3858329D01*
G01X4586258Y-3860795D01*
G01X4586986Y-3862573D01*
G01X4586986Y-4013180D01*
G03X4597476Y-4038504I35814J0D01*
G01X4605605Y-4046633D01*
G01X4606348Y-4048406D01*
G01X4607014Y-4051228D01*
G01X4607477Y-4055313D01*
G03X4624500Y-4090618I53444J4013D01*
G03X4594228Y-4157812I20345J-49582D01*
G03X4659672Y-4191702I50618J17612D01*
G01X4668742Y-4189470D01*
G01X4672254Y-4188929D01*
G01X4675703Y-4188714D01*
G01X4699000Y-4188714D01*
G03X4724324Y-4178224I0J35814D01*
G01X4749724Y-4152824D01*
G03X4760214Y-4127500I-25324J25324D01*
G01X4760214Y-3803582D01*
G03X4749724Y-3778257I-35814J0D01*
G01X4683745Y-3712278D01*
G03X4788051Y-3503324I17251J121899D01*
G03X4579097Y-3607630I-87055J-87055D01*
G01X4468114Y-3496647D01*
G01X4468114Y-2935835D01*
G01X4763966Y-2639983D01*
G01X4777836Y-2639983D01*
G01X4779616Y-2640711D01*
G01X4782082Y-2642236D01*
G01X4785301Y-2644800D01*
G03X4859507Y-2640655I34949J40631D01*
G03X4858220Y-2566345I-39257J36486D01*
G03X4881777Y-2544826I-22729J48536D01*
G01X4952109Y-2615158D01*
G03X4912256Y-2662987I13591J-51842D01*
G01X4911794Y-2667072D01*
G01X4911128Y-2669894D01*
G01X4910385Y-2671666D01*
G01X4675672Y-2906379D01*
G03X4665182Y-2931704I25324J-25324D01*
G01X4665182Y-3198279D01*
G02X4660068Y-3213265I-24511J0D01*
G01X4600997Y-3213265D01*
G03X4577883Y-3236379I0J-23114D01*
G01X4577883Y-3436379D01*
G03X4600997Y-3459493I23114J0D01*
G01X4800996Y-3459493D01*
G03X4824110Y-3436379I0J23114D01*
G01X4824110Y-3236379D01*
G03X4800996Y-3213265I-23114J0D01*
G01X4741925Y-3213265D01*
G02X4736810Y-3198279I19396J14986D01*
G01X4736810Y-2946538D01*
G01X4961033Y-2722315D01*
G01X4962806Y-2721572D01*
G01X4965628Y-2720906D01*
G01X4969713Y-2720444D01*
G03X5017542Y-2680591I-4013J53444D01*
G01X5087366Y-2750415D01*
G01X5087366Y-3366573D01*
G03X5097856Y-3391897I35814J0D01*
G01X6009386Y-4303428D01*
G01X6009386Y-4359275D01*
G03X6019876Y-4384599I35814J0D01*
G01X6078802Y-4443525D01*
G02X6086786Y-4468877I-36253J-25351D01*
G01X6086786Y-4573975D01*
G03X6109900Y-4597089I23114J0D01*
G01X6259900Y-4597089D01*
G03X6283014Y-4573975I0J23114D01*
G01X6283014Y-4423975D01*
G03X6259900Y-4400861I-23114J0D01*
G01X6154802Y-4400861D01*
G02X6129450Y-4392877I0J44238D01*
G01X6081014Y-4344440D01*
G01X6081014Y-4288593D01*
G03X6070524Y-4263269I-35814J0D01*
G01X5684742Y-3877486D01*
G03X5709545Y-3866700I-8281J52950D01*
G01X6259264Y-3866700D01*
G03X6289079Y-3854350I0J42164D01*
G01X6411541Y-3731887D01*
G02X6457052Y-3717214I45511J-63240D01*
G01X6589700Y-3717214D01*
G03X6612814Y-3694100I0J23114D01*
G01X6612814Y-3539002D01*
G02X6620798Y-3513650I44238J0D01*
G01X6775374Y-3359074D01*
G03X6785864Y-3333750I-25324J25324D01*
G01X6785864Y-1915269D01*
G03X6775374Y-1889945I-35814J0D01*
G01X6335014Y-1449585D01*
G01X6335014Y-1414014D01*
G01X6335742Y-1412235D01*
G01X6337266Y-1409769D01*
G01X6339831Y-1406550D01*
G03X6299200Y-1318006I-40631J34950D01*
G03X6258569Y-1406550I0J-53594D01*
G01X6261134Y-1409769D01*
G01X6262658Y-1412235D01*
G01X6263386Y-1414013D01*
G01X6263386Y-1464419D01*
G03X6273876Y-1489744I35814J0D01*
G01X6714236Y-1930104D01*
G01X6714236Y-3318915D01*
G01X6570150Y-3463002D01*
G02X6544798Y-3470986I-25351J36253D01*
G01X6434602Y-3470986D01*
G02X6409250Y-3463002I0J44238D01*
G01X5862244Y-2915996D01*
G03X5836920Y-2905506I-25324J-25324D01*
G01X5458054Y-2905506D01*
G01X5452815Y-2900267D01*
G01X5452072Y-2898494D01*
G01X5451406Y-2895672D01*
G01X5450944Y-2891587D01*
G03X5369766Y-2849740I-53444J-4013D01*
G03X5369125Y-2941066I27734J-45860D01*
G01X5224014Y-2941066D01*
G01X5222235Y-2940338D01*
G01X5219769Y-2938814D01*
G01X5216550Y-2936249D01*
G03X5158994Y-2928287I-34950J-40631D01*
G01X5158994Y-2735580D01*
G03X5148504Y-2710256I-35814J0D01*
G01X4929657Y-2491408D01*
G03X4919235Y-2468286I-35746J-2202D01*
G01X4876766Y-2425769D01*
G01X4879331Y-2422550D01*
G03X4842713Y-2334156I-40631J34950D01*
G01X4838628Y-2333694D01*
G01X4835806Y-2333028D01*
G01X4834034Y-2332285D01*
G01X4804997Y-2303248D01*
G03X4888520Y-2281333I33703J41670D01*
G03X4842713Y-2208134I-49820J19755D01*
G01X4838628Y-2207672D01*
G01X4835806Y-2207006D01*
G01X4834034Y-2206263D01*
G01X4772914Y-2145143D01*
G01X4772914Y-2119440D01*
G01X4783385Y-2129911D01*
G01X4784128Y-2131683D01*
G01X4784794Y-2134506D01*
G01X4785256Y-2138591D01*
G03X4876597Y-2172475I53444J4013D01*
G03X4842713Y-2081134I-37897J37897D01*
G01X4838628Y-2080672D01*
G01X4835806Y-2080006D01*
G01X4834034Y-2079263D01*
G01X4816094Y-2061323D01*
G01X4816094Y-2056171D01*
G03X4891320Y-2017749I22606J48593D01*
G03X4835831Y-1954061I-52620J10171D01*
G01X4727194Y-1845423D01*
G01X4727194Y-1819720D01*
G01X4783385Y-1875911D01*
G01X4784128Y-1877683D01*
G01X4784794Y-1880506D01*
G01X4785256Y-1884591D01*
G03X4876597Y-1918475I53444J4013D01*
G03X4842713Y-1827134I-37897J37897D01*
G01X4838628Y-1826672D01*
G01X4835806Y-1826006D01*
G01X4834034Y-1825263D01*
G01X4762754Y-1753983D01*
G01X4762754Y-1728280D01*
G01X4783385Y-1748911D01*
G01X4784128Y-1750683D01*
G01X4784794Y-1753506D01*
G01X4785256Y-1757591D01*
G03X4872220Y-1795396I53444J4013D01*
G03X4854249Y-1702289I-33520J41818D01*
G03X4873650Y-1691631I-15549J51289D01*
G01X4876869Y-1689066D01*
G01X4879335Y-1687542D01*
G01X4881113Y-1686814D01*
G01X5175206Y-1686814D01*
G03X5200530Y-1676324I0J35814D01*
G01X5215033Y-1661821D01*
G01X5216806Y-1661078D01*
G01X5219628Y-1660412D01*
G01X5223713Y-1659949D01*
G03X5273159Y-1602708I-4013J53444D01*
G01X5392027Y-1721576D01*
G03X5353816Y-1760873I13915J-51756D01*
G03X5370128Y-1813202I52126J-12458D01*
G01X5370128Y-2123024D01*
G01X5084667Y-2408485D01*
G01X5082894Y-2409228D01*
G01X5080072Y-2409894D01*
G01X5075987Y-2410356D01*
G03X5042103Y-2501697I4013J-53444D01*
G03X5133444Y-2467813I37897J37897D01*
G01X5133906Y-2463728D01*
G01X5134572Y-2460906D01*
G01X5135315Y-2459134D01*
G01X5431266Y-2163183D01*
G03X5434737Y-2159153I-25324J25324D01*
G03X5439037Y-2164351I29624J20126D01*
G01X5535741Y-2261055D01*
G03X5500587Y-2314036I18376J-50345D01*
G03X5540777Y-2363307I53529J2636D01*
G03X5539486Y-2372835I34523J-9527D01*
G01X5539486Y-2656580D01*
G03X5511835Y-2749162I8406J-52931D01*
G03X5601381Y-2712865I36057J39651D01*
G01X5601692Y-2708149D01*
G01X5601999Y-2705974D01*
G03X5608215Y-2696219I-26699J23871D01*
G03X5687164Y-2653096I25505J47136D01*
G01X5687626Y-2649011D01*
G01X5688292Y-2646189D01*
G01X5689035Y-2644417D01*
G01X5702224Y-2631228D01*
G03X5712714Y-2605903I-25324J25324D01*
G01X5712714Y-2301276D01*
G03X5702224Y-2275951I-35814J0D01*
G01X5535736Y-2109463D01*
G01X5535736Y-1728532D01*
G03X5535588Y-1725285I-35814J0D01*
G03X5571195Y-1742636I39619J36092D01*
G01X5575280Y-1743099D01*
G01X5578102Y-1743765D01*
G01X5579874Y-1744508D01*
G01X5658353Y-1822987D01*
G03X5683677Y-1833476I25324J25324D01*
G01X5736605Y-1833476D01*
G03X5779491Y-1920485I41895J-33424D01*
G03X5819131Y-1831950I-991J53585D01*
G01X5816566Y-1828731D01*
G01X5815042Y-1826265D01*
G01X5814314Y-1824487D01*
G01X5814314Y-1816100D01*
G03X5803824Y-1790776I-35814J0D01*
G01X5785387Y-1772338D01*
G03X5777932Y-1766625I-25324J-25324D01*
G03X5785305Y-1743255I-46071J27382D01*
G01X5785767Y-1739170D01*
G01X5786433Y-1736348D01*
G01X5787176Y-1734576D01*
G01X5892724Y-1629028D01*
G03X5903214Y-1603703I-25324J25324D01*
G01X5903214Y-1574527D01*
G01X5903942Y-1572748D01*
G01X5905466Y-1570282D01*
G01X5908031Y-1567062D01*
G03X5867400Y-1478519I-40631J34949D01*
G03X5826769Y-1567062I0J-53594D01*
G01X5829334Y-1570282D01*
G01X5830858Y-1572748D01*
G01X5831586Y-1574526D01*
G01X5831586Y-1588869D01*
G01X5736528Y-1683927D01*
G01X5734755Y-1684670D01*
G01X5731933Y-1685336D01*
G01X5727848Y-1685799D01*
G03X5678322Y-1741658I4013J-53444D01*
G01X5630523Y-1693860D01*
G01X5629779Y-1692087D01*
G01X5629114Y-1689265D01*
G01X5628651Y-1685180D01*
G03X5615838Y-1654243I-53444J-4013D01*
G01X5613274Y-1651024D01*
G01X5611749Y-1648558D01*
G01X5611021Y-1646779D01*
G01X5611021Y-1551627D01*
G01X5729986Y-1432663D01*
G01X5729986Y-1559965D01*
G01X5712865Y-1577086D01*
G01X5708916Y-1577086D01*
G01X5707138Y-1576358D01*
G01X5704672Y-1574834D01*
G01X5701452Y-1572269D01*
G03X5612909Y-1612900I-34950J-40631D01*
G03X5701452Y-1653531I53594J0D01*
G01X5704672Y-1650966D01*
G01X5707138Y-1649442D01*
G01X5708915Y-1648714D01*
G01X5727700Y-1648714D01*
G03X5753024Y-1638224I0J35814D01*
G01X5791124Y-1600124D01*
G03X5801614Y-1574800I-25324J25324D01*
G01X5801614Y-1411324D01*
G01X5907124Y-1305814D01*
G01X6383786Y-1305814D01*
G01X6385565Y-1306542D01*
G01X6388031Y-1308066D01*
G01X6391250Y-1310631D01*
G03X6479794Y-1270000I34950J40631D01*
G03X6391250Y-1229369I-53594J0D01*
G01X6388031Y-1231934D01*
G01X6385565Y-1233458D01*
G01X6383787Y-1234186D01*
G01X5892289Y-1234186D01*
G03X5866965Y-1244676I0J-35814D01*
G01X5814314Y-1297327D01*
G01X5814314Y-753614D01*
G01X5815042Y-751835D01*
G01X5816566Y-749369D01*
G01X5819131Y-746150D01*
G03X5778500Y-657606I-40631J34950D01*
G03X5737869Y-746150I0J-53594D01*
G01X5740434Y-749369D01*
G01X5741958Y-751835D01*
G01X5742686Y-753613D01*
G01X5742686Y-1318665D01*
G01X5549883Y-1511468D01*
G03X5539393Y-1536793I25324J-25324D01*
G01X5539394Y-1646779D01*
G01X5538666Y-1648558D01*
G01X5537141Y-1651024D01*
G01X5534577Y-1654243D01*
G03X5522899Y-1700861I40631J-34950D01*
G01X5221791Y-1399753D01*
G03X5269748Y-1365372I-2091J53553D01*
G03X5257035Y-1307750I-50048J19172D01*
G01X5254704Y-1305196D01*
G01X5253284Y-1303061D01*
G01X5252560Y-1301393D01*
G01X5252560Y-1169760D01*
G01X5253288Y-1167981D01*
G01X5254812Y-1165515D01*
G01X5257377Y-1162295D01*
G03X5216746Y-1073752I-40631J34949D01*
G03X5176115Y-1162295I0J-53594D01*
G01X5178680Y-1165515D01*
G01X5180204Y-1167981D01*
G01X5180932Y-1169759D01*
G01X5180932Y-1306199D01*
G01X5180908Y-1306537D01*
G01X5180163Y-1308537D01*
G01X5179314Y-1310068D01*
G01X5179314Y-1308611D01*
G03X5168824Y-1283286I-35814J0D01*
G01X5104814Y-1219276D01*
G03X5079489Y-1208786I-25324J-25324D01*
G01X4881114Y-1208786D01*
G01X4879335Y-1208058D01*
G01X4876869Y-1206534D01*
G01X4873650Y-1203969D01*
G03X4842713Y-1191156I-34950J-40631D01*
G01X4838628Y-1190694D01*
G01X4835806Y-1190028D01*
G01X4834034Y-1189285D01*
G01X4804997Y-1160248D01*
G03X4877166Y-1155896I33703J41670D01*
G03X4879331Y-1083629I-38466J37319D01*
G01X4876766Y-1080409D01*
G01X4875242Y-1077943D01*
G01X4874514Y-1076165D01*
G01X4874514Y-1074196D01*
G03X4864024Y-1048872I-35814J0D01*
G01X4857076Y-1041923D01*
G03X4891207Y-980838I-18376J50345D01*
G03X4835831Y-938061I-52507J-10740D01*
G01X4811014Y-913243D01*
G01X4811014Y-624435D01*
G01X4865135Y-570314D01*
G01X5105992Y-570314D01*
G03X5131317Y-559824I0J35814D01*
G01X5235964Y-455177D01*
G03X5246454Y-429852I-25324J25324D01*
G01X5246454Y-244940D01*
G03X5235964Y-219615I-35814J0D01*
G01X5205022Y-188673D01*
G01X5201318Y-184630D01*
G01X5199232Y-181811D01*
G01X5198156Y-179883D01*
G01X5197700Y-178672D01*
G01X5197515Y-177770D01*
G01X5197458Y-176642D01*
G01X5197597Y-174855D01*
G01X5198034Y-172346D01*
G01X5202819Y-153346D01*
G01X5203110Y-152030D01*
G01X5204217Y-146221D01*
G01X5204439Y-144828D01*
G01X5204640Y-143254D01*
G03X5205125Y-139469I-111940J16254D01*
G01X5205243Y-138547D01*
G01X5205394Y-136892D01*
G01X5205419Y-136440D01*
G03X5205772Y-130089I-112719J9440D01*
G01X5205805Y-128412D01*
G03X5205778Y-124168I-113105J1412D01*
G03X5205593Y-119927I-113078J-2832D01*
G03X5159620Y-35814I-112897J-7084D01*
G01X6400800Y-35814D01*
G02X6822186Y-457200I0J-421386D01*
G01X6822186Y-5638800D01*
G02X6400800Y-6060186I-421386J0D01*
G01X457200Y-6060186D01*
G02X35814Y-5638800I0J421386D01*
G01X35814Y-457200D01*
G02X457200Y-35814I421386J0D01*
G01X322778Y-1994103D02*
G03X494406Y-1994103I85814J0D01*
G03X322778Y-1994103I-85814J0D01*
G01X322778Y-1194105D02*
G03X494406Y-1194105I85814J0D01*
G03X322778Y-1194105I-85814J0D01*
G01X1252974Y-5138552D02*
G01X1032975Y-5138552D01*
G03X1032975Y-5364780I0J-113114D01*
G01X1252974Y-5364780D01*
G03X1252974Y-5138552I0J113114D01*
G01X1587576Y-3835476D02*
G03X1577086Y-3860800I25324J-25324D01*
G01X1577086Y-4075076D01*
G01X1503756Y-4148406D01*
G03X1493266Y-4173731I25324J-25324D01*
G01X1493266Y-4421742D01*
G01X1255014Y-4183490D01*
G01X1255014Y-3823454D01*
G03X1178000Y-3615788I-77014J89553D01*
G01X1108000Y-3615788D01*
G03X1030986Y-3823454I0J-118114D01*
G01X1030986Y-4229888D01*
G03X1063794Y-4309094I112014J0D01*
G01X1330701Y-4576001D01*
G01X1330436Y-4619082D01*
G01X1329888Y-4661032D01*
G01X1329886Y-4661334D01*
G01X1329886Y-4901334D01*
G03X1556113Y-4901334I113114J0D01*
G01X1556113Y-4661334D01*
G01X1556111Y-4661032D01*
G01X1555562Y-4619082D01*
G01X1555087Y-4541729D01*
G03X1637179Y-4512301I30531J44047D01*
G03X1582749Y-4444165I-51562J14619D01*
G01X1564894Y-4426310D01*
G01X1564894Y-4353893D01*
G03X1632222Y-4334834I22606J48593D01*
G03X1623314Y-4265429I-44722J29534D01*
G01X1623314Y-4213946D01*
G03X1714440Y-4221340I47825J24188D01*
G03X1786076Y-4273035I53580J-1234D01*
G03X1808652Y-4187628I-18057J50461D01*
G01X1807752Y-4186497D01*
G01X2125575Y-3868674D01*
G01X2610103Y-3868674D01*
G01X2611882Y-3869402D01*
G01X2614348Y-3870926D01*
G01X2617568Y-3873491D01*
G03X2694686Y-3865937I34949J40631D01*
G01X2694686Y-4143159D01*
G01X2347114Y-4490731D01*
G01X2345341Y-4491474D01*
G01X2342519Y-4492140D01*
G01X2338434Y-4492603D01*
G03X2290554Y-4532650I4013J-53444D01*
G03X2313066Y-4590869I51893J-13396D01*
G03X2285024Y-4657291I31556J-52453D01*
G03X2339660Y-4704335I59599J13969D01*
G01X2340943Y-4704531D01*
G01X2344337Y-4706071D01*
G01X2347715Y-4708292D01*
G01X2351161Y-4711286D01*
G01X2356866Y-4716991D01*
G01X2356866Y-5189009D01*
G01X2263187Y-5282688D01*
G03X2250465Y-5313401I30712J-30712D01*
G01X2250465Y-5356766D01*
G01X2250321Y-5360142D01*
G01X2250019Y-5362340D01*
G01X2249616Y-5363978D01*
G01X2249146Y-5365261D01*
G01X2248576Y-5366410D01*
G01X2248048Y-5367244D01*
G01X2245124Y-5370765D01*
G01X2240846Y-5374868D01*
G01X2234990Y-5380030D01*
G01X2234677Y-5380311D01*
G01X2228023Y-5386394D01*
G01X2226957Y-5387434D01*
G01X2224951Y-5389520D01*
G03X2293899Y-5560314I68949J-71480D01*
G03X2362848Y-5389520I0J99314D01*
G01X2360842Y-5387434D01*
G01X2359776Y-5386394D01*
G01X2353122Y-5380311D01*
G01X2352809Y-5380030D01*
G01X2346952Y-5374868D01*
G01X2342674Y-5370765D01*
G01X2339751Y-5367244D01*
G01X2339223Y-5366410D01*
G01X2338652Y-5365261D01*
G01X2338183Y-5363978D01*
G01X2337780Y-5362340D01*
G01X2337477Y-5360142D01*
G01X2337333Y-5356766D01*
G01X2337333Y-5331392D01*
G01X2431012Y-5237712D01*
G03X2443734Y-5207000I-30712J30712D01*
G01X2443734Y-4699000D01*
G03X2431012Y-4668288I-43434J0D01*
G01X2412586Y-4649861D01*
G01X2409592Y-4646415D01*
G01X2407371Y-4643037D01*
G01X2405784Y-4639476D01*
G01X2405645Y-4638489D01*
G03X2373802Y-4589511I-61023J-4833D01*
G03X2395891Y-4550059I-31355J43465D01*
G01X2396353Y-4545974D01*
G01X2397019Y-4543152D01*
G01X2397762Y-4541380D01*
G01X2552843Y-4386299D01*
G03X2638450Y-4409431I50657J17499D01*
G01X2641669Y-4406866D01*
G01X2644135Y-4405342D01*
G01X2645913Y-4404614D01*
G01X2939438Y-4404614D01*
G03X2964762Y-4394124I0J35814D01*
G01X3127580Y-4231306D01*
G03X3138070Y-4205982I-25324J25324D01*
G01X3138070Y-4130181D01*
G01X3138963Y-4129412D01*
G01X3182102Y-4172551D01*
G01X3183782Y-4174584D01*
G01X3185089Y-4176791D01*
G01X3186664Y-4180221D01*
G01X3188431Y-4184716D01*
G03X3275029Y-4204817I50069J19116D01*
G03X3261117Y-4117012I-36529J39217D01*
G03X3269014Y-4045001I-35317J40312D01*
G03X3197955Y-4030907I-43214J-31699D01*
G01X3197955Y-3872731D01*
G03X3211189Y-3811259I-35814J39871D01*
G01X3216077Y-3811905D01*
G03X3277642Y-3772791I9723J52705D01*
G01X3826238Y-4321387D01*
G01X3826238Y-4503632D01*
G01X3825510Y-4505411D01*
G01X3823986Y-4507877D01*
G01X3821421Y-4511097D01*
G03X3862052Y-4599640I40631J-34950D01*
G03X3902682Y-4511097I0J53594D01*
G01X3900118Y-4507877D01*
G01X3898594Y-4505411D01*
G01X3897866Y-4503633D01*
G01X3897866Y-4306552D01*
G03X3887376Y-4281228I-35814J0D01*
G01X3104134Y-3497985D01*
G01X3104134Y-2529071D01*
G03X3085134Y-2438312I-35814J39871D01*
G03X3103811Y-2347912I-17339J50712D01*
G03X3015643Y-2375250I-36016J-39688D01*
G01X3014477Y-2379879D01*
G01X3013404Y-2383097D01*
G01X3012607Y-2384711D01*
G01X3011429Y-2386222D01*
G01X3010154Y-2387497D01*
G01X3010154Y-2361795D01*
G01X3056033Y-2315915D01*
G01X3057806Y-2315172D01*
G01X3060628Y-2314506D01*
G01X3064713Y-2314044D01*
G03X3098597Y-2222703I-4013J53444D01*
G03X3007256Y-2256587I-37897J-37897D01*
G01X3006794Y-2260672D01*
G01X3006128Y-2263494D01*
G01X3005385Y-2265266D01*
G01X2949016Y-2321636D01*
G03X2938526Y-2346960I25324J-25324D01*
G01X2938526Y-4175414D01*
G03X2949016Y-4200738I35814J0D01*
G01X2956958Y-4208679D01*
G01X2957701Y-4210452D01*
G01X2958366Y-4213274D01*
G01X2958829Y-4217359D01*
G03X2993897Y-4263692I53444J4013D01*
G01X2924603Y-4332986D01*
G01X2645914Y-4332986D01*
G01X2644135Y-4332258D01*
G01X2641669Y-4330734D01*
G01X2638450Y-4328169D01*
G03X2620999Y-4318143I-34950J-40631D01*
G01X2755824Y-4183318D01*
G03X2766314Y-4157993I-25324J25324D01*
G01X2766314Y-3828224D01*
G03X2755824Y-3802900I-35814J0D01*
G01X2538654Y-3585730D01*
G01X2538654Y-2584992D01*
G01X3065704Y-2057941D01*
G03X3076194Y-2032617I-25324J25324D01*
G01X3076194Y-1813154D01*
G01X3081433Y-1807915D01*
G01X3083206Y-1807172D01*
G01X3086028Y-1806506D01*
G01X3090113Y-1806044D01*
G03X3123997Y-1714703I-4013J53444D01*
G03X3032656Y-1748587I-37897J-37897D01*
G01X3032194Y-1752672D01*
G01X3031528Y-1755494D01*
G01X3030785Y-1757266D01*
G01X3015056Y-1772996D01*
G03X3004566Y-1798320I25324J-25324D01*
G01X3004566Y-1826596D01*
G03X2928516Y-1871177I-22606J-48593D01*
G01X2928054Y-1875262D01*
G01X2927388Y-1878084D01*
G01X2926645Y-1879856D01*
G01X2898216Y-1908285D01*
G03X2887726Y-1933609I25324J-25324D01*
G01X2887726Y-1993584D01*
G01X2406395Y-2474914D01*
G03X2395906Y-2500239I25324J-25324D01*
G01X2395906Y-3027146D01*
G01X1587576Y-3835476D01*
G01X1178000Y-2675785D02*
G01X1108000Y-2675785D01*
G03X1108000Y-2912012I0J-118114D01*
G01X1178000Y-2912012D01*
G03X1178000Y-2675785I0J118114D01*
G01X1178000Y-3145786D02*
G01X1108000Y-3145786D01*
G03X1108000Y-3382014I0J-118114D01*
G01X1178000Y-3382014D01*
G03X1178000Y-3145786I0J118114D01*
G01X1656334Y-5023909D02*
G01X1656334Y-4708068D01*
G01X1657161Y-4707241D01*
G01X1660608Y-4704247D01*
G01X1663985Y-4702026D01*
G01X1667547Y-4700439D01*
G01X1668533Y-4700300D01*
G03X1707030Y-4596038I-4833J61023D01*
G03X1602687Y-4634315I-43330J-43239D01*
G01X1602491Y-4635597D01*
G01X1600951Y-4638992D01*
G01X1598731Y-4642370D01*
G01X1595736Y-4645816D01*
G01X1582188Y-4659365D01*
G03X1569466Y-4690077I30712J-30712D01*
G01X1569466Y-5041900D01*
G03X1582188Y-5072612I43434J0D01*
G01X1850466Y-5340891D01*
G01X1850466Y-5356766D01*
G01X1850322Y-5360142D01*
G01X1850020Y-5362340D01*
G01X1849617Y-5363978D01*
G01X1849147Y-5365261D01*
G01X1848577Y-5366410D01*
G01X1848049Y-5367244D01*
G01X1845125Y-5370765D01*
G01X1840847Y-5374868D01*
G01X1834990Y-5380030D01*
G01X1834678Y-5380311D01*
G01X1828024Y-5386394D01*
G01X1826958Y-5387434D01*
G01X1824952Y-5389520D01*
G03X1893900Y-5560314I68949J-71480D01*
G03X1962849Y-5389520I0J99314D01*
G01X1960843Y-5387434D01*
G01X1959777Y-5386394D01*
G01X1953123Y-5380311D01*
G01X1952810Y-5380030D01*
G01X1946953Y-5374868D01*
G01X1942675Y-5370765D01*
G01X1939752Y-5367244D01*
G01X1939223Y-5366410D01*
G01X1938653Y-5365261D01*
G01X1938184Y-5363978D01*
G01X1937781Y-5362340D01*
G01X1937478Y-5360142D01*
G01X1937334Y-5356766D01*
G01X1937334Y-5322900D01*
G03X1924613Y-5292188I-43434J0D01*
G01X1656334Y-5023909D01*
G01X1770101Y-5560314D02*
G03X1793215Y-5537200I0J23114D01*
G01X1793215Y-5384800D01*
G03X1770101Y-5361686I-23114J0D01*
G01X1617701Y-5361686D01*
G03X1594587Y-5384800I0J-23114D01*
G01X1594587Y-5537200D01*
G03X1617701Y-5560314I23114J0D01*
G01X1770101Y-5560314D01*
G01X1955800Y-2229014D02*
G03X1955800Y-2012786I0J108114D01*
G03X1955800Y-2229014I0J-108114D01*
G01X1955800Y-2483014D02*
G03X1955800Y-2266786I0J108114D01*
G03X1955800Y-2483014I0J-108114D01*
G01X1955800Y-2737014D02*
G03X1955800Y-2520786I0J108114D01*
G03X1955800Y-2737014I0J-108114D01*
G01X1994586Y-5461000D02*
G03X2193214Y-5461000I99314J0D01*
G03X1994586Y-5461000I-99314J0D01*
G01X3323666Y-5353591D02*
G01X3323666Y-5356766D01*
G01X3323522Y-5360142D01*
G01X3323220Y-5362340D01*
G01X3322817Y-5363978D01*
G01X3322347Y-5365261D01*
G01X3321777Y-5366410D01*
G01X3321249Y-5367244D01*
G01X3318325Y-5370765D01*
G01X3314047Y-5374868D01*
G01X3308190Y-5380030D01*
G01X3307878Y-5380311D01*
G01X3301224Y-5386394D01*
G01X3300158Y-5387434D01*
G01X3298152Y-5389520D01*
G03X3367100Y-5560314I68949J-71480D01*
G03X3436049Y-5389520I0J99314D01*
G01X3434043Y-5387434D01*
G01X3432977Y-5386394D01*
G01X3426323Y-5380311D01*
G01X3426010Y-5380030D01*
G01X3420153Y-5374868D01*
G01X3415875Y-5370765D01*
G01X3412952Y-5367244D01*
G01X3412423Y-5366410D01*
G01X3411853Y-5365261D01*
G01X3411384Y-5363978D01*
G01X3410981Y-5362340D01*
G01X3410678Y-5360142D01*
G01X3410534Y-5356766D01*
G01X3410534Y-5335600D01*
G03X3397813Y-5304888I-43434J0D01*
G01X3078734Y-4985809D01*
G01X3078734Y-4770031D01*
G01X3158111Y-4690654D01*
G03X3187497Y-4599844I-8511J52914D01*
G03X3096686Y-4629229I-37897J-37897D01*
G01X3004588Y-4721328D01*
G03X2991866Y-4752040I30712J-30712D01*
G01X2991866Y-5003800D01*
G03X3004588Y-5034512I43434J0D01*
G01X3323666Y-5353591D01*
G01X3243301Y-5560314D02*
G03X3266415Y-5537200I0J23114D01*
G01X3266415Y-5384800D01*
G03X3243301Y-5361686I-23114J0D01*
G01X3090901Y-5361686D01*
G03X3067787Y-5384800I0J-23114D01*
G01X3067787Y-5537200D01*
G03X3090901Y-5560314I23114J0D01*
G01X3243301Y-5560314D01*
G01X3467786Y-5461000D02*
G03X3666414Y-5461000I99314J0D01*
G03X3467786Y-5461000I-99314J0D01*
G01X3736387Y-5295388D02*
G03X3723665Y-5326101I30712J-30712D01*
G01X3723665Y-5356766D01*
G01X3723521Y-5360142D01*
G01X3723219Y-5362340D01*
G01X3722816Y-5363978D01*
G01X3722346Y-5365261D01*
G01X3721776Y-5366410D01*
G01X3721248Y-5367244D01*
G01X3718324Y-5370765D01*
G01X3714046Y-5374868D01*
G01X3708190Y-5380030D01*
G01X3707877Y-5380311D01*
G01X3701223Y-5386394D01*
G01X3700157Y-5387434D01*
G01X3698151Y-5389520D01*
G03X3767099Y-5560314I68949J-71480D01*
G03X3836048Y-5389520I0J99314D01*
G01X3834042Y-5387434D01*
G01X3832976Y-5386394D01*
G01X3826322Y-5380311D01*
G01X3826009Y-5380030D01*
G01X3820152Y-5374868D01*
G01X3815874Y-5370765D01*
G01X3812951Y-5367244D01*
G01X3812423Y-5366410D01*
G01X3811852Y-5365261D01*
G01X3811383Y-5363978D01*
G01X3810980Y-5362340D01*
G01X3810677Y-5360142D01*
G01X3810533Y-5356766D01*
G01X3810533Y-5344092D01*
G01X3967712Y-5186912D01*
G03X3980434Y-5156200I-30712J30712D01*
G01X3980434Y-4740604D01*
G03X3967712Y-4709892I-43434J0D01*
G01X3912472Y-4654652D01*
G03X3821662Y-4625266I-52914J-8511D01*
G03X3851047Y-4716077I37897J-37897D01*
G01X3893566Y-4758595D01*
G01X3893566Y-5138209D01*
G01X3736387Y-5295388D01*
G01X4052858Y-4328165D02*
G01X4051334Y-4330631D01*
G01X4048769Y-4333850D01*
G03X4089400Y-4422394I40631J-34950D01*
G03X4130031Y-4333850I0J53594D01*
G01X4127466Y-4330631D01*
G01X4125942Y-4328165D01*
G01X4125214Y-4326387D01*
G01X4125214Y-3801614D01*
G01X4125942Y-3799835D01*
G01X4127466Y-3797369D01*
G01X4130031Y-3794150D01*
G03X4089400Y-3705606I-40631J34950D01*
G03X4048769Y-3794150I0J-53594D01*
G01X4051334Y-3797369D01*
G01X4052858Y-3799835D01*
G01X4053586Y-3801613D01*
G01X4053586Y-4326386D01*
G01X4052858Y-4328165D01*
G01X4809566Y-5353591D02*
G01X4809566Y-5356766D01*
G01X4809422Y-5360142D01*
G01X4809120Y-5362340D01*
G01X4808717Y-5363978D01*
G01X4808247Y-5365261D01*
G01X4807677Y-5366410D01*
G01X4807149Y-5367244D01*
G01X4804225Y-5370765D01*
G01X4799947Y-5374868D01*
G01X4794090Y-5380030D01*
G01X4793778Y-5380311D01*
G01X4787124Y-5386394D01*
G01X4786058Y-5387434D01*
G01X4784052Y-5389520D01*
G03X4853000Y-5560314I68949J-71480D01*
G03X4921949Y-5389520I0J99314D01*
G01X4919943Y-5387434D01*
G01X4918877Y-5386394D01*
G01X4912223Y-5380311D01*
G01X4911910Y-5380030D01*
G01X4906053Y-5374868D01*
G01X4901775Y-5370765D01*
G01X4898852Y-5367244D01*
G01X4898323Y-5366410D01*
G01X4897753Y-5365261D01*
G01X4897284Y-5363978D01*
G01X4896881Y-5362340D01*
G01X4896578Y-5360142D01*
G01X4896434Y-5356766D01*
G01X4896434Y-5335600D01*
G03X4883713Y-5304888I-43434J0D01*
G01X4577334Y-4998509D01*
G01X4577334Y-4729691D01*
G01X4603561Y-4703464D01*
G01X4607008Y-4700469D01*
G01X4610385Y-4698249D01*
G01X4613947Y-4696662D01*
G01X4614933Y-4696523D01*
G03X4653430Y-4592261I-4833J61023D01*
G03X4549087Y-4630538I-43330J-43239D01*
G01X4548891Y-4631820D01*
G01X4547351Y-4635215D01*
G01X4545131Y-4638592D01*
G01X4542136Y-4642039D01*
G01X4503188Y-4680988D01*
G03X4490466Y-4711700I30712J-30712D01*
G01X4490466Y-5016500D01*
G03X4503188Y-5047212I43434J0D01*
G01X4809566Y-5353591D01*
G01X4729201Y-5560314D02*
G03X4752315Y-5537200I0J23114D01*
G01X4752315Y-5384800D01*
G03X4729201Y-5361686I-23114J0D01*
G01X4576801Y-5361686D01*
G03X4553687Y-5384800I0J-23114D01*
G01X4553687Y-5537200D01*
G03X4576801Y-5560314I23114J0D01*
G01X4729201Y-5560314D01*
G01X4953686Y-5461000D02*
G03X5152314Y-5461000I99314J0D01*
G03X4953686Y-5461000I-99314J0D01*
G01X5609976Y-170701D02*
G03X5751606Y-170701I70815J0D01*
G03X5609976Y-170701I-70815J0D01*
G01X5779978Y-170701D02*
G03X5921609Y-170701I70815J0D01*
G03X5779978Y-170701I-70815J0D01*
G01X6184900Y-4600886D02*
G03X6184900Y-4797114I0J-98114D01*
G03X6184900Y-4600886I0J98114D01*
G01X6262445Y-2183206D02*
G01X6256194Y-2183206D01*
G01X6254415Y-2182478D01*
G01X6251949Y-2180954D01*
G01X6248730Y-2178389D01*
G03X6160186Y-2219020I-34950J-40631D01*
G03X6248730Y-2259650I53594J0D01*
G01X6251949Y-2257086D01*
G01X6254415Y-2255562D01*
G01X6256193Y-2254834D01*
G01X6277280Y-2254834D01*
G03X6302604Y-2244344I0J35814D01*
G01X6349924Y-2197024D01*
G03X6360414Y-2171700I-25324J25324D01*
G01X6360414Y-1860063D01*
G01X6360657Y-1857944D01*
G01X6361258Y-1856033D01*
G01X6362727Y-1852838D01*
G01X6365043Y-1848579D01*
G03X6307797Y-1769885I-46793J26129D01*
G03X6285013Y-1864493I10453J-52565D01*
G01X6286799Y-1866201D01*
G01X6288017Y-1867942D01*
G01X6288786Y-1869657D01*
G01X6288786Y-2033262D01*
G03X6143419Y-2046808I-72052J-13547D01*
G03X6288786Y-2060355I73315J0D01*
G01X6288786Y-2156865D01*
G01X6262445Y-2183206D01*
G01X6270819Y-2846804D02*
G01X6269295Y-2849270D01*
G01X6266730Y-2852490D01*
G03X6307361Y-2941033I40631J-34949D01*
G03X6347992Y-2852489I-0J53594D01*
G01X6345427Y-2849270D01*
G01X6343903Y-2846804D01*
G01X6343175Y-2845026D01*
G01X6343175Y-2571554D01*
G03X6332685Y-2546230I-35814J0D01*
G01X6252915Y-2466461D01*
G01X6252172Y-2464688D01*
G01X6251506Y-2461866D01*
G01X6251044Y-2457781D01*
G03X6159703Y-2423897I-53444J-4013D01*
G03X6193587Y-2515237I37897J-37897D01*
G01X6197672Y-2515700D01*
G01X6200494Y-2516366D01*
G01X6202266Y-2517108D01*
G01X6243824Y-2558666D01*
G03X6145401Y-2643721I-27090J-68126D01*
G03X6271547Y-2675480I71333J16929D01*
G01X6271547Y-2845025D01*
G01X6270819Y-2846804D01*
G01X6489700Y-3463214D02*
G03X6489700Y-3216986I0J123114D01*
G03X6489700Y-3463214I0J-123114D01*
G01X6616484Y-1350091D02*
G03X6758115Y-1350091I70815J0D01*
G03X6616484Y-1350091I-70815J0D01*
G01X6616484Y-1520093D02*
G03X6758115Y-1520093I70815J0D01*
G03X6616484Y-1520093I-70815J0D01*
G01X4783385Y-2256911D02*
G01X4784128Y-2258683D01*
G01X4784794Y-2261506D01*
G01X4785256Y-2265591D01*
G03X4797030Y-2295281I53444J4013D01*
G01X4722114Y-2220365D01*
G01X4722114Y-2195640D01*
G01X4783385Y-2256911D01*
G01X4731174Y-1017319D02*
G01X4797800Y-1083944D01*
G03X4797030Y-1152281I40900J-34633D01*
G01X4731174Y-1086425D01*
G01X4731174Y-1017319D01*
G01X5216550Y-3017511D02*
G01X5219769Y-3014946D01*
G01X5222235Y-3013422D01*
G01X5224013Y-3012694D01*
G01X5713561Y-3012694D01*
G01X5747381Y-3046513D01*
G01X5748124Y-3048286D01*
G01X5748789Y-3051108D01*
G01X5749252Y-3055193D01*
G03X5840592Y-3089077I53444J4013D01*
G03X5806708Y-2997737I-37897J37897D01*
G01X5802623Y-2997274D01*
G01X5799801Y-2996608D01*
G01X5798030Y-2995865D01*
G01X5779298Y-2977134D01*
G01X5822085Y-2977134D01*
G01X6358602Y-3513650D01*
G02X6366586Y-3539002I-36253J-25351D01*
G01X6366586Y-3626748D01*
G02X6351913Y-3672259I-77914J0D01*
G01X6241799Y-3782372D01*
G01X5709545Y-3782372D01*
G03X5623511Y-3816255I-33083J-42164D01*
G01X5158994Y-3351738D01*
G01X5158994Y-3025473D01*
G03X5216550Y-3017511I22606J48593D01*
G04 Copper End*

G04 TearDrop Start*
G36*
G01X1354099Y-4529887D02*
G01X1531899Y-4529887D01*
G01X1532449Y-4619304D01*
G01X1532999Y-4661334D01*
G01X1353000Y-4661334D01*
G01X1353549Y-4619304D01*
G01X1354099Y-4529887D01*
G37*
G36*
G01X1886322Y-204661D02*
G01X1868361Y-222622D01*
G01X1863053Y-217758D01*
G01X1858068Y-214069D01*
G01X1853340Y-211432D01*
G01X1848802Y-209723D01*
G01X1844389Y-208819D01*
G01X1840034Y-208599D01*
G01X1835670Y-208937D01*
G01X1831232Y-209711D01*
G01X1811402Y-214704D01*
G01X1805593Y-215812D01*
G01X1799312Y-216616D01*
G01X1792491Y-216994D01*
G01X1785064Y-216823D01*
G01X1880523Y-121364D01*
G01X1880694Y-128791D01*
G01X1880316Y-135612D01*
G01X1879512Y-141893D01*
G01X1878404Y-147702D01*
G01X1873411Y-167532D01*
G01X1872637Y-171970D01*
G01X1872299Y-176334D01*
G01X1872519Y-180689D01*
G01X1873423Y-185102D01*
G01X1875132Y-189640D01*
G01X1877769Y-194368D01*
G01X1881458Y-199353D01*
G01X1886322Y-204661D01*
G37*
G36*
G01X2140322Y-204661D02*
G01X2122361Y-222622D01*
G01X2117053Y-217758D01*
G01X2112068Y-214069D01*
G01X2107340Y-211432D01*
G01X2102802Y-209723D01*
G01X2098389Y-208819D01*
G01X2094034Y-208599D01*
G01X2089670Y-208937D01*
G01X2085232Y-209711D01*
G01X2065402Y-214704D01*
G01X2059593Y-215812D01*
G01X2053312Y-216616D01*
G01X2046491Y-216994D01*
G01X2039064Y-216823D01*
G01X2134523Y-121364D01*
G01X2134694Y-128791D01*
G01X2134316Y-135612D01*
G01X2133512Y-141893D01*
G01X2132404Y-147702D01*
G01X2127411Y-167532D01*
G01X2126637Y-171970D01*
G01X2126299Y-176334D01*
G01X2126519Y-180689D01*
G01X2127423Y-185102D01*
G01X2129132Y-189640D01*
G01X2131769Y-194368D01*
G01X2135458Y-199353D01*
G01X2140322Y-204661D01*
G37*
G36*
G01X2394322Y-204661D02*
G01X2376361Y-222622D01*
G01X2371053Y-217758D01*
G01X2366068Y-214069D01*
G01X2361340Y-211432D01*
G01X2356802Y-209723D01*
G01X2352389Y-208819D01*
G01X2348034Y-208599D01*
G01X2343670Y-208937D01*
G01X2339232Y-209711D01*
G01X2319402Y-214704D01*
G01X2313593Y-215812D01*
G01X2307312Y-216616D01*
G01X2300491Y-216994D01*
G01X2293064Y-216823D01*
G01X2388523Y-121364D01*
G01X2388694Y-128791D01*
G01X2388316Y-135612D01*
G01X2387512Y-141893D01*
G01X2386404Y-147702D01*
G01X2381411Y-167532D01*
G01X2380637Y-171970D01*
G01X2380299Y-176334D01*
G01X2380519Y-180689D01*
G01X2381423Y-185102D01*
G01X2383132Y-189640D01*
G01X2385769Y-194368D01*
G01X2389458Y-199353D01*
G01X2394322Y-204661D01*
G37*
G36*
G01X2648322Y-204661D02*
G01X2630361Y-222622D01*
G01X2625053Y-217758D01*
G01X2620068Y-214069D01*
G01X2615340Y-211432D01*
G01X2610803Y-209723D01*
G01X2606389Y-208819D01*
G01X2602034Y-208599D01*
G01X2597670Y-208937D01*
G01X2593232Y-209711D01*
G01X2573402Y-214704D01*
G01X2567594Y-215812D01*
G01X2561312Y-216616D01*
G01X2554491Y-216994D01*
G01X2547064Y-216823D01*
G01X2642523Y-121364D01*
G01X2642694Y-128791D01*
G01X2642316Y-135612D01*
G01X2641512Y-141893D01*
G01X2640404Y-147702D01*
G01X2635411Y-167532D01*
G01X2634637Y-171970D01*
G01X2634299Y-176334D01*
G01X2634520Y-180689D01*
G01X2635423Y-185102D01*
G01X2637132Y-189640D01*
G01X2639769Y-194368D01*
G01X2643458Y-199353D01*
G01X2648322Y-204661D01*
G37*
G36*
G01X2902322Y-204661D02*
G01X2884361Y-222622D01*
G01X2879053Y-217758D01*
G01X2874068Y-214069D01*
G01X2869340Y-211432D01*
G01X2864803Y-209723D01*
G01X2860389Y-208819D01*
G01X2856034Y-208599D01*
G01X2851670Y-208937D01*
G01X2847232Y-209711D01*
G01X2827402Y-214704D01*
G01X2821594Y-215812D01*
G01X2815312Y-216616D01*
G01X2808491Y-216994D01*
G01X2801064Y-216823D01*
G01X2896523Y-121364D01*
G01X2896694Y-128791D01*
G01X2896316Y-135612D01*
G01X2895512Y-141893D01*
G01X2894404Y-147702D01*
G01X2889411Y-167532D01*
G01X2888637Y-171970D01*
G01X2888299Y-176334D01*
G01X2888520Y-180689D01*
G01X2889423Y-185102D01*
G01X2891132Y-189640D01*
G01X2893769Y-194368D01*
G01X2897458Y-199353D01*
G01X2902322Y-204661D01*
G37*
G36*
G01X3156322Y-204661D02*
G01X3138361Y-222622D01*
G01X3133053Y-217758D01*
G01X3128068Y-214069D01*
G01X3123340Y-211432D01*
G01X3118802Y-209723D01*
G01X3114389Y-208819D01*
G01X3110034Y-208599D01*
G01X3105670Y-208937D01*
G01X3101232Y-209711D01*
G01X3081402Y-214704D01*
G01X3075593Y-215812D01*
G01X3069312Y-216616D01*
G01X3062491Y-216994D01*
G01X3055064Y-216823D01*
G01X3150523Y-121364D01*
G01X3150694Y-128791D01*
G01X3150316Y-135612D01*
G01X3149512Y-141893D01*
G01X3148404Y-147702D01*
G01X3143411Y-167532D01*
G01X3142637Y-171970D01*
G01X3142299Y-176334D01*
G01X3142519Y-180689D01*
G01X3143423Y-185102D01*
G01X3145132Y-189640D01*
G01X3147769Y-194368D01*
G01X3151458Y-199353D01*
G01X3156322Y-204661D01*
G37*
G36*
G01X3410322Y-204661D02*
G01X3392361Y-222622D01*
G01X3387053Y-217758D01*
G01X3382068Y-214069D01*
G01X3377340Y-211432D01*
G01X3372802Y-209723D01*
G01X3368389Y-208819D01*
G01X3364034Y-208599D01*
G01X3359670Y-208937D01*
G01X3355232Y-209711D01*
G01X3335402Y-214704D01*
G01X3329593Y-215812D01*
G01X3323312Y-216616D01*
G01X3316491Y-216994D01*
G01X3309064Y-216823D01*
G01X3404523Y-121364D01*
G01X3404694Y-128791D01*
G01X3404316Y-135612D01*
G01X3403512Y-141893D01*
G01X3402404Y-147702D01*
G01X3397411Y-167532D01*
G01X3396637Y-171970D01*
G01X3396299Y-176334D01*
G01X3396519Y-180689D01*
G01X3397423Y-185102D01*
G01X3399132Y-189640D01*
G01X3401769Y-194368D01*
G01X3405458Y-199353D01*
G01X3410322Y-204661D01*
G37*
G36*
G01X3664322Y-204661D02*
G01X3646361Y-222622D01*
G01X3641053Y-217758D01*
G01X3636068Y-214069D01*
G01X3631340Y-211432D01*
G01X3626802Y-209723D01*
G01X3622389Y-208820D01*
G01X3618034Y-208599D01*
G01X3613670Y-208937D01*
G01X3609232Y-209711D01*
G01X3589402Y-214704D01*
G01X3583593Y-215812D01*
G01X3577312Y-216616D01*
G01X3570491Y-216994D01*
G01X3563064Y-216823D01*
G01X3658523Y-121364D01*
G01X3658694Y-128791D01*
G01X3658316Y-135612D01*
G01X3657512Y-141894D01*
G01X3656404Y-147702D01*
G01X3651411Y-167532D01*
G01X3650637Y-171970D01*
G01X3650299Y-176334D01*
G01X3650519Y-180689D01*
G01X3651423Y-185102D01*
G01X3653132Y-189640D01*
G01X3655769Y-194368D01*
G01X3659458Y-199353D01*
G01X3664322Y-204661D01*
G37*
G36*
G01X3918322Y-204661D02*
G01X3900361Y-222622D01*
G01X3895053Y-217758D01*
G01X3890068Y-214069D01*
G01X3885340Y-211432D01*
G01X3880802Y-209723D01*
G01X3876389Y-208820D01*
G01X3872034Y-208599D01*
G01X3867670Y-208937D01*
G01X3863232Y-209711D01*
G01X3843402Y-214704D01*
G01X3837593Y-215812D01*
G01X3831312Y-216616D01*
G01X3824491Y-216994D01*
G01X3817064Y-216823D01*
G01X3912523Y-121364D01*
G01X3912694Y-128791D01*
G01X3912316Y-135612D01*
G01X3911512Y-141894D01*
G01X3910404Y-147702D01*
G01X3905411Y-167532D01*
G01X3904637Y-171970D01*
G01X3904299Y-176334D01*
G01X3904519Y-180689D01*
G01X3905423Y-185102D01*
G01X3907132Y-189640D01*
G01X3909769Y-194368D01*
G01X3913458Y-199353D01*
G01X3918322Y-204661D01*
G37*
G36*
G01X4172322Y-204661D02*
G01X4154361Y-222622D01*
G01X4149053Y-217758D01*
G01X4144068Y-214069D01*
G01X4139340Y-211432D01*
G01X4134802Y-209723D01*
G01X4130389Y-208819D01*
G01X4126034Y-208599D01*
G01X4121670Y-208937D01*
G01X4117232Y-209711D01*
G01X4097402Y-214704D01*
G01X4091593Y-215812D01*
G01X4085312Y-216616D01*
G01X4078491Y-216994D01*
G01X4071064Y-216823D01*
G01X4166523Y-121364D01*
G01X4166694Y-128791D01*
G01X4166316Y-135612D01*
G01X4165512Y-141893D01*
G01X4164404Y-147702D01*
G01X4159411Y-167532D01*
G01X4158637Y-171970D01*
G01X4158299Y-176334D01*
G01X4158519Y-180689D01*
G01X4159423Y-185102D01*
G01X4161132Y-189640D01*
G01X4163769Y-194368D01*
G01X4167458Y-199353D01*
G01X4172322Y-204661D01*
G37*
G36*
G01X4426322Y-204661D02*
G01X4408361Y-222622D01*
G01X4403053Y-217758D01*
G01X4398068Y-214069D01*
G01X4393340Y-211432D01*
G01X4388802Y-209723D01*
G01X4384389Y-208820D01*
G01X4380034Y-208599D01*
G01X4375670Y-208937D01*
G01X4371232Y-209711D01*
G01X4351402Y-214704D01*
G01X4345593Y-215812D01*
G01X4339312Y-216616D01*
G01X4332491Y-216994D01*
G01X4325064Y-216823D01*
G01X4420523Y-121364D01*
G01X4420694Y-128791D01*
G01X4420316Y-135612D01*
G01X4419512Y-141894D01*
G01X4418404Y-147702D01*
G01X4413411Y-167532D01*
G01X4412637Y-171970D01*
G01X4412299Y-176334D01*
G01X4412519Y-180689D01*
G01X4413423Y-185102D01*
G01X4415132Y-189640D01*
G01X4417769Y-194368D01*
G01X4421458Y-199353D01*
G01X4426322Y-204661D01*
G37*
G36*
G01X4676300Y-226039D02*
G01X4639289Y-224950D01*
G01X4635897Y-222126D01*
G01X4632054Y-219906D01*
G01X4627816Y-218223D01*
G01X4623235Y-217006D01*
G01X4618366Y-216189D01*
G01X4613264Y-215702D01*
G01X4602572Y-215443D01*
G01X4580758Y-215869D01*
G01X4570501Y-215455D01*
G01X4565723Y-214851D01*
G01X4561252Y-213892D01*
G01X4673841Y-139403D01*
G01X4671389Y-152652D01*
G01X4668347Y-164818D01*
G01X4665405Y-176097D01*
G01X4663251Y-186685D01*
G01X4662685Y-191781D01*
G01X4662574Y-196777D01*
G01X4663006Y-201699D01*
G01X4664065Y-206570D01*
G01X4665837Y-211415D01*
G01X4668410Y-216259D01*
G01X4671869Y-221125D01*
G01X4676300Y-226039D01*
G37*
G36*
G01X4934322Y-204661D02*
G01X4916361Y-222622D01*
G01X4911053Y-217758D01*
G01X4906068Y-214069D01*
G01X4901340Y-211432D01*
G01X4896803Y-209723D01*
G01X4892389Y-208819D01*
G01X4888034Y-208599D01*
G01X4883670Y-208937D01*
G01X4879232Y-209711D01*
G01X4859402Y-214704D01*
G01X4853594Y-215812D01*
G01X4847312Y-216616D01*
G01X4840491Y-216994D01*
G01X4833064Y-216823D01*
G01X4928523Y-121364D01*
G01X4928694Y-128791D01*
G01X4928316Y-135612D01*
G01X4927512Y-141893D01*
G01X4926404Y-147702D01*
G01X4921411Y-167532D01*
G01X4920637Y-171970D01*
G01X4920299Y-176334D01*
G01X4920520Y-180689D01*
G01X4921423Y-185102D01*
G01X4923132Y-189640D01*
G01X4925769Y-194368D01*
G01X4929458Y-199353D01*
G01X4934322Y-204661D01*
G37*
G36*
G01X5188322Y-204661D02*
G01X5170361Y-222622D01*
G01X5165053Y-217758D01*
G01X5160068Y-214069D01*
G01X5155340Y-211432D01*
G01X5150803Y-209723D01*
G01X5146389Y-208819D01*
G01X5142034Y-208599D01*
G01X5137670Y-208937D01*
G01X5133232Y-209711D01*
G01X5113402Y-214704D01*
G01X5107594Y-215812D01*
G01X5101312Y-216616D01*
G01X5094491Y-216994D01*
G01X5087064Y-216823D01*
G01X5182523Y-121364D01*
G01X5182694Y-128791D01*
G01X5182316Y-135612D01*
G01X5181512Y-141893D01*
G01X5180404Y-147702D01*
G01X5175411Y-167532D01*
G01X5174637Y-171970D01*
G01X5174299Y-176334D01*
G01X5174520Y-180689D01*
G01X5175423Y-185102D01*
G01X5177132Y-189640D01*
G01X5179769Y-194368D01*
G01X5183458Y-199353D01*
G01X5188322Y-204661D01*
G37*
G36*
G01X4688296Y-3198279D02*
G01X4713696Y-3198279D01*
G03X4732746Y-3236379I47625J0D01*
G01X4669246Y-3236379D01*
G03X4688296Y-3198279I-28575J38100D01*
G37*
G36*
G01X6376230Y-3498590D02*
G01X6394190Y-3480630D01*
G03X6434602Y-3494100I40411J53882D01*
G01X6389700Y-3539002D01*
G03X6376230Y-3498590I-67352J0D01*
G37*
G36*
G01X6396436Y-3714305D02*
G01X6369495Y-3687364D01*
G03X6389700Y-3626748I-80822J60617D01*
G01X6457052Y-3694100D01*
G03X6396436Y-3714305I0J-101028D01*
G37*
G36*
G01X6585210Y-3480630D02*
G01X6603170Y-3498590D01*
G03X6589700Y-3539002I53882J-40411D01*
G01X6544798Y-3494100D01*
G03X6585210Y-3480630I0J67352D01*
G37*
G36*
G01X6096430Y-4428465D02*
G01X6114390Y-4410505D01*
G03X6154802Y-4423975I40411J53882D01*
G01X6109900Y-4468877D01*
G03X6096430Y-4428465I-67352J0D01*
G37*
G36*
G01X1873580Y-5357259D02*
G01X1914220Y-5357259D01*
G01X1914432Y-5362216D01*
G01X1915047Y-5366687D01*
G01X1916041Y-5370730D01*
G01X1917385Y-5374402D01*
G01X1919053Y-5377761D01*
G01X1921018Y-5380865D01*
G01X1925730Y-5386539D01*
G01X1931304Y-5391886D01*
G01X1937527Y-5397370D01*
G01X1944181Y-5403453D01*
G01X1951050Y-5410599D01*
G01X1836750Y-5410599D01*
G01X1843620Y-5403453D01*
G01X1850274Y-5397370D01*
G01X1856496Y-5391886D01*
G01X1862071Y-5386539D01*
G01X1866782Y-5380865D01*
G01X1868747Y-5377761D01*
G01X1870415Y-5374402D01*
G01X1871759Y-5370730D01*
G01X1872753Y-5366687D01*
G01X1873369Y-5362216D01*
G01X1873580Y-5357259D01*
G37*
G36*
G01X2273579Y-5357259D02*
G01X2314219Y-5357259D01*
G01X2314431Y-5362216D01*
G01X2315047Y-5366687D01*
G01X2316040Y-5370730D01*
G01X2317384Y-5374402D01*
G01X2319053Y-5377761D01*
G01X2321017Y-5380865D01*
G01X2325729Y-5386539D01*
G01X2331304Y-5391886D01*
G01X2337526Y-5397370D01*
G01X2344180Y-5403453D01*
G01X2351049Y-5410599D01*
G01X2236749Y-5410599D01*
G01X2243619Y-5403453D01*
G01X2250273Y-5397370D01*
G01X2256495Y-5391886D01*
G01X2262070Y-5386539D01*
G01X2266782Y-5380865D01*
G01X2268746Y-5377761D01*
G01X2270414Y-5374402D01*
G01X2271758Y-5370730D01*
G01X2272752Y-5366687D01*
G01X2273368Y-5362216D01*
G01X2273579Y-5357259D01*
G37*
G36*
G01X3346780Y-5357259D02*
G01X3387420Y-5357259D01*
G01X3387632Y-5362216D01*
G01X3388247Y-5366687D01*
G01X3389241Y-5370730D01*
G01X3390585Y-5374402D01*
G01X3392253Y-5377761D01*
G01X3394218Y-5380865D01*
G01X3398930Y-5386539D01*
G01X3404504Y-5391886D01*
G01X3410727Y-5397370D01*
G01X3417381Y-5403453D01*
G01X3424250Y-5410599D01*
G01X3309950Y-5410599D01*
G01X3316820Y-5403453D01*
G01X3323474Y-5397370D01*
G01X3329696Y-5391886D01*
G01X3335271Y-5386539D01*
G01X3339982Y-5380865D01*
G01X3341947Y-5377761D01*
G01X3343615Y-5374402D01*
G01X3344959Y-5370730D01*
G01X3345953Y-5366687D01*
G01X3346569Y-5362216D01*
G01X3346780Y-5357259D01*
G37*
G36*
G01X3746779Y-5357259D02*
G01X3787419Y-5357259D01*
G01X3787631Y-5362216D01*
G01X3788247Y-5366687D01*
G01X3789240Y-5370730D01*
G01X3790584Y-5374402D01*
G01X3792253Y-5377761D01*
G01X3794217Y-5380865D01*
G01X3798929Y-5386539D01*
G01X3804504Y-5391886D01*
G01X3810726Y-5397370D01*
G01X3817380Y-5403453D01*
G01X3824249Y-5410599D01*
G01X3709949Y-5410599D01*
G01X3716819Y-5403453D01*
G01X3723473Y-5397370D01*
G01X3729695Y-5391886D01*
G01X3735270Y-5386539D01*
G01X3739982Y-5380865D01*
G01X3741946Y-5377761D01*
G01X3743614Y-5374402D01*
G01X3744958Y-5370730D01*
G01X3745952Y-5366687D01*
G01X3746568Y-5362216D01*
G01X3746779Y-5357259D01*
G37*
G36*
G01X4832680Y-5357259D02*
G01X4873320Y-5357259D01*
G01X4873532Y-5362216D01*
G01X4874147Y-5366687D01*
G01X4875141Y-5370730D01*
G01X4876485Y-5374402D01*
G01X4878153Y-5377761D01*
G01X4880118Y-5380865D01*
G01X4884830Y-5386539D01*
G01X4890404Y-5391886D01*
G01X4896627Y-5397370D01*
G01X4903281Y-5403453D01*
G01X4910150Y-5410599D01*
G01X4795850Y-5410599D01*
G01X4802720Y-5403453D01*
G01X4809374Y-5397370D01*
G01X4815596Y-5391886D01*
G01X4821171Y-5386539D01*
G01X4825882Y-5380865D01*
G01X4827847Y-5377761D01*
G01X4829515Y-5374402D01*
G01X4830859Y-5370730D01*
G01X4831853Y-5366687D01*
G01X4832469Y-5362216D01*
G01X4832680Y-5357259D01*
G37*
G36*
G01X5232679Y-5357259D02*
G01X5273319Y-5357259D01*
G01X5273531Y-5362216D01*
G01X5274147Y-5366687D01*
G01X5275140Y-5370730D01*
G01X5276484Y-5374402D01*
G01X5278153Y-5377761D01*
G01X5280117Y-5380865D01*
G01X5284829Y-5386539D01*
G01X5290404Y-5391886D01*
G01X5296626Y-5397370D01*
G01X5303280Y-5403453D01*
G01X5310149Y-5410599D01*
G01X5195849Y-5410599D01*
G01X5202719Y-5403453D01*
G01X5209373Y-5397370D01*
G01X5215595Y-5391886D01*
G01X5221170Y-5386539D01*
G01X5225882Y-5380865D01*
G01X5227846Y-5377761D01*
G01X5229514Y-5374402D01*
G01X5230858Y-5370730D01*
G01X5231852Y-5366687D01*
G01X5232468Y-5362216D01*
G01X5232679Y-5357259D01*
G37*
G36*
G01X1641390Y-4690324D02*
G01X1612653Y-4661587D01*
G01X1617194Y-4656361D01*
G01X1621256Y-4650183D01*
G01X1624272Y-4643534D01*
G01X1625211Y-4640181D01*
G01X1625675Y-4636891D01*
G01X1666086Y-4677303D01*
G01X1662796Y-4677767D01*
G01X1659444Y-4678705D01*
G01X1652794Y-4681721D01*
G01X1646616Y-4685784D01*
G01X1641390Y-4690324D01*
G37*
G36*
G01X2395669Y-4665632D02*
G01X2366932Y-4694369D01*
G01X2361706Y-4689829D01*
G01X2355529Y-4685767D01*
G01X2348879Y-4682750D01*
G01X2345527Y-4681812D01*
G01X2342237Y-4681348D01*
G01X2382648Y-4640937D01*
G01X2383112Y-4644227D01*
G01X2384050Y-4647579D01*
G01X2387067Y-4654229D01*
G01X2391129Y-4660406D01*
G01X2395669Y-4665632D01*
G37*
G36*
G01X3134626Y-4681451D02*
G01X3105889Y-4652714D01*
G01X3110637Y-4648619D01*
G01X3114765Y-4645280D01*
G01X3116441Y-4643500D01*
G01X3117777Y-4641437D01*
G01X3118711Y-4638934D01*
G01X3119180Y-4635831D01*
G01X3151509Y-4668160D01*
G01X3148407Y-4668630D01*
G01X3145903Y-4669563D01*
G01X3143840Y-4670899D01*
G01X3142061Y-4672576D01*
G01X3138721Y-4676703D01*
G01X3134626Y-4681451D01*
G37*
G36*
G01X3903269Y-4678137D02*
G01X3874533Y-4706873D01*
G01X3870437Y-4702125D01*
G01X3867098Y-4697998D01*
G01X3865318Y-4696322D01*
G01X3863255Y-4694986D01*
G01X3860752Y-4694052D01*
G01X3857650Y-4693583D01*
G01X3889979Y-4661254D01*
G01X3890448Y-4664356D01*
G01X3891382Y-4666860D01*
G01X3892717Y-4668923D01*
G01X3894394Y-4670702D01*
G01X3898521Y-4674041D01*
G01X3903269Y-4678137D01*
G37*
G36*
G01X4587790Y-4686547D02*
G01X4559053Y-4657810D01*
G01X4563594Y-4652584D01*
G01X4567656Y-4646406D01*
G01X4570672Y-4639756D01*
G01X4571611Y-4636404D01*
G01X4572075Y-4633114D01*
G01X4612486Y-4673525D01*
G01X4609196Y-4673989D01*
G01X4605844Y-4674928D01*
G01X4599194Y-4677944D01*
G01X4593016Y-4682006D01*
G01X4587790Y-4686547D01*
G37*
G36*
G01X5377735Y-4665438D02*
G01X5348998Y-4694175D01*
G01X5343772Y-4689635D01*
G01X5337594Y-4685573D01*
G01X5330944Y-4682556D01*
G01X5327592Y-4681618D01*
G01X5324302Y-4681154D01*
G01X5364713Y-4640743D01*
G01X5365177Y-4644033D01*
G01X5366116Y-4647385D01*
G01X5369132Y-4654035D01*
G01X5373194Y-4660212D01*
G01X5377735Y-4665438D01*
G37*
G36*
G01X4622598Y-4030938D02*
G01X4640558Y-4012977D01*
G01X4642760Y-4014856D01*
G01X4645251Y-4016435D01*
G01X4650856Y-4018785D01*
G01X4656879Y-4020206D01*
G01X4662829Y-4020880D01*
G01X4630500Y-4053209D01*
G01X4629826Y-4047259D01*
G01X4628405Y-4041235D01*
G01X4626056Y-4035631D01*
G01X4624477Y-4033140D01*
G01X4622598Y-4030938D01*
G37*
G36*
G01X2362809Y-4507724D02*
G01X2380770Y-4525684D01*
G01X2378891Y-4527886D01*
G01X2377311Y-4530377D01*
G01X2374962Y-4535982D01*
G01X2373541Y-4542005D01*
G01X2372867Y-4547955D01*
G01X2340538Y-4515626D01*
G01X2346488Y-4514952D01*
G01X2352512Y-4513531D01*
G01X2358116Y-4511182D01*
G01X2360607Y-4509603D01*
G01X2362809Y-4507724D01*
G37*
G36*
G01X2973950Y-4192984D02*
G01X2991911Y-4175024D01*
G01X2994112Y-4176903D01*
G01X2996604Y-4178482D01*
G01X3002208Y-4180831D01*
G01X3008232Y-4182252D01*
G01X3014182Y-4182926D01*
G01X2981853Y-4215255D01*
G01X2981179Y-4209305D01*
G01X2979758Y-4203282D01*
G01X2977408Y-4197677D01*
G01X2975829Y-4195186D01*
G01X2973950Y-4192984D01*
G37*
G36*
G01X4512010Y-4245043D02*
G01X4529970Y-4263003D01*
G01X4528091Y-4265205D01*
G01X4526512Y-4267696D01*
G01X4524163Y-4273301D01*
G01X4522742Y-4279324D01*
G01X4522067Y-4285274D01*
G01X4489739Y-4252946D01*
G01X4495688Y-4252271D01*
G01X4501712Y-4250850D01*
G01X4507317Y-4248501D01*
G01X4509808Y-4246922D01*
G01X4512010Y-4245043D01*
G37*
G36*
G01X5325730Y-4498103D02*
G01X5351130Y-4498103D01*
G01X5351358Y-4500988D01*
G01X5352003Y-4503867D01*
G01X5354305Y-4509491D01*
G01X5357559Y-4514755D01*
G01X5361290Y-4519439D01*
G01X5315570Y-4519439D01*
G01X5319300Y-4514755D01*
G01X5322555Y-4509491D01*
G01X5324856Y-4503867D01*
G01X5325501Y-4500988D01*
G01X5325730Y-4498103D01*
G37*
G36*
G01X3849352Y-4504550D02*
G01X3874752Y-4504550D01*
G01X3874980Y-4507435D01*
G01X3875625Y-4510314D01*
G01X3877927Y-4515938D01*
G01X3881181Y-4521202D01*
G01X3884912Y-4525886D01*
G01X3839192Y-4525886D01*
G01X3842923Y-4521202D01*
G01X3846177Y-4515938D01*
G01X3848479Y-4510314D01*
G01X3849124Y-4507435D01*
G01X3849352Y-4504550D01*
G37*
G36*
G01X1755320Y-4181077D02*
G01X1780720Y-4181079D01*
G01X1780948Y-4183964D01*
G01X1781593Y-4186843D01*
G01X1783895Y-4192467D01*
G01X1787150Y-4197731D01*
G01X1790880Y-4202415D01*
G01X1745160Y-4202413D01*
G01X1748891Y-4197729D01*
G01X1752145Y-4192465D01*
G01X1754447Y-4186841D01*
G01X1755092Y-4183963D01*
G01X1755320Y-4181077D01*
G37*
G36*
G01X4826000Y-1077081D02*
G01X4851400Y-1077081D01*
G01X4851628Y-1079967D01*
G01X4852273Y-1082845D01*
G01X4854575Y-1088469D01*
G01X4857830Y-1093733D01*
G01X4861560Y-1098417D01*
G01X4815840Y-1098417D01*
G01X4819571Y-1093733D01*
G01X4822825Y-1088469D01*
G01X4825127Y-1082845D01*
G01X4825772Y-1079967D01*
G01X4826000Y-1077081D01*
G37*
G36*
G01X4800377Y-1224238D02*
G01X4818338Y-1206277D01*
G01X4820540Y-1208156D01*
G01X4823031Y-1209735D01*
G01X4828635Y-1212085D01*
G01X4834659Y-1213506D01*
G01X4840609Y-1214180D01*
G01X4808280Y-1246509D01*
G01X4807606Y-1240559D01*
G01X4806185Y-1234535D01*
G01X4803835Y-1228931D01*
G01X4802256Y-1226440D01*
G01X4800377Y-1224238D01*
G37*
G36*
G01X4880197Y-1231900D02*
G01X4880197Y-1257300D01*
G01X4877311Y-1257528D01*
G01X4874433Y-1258173D01*
G01X4868809Y-1260475D01*
G01X4863545Y-1263729D01*
G01X4858861Y-1267460D01*
G01X4858861Y-1221740D01*
G01X4863545Y-1225471D01*
G01X4868809Y-1228725D01*
G01X4874433Y-1231027D01*
G01X4877311Y-1231672D01*
G01X4880197Y-1231900D01*
G37*
G36*
G01X4800377Y-1352216D02*
G01X4818338Y-1334255D01*
G01X4820540Y-1336134D01*
G01X4823031Y-1337713D01*
G01X4828635Y-1340063D01*
G01X4834659Y-1341484D01*
G01X4840609Y-1342158D01*
G01X4808280Y-1374487D01*
G01X4807606Y-1368537D01*
G01X4806185Y-1362513D01*
G01X4803835Y-1356909D01*
G01X4802256Y-1354417D01*
G01X4800377Y-1352216D01*
G37*
G36*
G01X4880197Y-1359878D02*
G01X4880197Y-1385278D01*
G01X4877311Y-1385506D01*
G01X4874433Y-1386151D01*
G01X4868809Y-1388453D01*
G01X4863545Y-1391707D01*
G01X4858861Y-1395438D01*
G01X4858861Y-1349718D01*
G01X4863545Y-1353449D01*
G01X4868809Y-1356703D01*
G01X4874433Y-1359005D01*
G01X4877311Y-1359650D01*
G01X4880197Y-1359878D01*
G37*
G36*
G01X4800377Y-1733216D02*
G01X4818338Y-1715255D01*
G01X4820540Y-1717134D01*
G01X4823031Y-1718713D01*
G01X4828635Y-1721063D01*
G01X4834659Y-1722484D01*
G01X4840609Y-1723158D01*
G01X4808280Y-1755487D01*
G01X4807606Y-1749537D01*
G01X4806185Y-1743513D01*
G01X4803835Y-1737909D01*
G01X4802256Y-1735417D01*
G01X4800377Y-1733216D01*
G37*
G36*
G01X4800377Y-1860216D02*
G01X4818338Y-1842255D01*
G01X4820540Y-1844134D01*
G01X4823031Y-1845713D01*
G01X4828635Y-1848063D01*
G01X4834659Y-1849484D01*
G01X4840609Y-1850158D01*
G01X4808280Y-1882487D01*
G01X4807606Y-1876537D01*
G01X4806185Y-1870513D01*
G01X4803835Y-1864909D01*
G01X4802256Y-1862417D01*
G01X4800377Y-1860216D01*
G37*
G36*
G01X4800377Y-2114216D02*
G01X4818338Y-2096255D01*
G01X4820540Y-2098134D01*
G01X4823031Y-2099713D01*
G01X4828635Y-2102063D01*
G01X4834659Y-2103484D01*
G01X4840609Y-2104158D01*
G01X4808280Y-2136487D01*
G01X4807606Y-2130537D01*
G01X4806185Y-2124513D01*
G01X4803835Y-2118909D01*
G01X4802256Y-2116417D01*
G01X4800377Y-2114216D01*
G37*
G36*
G01X4800377Y-2241216D02*
G01X4818338Y-2223255D01*
G01X4820540Y-2225134D01*
G01X4823031Y-2226713D01*
G01X4828635Y-2229063D01*
G01X4834659Y-2230484D01*
G01X4840609Y-2231158D01*
G01X4808280Y-2263487D01*
G01X4807606Y-2257537D01*
G01X4806185Y-2251513D01*
G01X4803835Y-2245909D01*
G01X4802256Y-2243417D01*
G01X4800377Y-2241216D01*
G37*
G36*
G01X4851400Y-2429097D02*
G01X4826000Y-2429097D01*
G01X4825772Y-2426211D01*
G01X4825127Y-2423333D01*
G01X4822825Y-2417709D01*
G01X4819571Y-2412445D01*
G01X4815840Y-2407761D01*
G01X4861560Y-2407761D01*
G01X4857829Y-2412445D01*
G01X4854575Y-2417709D01*
G01X4852273Y-2423333D01*
G01X4851628Y-2426211D01*
G01X4851400Y-2429097D01*
G37*
G36*
G01X4800377Y-2367238D02*
G01X4818338Y-2349277D01*
G01X4820540Y-2351156D01*
G01X4823031Y-2352735D01*
G01X4828635Y-2355085D01*
G01X4834659Y-2356506D01*
G01X4840609Y-2357180D01*
G01X4808280Y-2389509D01*
G01X4807606Y-2383559D01*
G01X4806185Y-2377535D01*
G01X4803835Y-2371931D01*
G01X4802256Y-2369440D01*
G01X4800377Y-2367238D01*
G37*
G36*
G01X4577038Y-2489423D02*
G01X4559077Y-2471462D01*
G01X4560956Y-2469260D01*
G01X4562535Y-2466769D01*
G01X4564885Y-2461165D01*
G01X4566306Y-2455141D01*
G01X4566980Y-2449191D01*
G01X4599309Y-2481520D01*
G01X4593359Y-2482194D01*
G01X4587335Y-2483615D01*
G01X4581731Y-2485965D01*
G01X4579240Y-2487544D01*
G01X4577038Y-2489423D01*
G37*
G36*
G01X4479703Y-2445351D02*
G01X4479703Y-2419951D01*
G01X4482589Y-2419723D01*
G01X4485467Y-2419078D01*
G01X4491091Y-2416776D01*
G01X4496355Y-2413521D01*
G01X4501039Y-2409791D01*
G01X4501039Y-2455511D01*
G01X4496355Y-2451780D01*
G01X4491091Y-2448526D01*
G01X4485467Y-2446224D01*
G01X4482589Y-2445579D01*
G01X4479703Y-2445351D01*
G37*
G36*
G01X5752223Y-1700920D02*
G01X5770184Y-1718880D01*
G01X5768305Y-1721082D01*
G01X5766726Y-1723573D01*
G01X5764376Y-1729178D01*
G01X5762955Y-1735201D01*
G01X5762281Y-1741151D01*
G01X5729952Y-1708822D01*
G01X5735902Y-1708148D01*
G01X5741926Y-1706727D01*
G01X5747530Y-1704378D01*
G01X5750022Y-1702799D01*
G01X5752223Y-1700920D01*
G37*
G36*
G01X5566320Y-2673123D02*
G01X5584280Y-2691084D01*
G01X5582484Y-2693202D01*
G01X5581124Y-2695474D01*
G01X5579440Y-2700414D01*
G01X5578684Y-2705772D01*
G01X5578312Y-2711420D01*
G01X5545984Y-2679090D01*
G01X5551631Y-2678719D01*
G01X5556990Y-2677963D01*
G01X5561929Y-2676279D01*
G01X5564201Y-2674919D01*
G01X5566320Y-2673123D01*
G37*
G36*
G01X6255277Y-2206320D02*
G01X6255277Y-2231720D01*
G01X6252391Y-2231948D01*
G01X6249513Y-2232593D01*
G01X6243889Y-2234895D01*
G01X6238625Y-2238149D01*
G01X6233941Y-2241880D01*
G01X6233941Y-2196160D01*
G01X6238625Y-2199891D01*
G01X6243889Y-2203145D01*
G01X6249513Y-2205447D01*
G01X6252391Y-2206092D01*
G01X6255277Y-2206320D01*
G37*
G36*
G01X6337300Y-1858742D02*
G01X6311900Y-1868267D01*
G01X6311635Y-1865419D01*
G01X6310885Y-1862448D01*
G01X6308210Y-1856484D01*
G01X6304428Y-1851078D01*
G01X6300092Y-1846931D01*
G01X6344808Y-1837406D01*
G01X6342052Y-1842476D01*
G01X6339646Y-1847705D01*
G01X6337945Y-1853118D01*
G01X6337300Y-1858742D01*
G37*
G36*
G01X4381277Y-1786065D02*
G01X4399238Y-1768104D01*
G01X4401440Y-1769983D01*
G01X4403931Y-1771562D01*
G01X4409535Y-1773912D01*
G01X4415559Y-1775333D01*
G01X4421509Y-1776007D01*
G01X4389180Y-1808336D01*
G01X4388506Y-1802386D01*
G01X4387085Y-1796362D01*
G01X4384735Y-1790758D01*
G01X4383156Y-1788266D01*
G01X4381277Y-1786065D01*
G37*
G36*
G01X4381277Y-1924536D02*
G01X4399238Y-1906576D01*
G01X4401440Y-1908455D01*
G01X4403931Y-1910034D01*
G01X4409535Y-1912383D01*
G01X4415559Y-1913804D01*
G01X4421509Y-1914478D01*
G01X4389180Y-1946807D01*
G01X4388506Y-1940857D01*
G01X4387085Y-1934834D01*
G01X4384735Y-1929229D01*
G01X4383156Y-1926738D01*
G01X4381277Y-1924536D01*
G37*
G36*
G01X4207457Y-1040037D02*
G01X4225418Y-1022076D01*
G01X4227619Y-1023956D01*
G01X4230111Y-1025535D01*
G01X4235715Y-1027884D01*
G01X4241739Y-1029305D01*
G01X4247689Y-1029979D01*
G01X4215360Y-1062308D01*
G01X4214686Y-1056358D01*
G01X4213265Y-1050334D01*
G01X4210915Y-1044730D01*
G01X4209336Y-1042239D01*
G01X4207457Y-1040037D01*
G37*
G36*
G01X3065738Y-1790923D02*
G01X3047777Y-1772962D01*
G01X3049656Y-1770760D01*
G01X3051235Y-1768269D01*
G01X3053585Y-1762665D01*
G01X3055006Y-1756641D01*
G01X3055680Y-1750691D01*
G01X3088009Y-1783020D01*
G01X3082059Y-1783694D01*
G01X3076035Y-1785115D01*
G01X3070431Y-1787465D01*
G01X3067940Y-1789044D01*
G01X3065738Y-1790923D01*
G37*
G36*
G01X2961598Y-1913512D02*
G01X2943637Y-1895551D01*
G01X2945516Y-1893350D01*
G01X2947095Y-1890859D01*
G01X2949445Y-1885254D01*
G01X2950866Y-1879230D01*
G01X2951540Y-1873280D01*
G01X2983869Y-1905609D01*
G01X2977919Y-1906283D01*
G01X2971895Y-1907705D01*
G01X2966291Y-1910054D01*
G01X2963800Y-1911633D01*
G01X2961598Y-1913512D01*
G37*
G36*
G01X4729438Y-4280123D02*
G01X4711477Y-4262162D01*
G01X4713356Y-4259960D01*
G01X4714935Y-4257469D01*
G01X4717285Y-4251865D01*
G01X4718706Y-4245841D01*
G01X4719380Y-4239891D01*
G01X4751709Y-4272220D01*
G01X4745759Y-4272894D01*
G01X4739735Y-4274315D01*
G01X4734131Y-4276665D01*
G01X4731640Y-4278244D01*
G01X4729438Y-4280123D01*
G37*
G36*
G01X4606380Y-4347120D02*
G01X4588420Y-4365080D01*
G01X4586387Y-4363370D01*
G01X4584343Y-4362238D01*
G01X4582255Y-4361568D01*
G01X4580093Y-4361244D01*
G01X4570091Y-4361120D01*
G01X4602420Y-4328791D01*
G01X4602544Y-4338793D01*
G01X4602868Y-4340955D01*
G01X4603538Y-4343043D01*
G01X4604670Y-4345087D01*
G01X4606380Y-4347120D01*
G37*
G36*
G01X2611020Y-3845560D02*
G01X2611020Y-3820160D01*
G01X2613906Y-3819932D01*
G01X2616784Y-3819287D01*
G01X2622409Y-3816985D01*
G01X2627673Y-3813730D01*
G01X2632356Y-3810000D01*
G01X2632356Y-3855720D01*
G01X2627673Y-3851990D01*
G01X2622409Y-3848735D01*
G01X2616784Y-3846433D01*
G01X2613906Y-3845788D01*
G01X2611020Y-3845560D01*
G37*
G36*
G01X3199222Y-4156983D02*
G01X3207658Y-4129497D01*
G01X3209842Y-4131294D01*
G01X3212516Y-4132874D01*
G01X3218800Y-4135254D01*
G01X3225439Y-4136373D01*
G01X3228556Y-4136377D01*
G01X3231361Y-4135968D01*
G01X3209993Y-4176387D01*
G01X3207939Y-4171163D01*
G01X3205591Y-4166050D01*
G01X3202751Y-4161253D01*
G01X3199222Y-4156983D01*
G37*
G36*
G01X2525266Y-3778250D02*
G01X2529076Y-3740150D01*
G01X2540391Y-3740670D01*
G01X2542884Y-3740479D01*
G01X2545349Y-3739927D01*
G01X2547841Y-3738900D01*
G01X2550412Y-3737280D01*
G01X2546602Y-3782841D01*
G01X2544350Y-3780889D01*
G01X2541987Y-3779546D01*
G01X2539508Y-3778703D01*
G01X2536911Y-3778254D01*
G01X2531347Y-3778108D01*
G01X2525266Y-3778250D01*
G37*
G36*
G01X4635500Y-3861657D02*
G01X4610100Y-3861657D01*
G01X4609872Y-3858771D01*
G01X4609227Y-3855893D01*
G01X4606925Y-3850269D01*
G01X4603671Y-3845005D01*
G01X4599940Y-3840321D01*
G01X4645660Y-3840321D01*
G01X4641930Y-3845005D01*
G01X4638675Y-3850269D01*
G01X4636373Y-3855893D01*
G01X4635728Y-3858771D01*
G01X4635500Y-3861657D01*
G37*
G36*
G01X6311900Y-1413097D02*
G01X6286500Y-1413097D01*
G01X6286272Y-1410211D01*
G01X6285627Y-1407333D01*
G01X6283325Y-1401709D01*
G01X6280071Y-1396445D01*
G01X6276340Y-1391761D01*
G01X6322060Y-1391761D01*
G01X6318329Y-1396445D01*
G01X6315075Y-1401709D01*
G01X6312773Y-1407333D01*
G01X6312128Y-1410211D01*
G01X6311900Y-1413097D01*
G37*
G36*
G01X5435823Y-2915962D02*
G01X5417862Y-2933923D01*
G01X5415660Y-2932044D01*
G01X5413169Y-2930465D01*
G01X5407565Y-2928115D01*
G01X5401541Y-2926694D01*
G01X5395591Y-2926020D01*
G01X5427920Y-2893691D01*
G01X5428594Y-2899641D01*
G01X5430015Y-2905665D01*
G01X5432365Y-2911269D01*
G01X5433944Y-2913760D01*
G01X5435823Y-2915962D01*
G37*
G36*
G01X1760878Y-3874770D02*
G01X1760878Y-3912870D01*
G01X1754852Y-3912674D01*
G01X1749413Y-3912665D01*
G01X1746854Y-3913002D01*
G01X1744371Y-3913710D01*
G01X1741942Y-3914900D01*
G01X1739542Y-3916680D01*
G01X1739542Y-3870960D01*
G01X1741942Y-3872740D01*
G01X1744371Y-3873930D01*
G01X1746854Y-3874638D01*
G01X1749413Y-3874975D01*
G01X1754852Y-3874966D01*
G01X1760878Y-3874770D01*
G37*
G36*
G01X1732082Y-3935317D02*
G01X1706682Y-3935317D01*
G01X1706454Y-3932431D01*
G01X1705809Y-3929553D01*
G01X1703507Y-3923929D01*
G01X1700252Y-3918665D01*
G01X1696522Y-3913981D01*
G01X1742242Y-3913981D01*
G01X1738511Y-3918665D01*
G01X1735257Y-3923929D01*
G01X1732955Y-3929553D01*
G01X1732310Y-3932431D01*
G01X1732082Y-3935317D01*
G37*
G36*
G01X3198434Y-3787140D02*
G01X3174980Y-3761740D01*
G01X3181914Y-3761403D01*
G01X3185204Y-3760868D01*
G01X3188258Y-3759986D01*
G01X3190985Y-3758682D01*
G01X3193296Y-3756879D01*
G01X3195103Y-3754500D01*
G01X3196316Y-3751470D01*
G01X3219770Y-3789078D01*
G01X3209146Y-3787674D01*
G01X3198434Y-3787140D01*
G37*
G36*
G01X3040338Y-2298923D02*
G01X3022377Y-2280962D01*
G01X3024256Y-2278760D01*
G01X3025835Y-2276269D01*
G01X3028185Y-2270665D01*
G01X3029606Y-2264641D01*
G01X3030280Y-2258691D01*
G01X3062609Y-2291020D01*
G01X3056659Y-2291694D01*
G01X3050635Y-2293115D01*
G01X3045031Y-2295465D01*
G01X3042540Y-2297044D01*
G01X3040338Y-2298923D01*
G37*
G36*
G01X3041419Y-2424841D02*
G01X3028780Y-2401560D01*
G01X3032290Y-2397059D01*
G01X3034831Y-2391907D01*
G01X3036678Y-2386368D01*
G01X3038104Y-2380711D01*
G01X3064671Y-2417919D01*
G01X3058655Y-2417939D01*
G01X3052242Y-2419121D01*
G01X3046231Y-2421433D01*
G01X3043625Y-2423002D01*
G01X3041419Y-2424841D01*
G37*
G36*
G01X3381597Y-2509339D02*
G01X3381597Y-2534739D01*
G01X3378711Y-2534967D01*
G01X3375833Y-2535612D01*
G01X3370209Y-2537914D01*
G01X3364945Y-2541169D01*
G01X3360261Y-2544899D01*
G01X3360261Y-2499179D01*
G01X3364945Y-2502910D01*
G01X3370209Y-2506164D01*
G01X3375833Y-2508466D01*
G01X3378711Y-2509111D01*
G01X3381597Y-2509339D01*
G37*
G36*
G01X6235923Y-2482156D02*
G01X6217962Y-2500116D01*
G01X6215760Y-2498237D01*
G01X6213269Y-2496658D01*
G01X6207665Y-2494309D01*
G01X6201641Y-2492888D01*
G01X6195691Y-2492213D01*
G01X6228020Y-2459885D01*
G01X6228694Y-2465835D01*
G01X6230115Y-2471858D01*
G01X6232465Y-2477463D01*
G01X6234044Y-2479954D01*
G01X6235923Y-2482156D01*
G37*
G36*
G01X6294661Y-2845942D02*
G01X6320061Y-2845942D01*
G01X6320289Y-2848828D01*
G01X6320934Y-2851706D01*
G01X6323236Y-2857330D01*
G01X6326490Y-2862594D01*
G01X6330221Y-2867278D01*
G01X6284501Y-2867278D01*
G01X6288232Y-2862594D01*
G01X6291486Y-2857330D01*
G01X6293788Y-2851706D01*
G01X6294433Y-2848828D01*
G01X6294661Y-2845942D01*
G37*
G36*
G01X4694034Y-4140200D02*
G01X4674984Y-4165600D01*
G01X4669769Y-4165925D01*
G01X4664211Y-4166782D01*
G01X4653648Y-4169381D01*
G01X4672698Y-4127819D01*
G01X4674213Y-4130428D01*
G01X4676275Y-4132805D01*
G01X4678774Y-4134916D01*
G01X4681603Y-4136722D01*
G01X4684652Y-4138190D01*
G01X4687812Y-4139283D01*
G01X4690976Y-4139965D01*
G01X4694034Y-4140200D01*
G37*
G36*
G01X4778754Y-2616869D02*
G01X4778754Y-2591469D01*
G01X4781640Y-2591241D01*
G01X4784518Y-2590596D01*
G01X4790142Y-2588294D01*
G01X4795406Y-2585040D01*
G01X4800090Y-2581309D01*
G01X4800090Y-2627029D01*
G01X4795406Y-2623299D01*
G01X4790142Y-2620044D01*
G01X4784518Y-2617743D01*
G01X4781640Y-2617097D01*
G01X4778754Y-2616869D01*
G37*
G36*
G01X4419377Y-2062438D02*
G01X4437338Y-2044477D01*
G01X4439540Y-2046356D01*
G01X4442031Y-2047935D01*
G01X4447635Y-2050285D01*
G01X4453659Y-2051706D01*
G01X4459609Y-2052380D01*
G01X4427280Y-2084709D01*
G01X4426606Y-2078759D01*
G01X4425185Y-2072735D01*
G01X4422835Y-2067131D01*
G01X4421256Y-2064640D01*
G01X4419377Y-2062438D01*
G37*
G36*
G01X1849162Y-876077D02*
G01X1867123Y-894038D01*
G01X1865244Y-896240D01*
G01X1863665Y-898731D01*
G01X1861315Y-904335D01*
G01X1859894Y-910359D01*
G01X1859220Y-916309D01*
G01X1826891Y-883980D01*
G01X1832841Y-883306D01*
G01X1838865Y-881885D01*
G01X1844469Y-879535D01*
G01X1846960Y-877956D01*
G01X1849162Y-876077D01*
G37*
G36*
G01X1790742Y-1142777D02*
G01X1808703Y-1160738D01*
G01X1806824Y-1162940D01*
G01X1805245Y-1165431D01*
G01X1802895Y-1171035D01*
G01X1801474Y-1177059D01*
G01X1800800Y-1183009D01*
G01X1768471Y-1150680D01*
G01X1774421Y-1150006D01*
G01X1780445Y-1148585D01*
G01X1786049Y-1146235D01*
G01X1788540Y-1144656D01*
G01X1790742Y-1142777D01*
G37*
G36*
G01X5791200Y-752697D02*
G01X5765800Y-752697D01*
G01X5765572Y-749811D01*
G01X5764927Y-746933D01*
G01X5762625Y-741309D01*
G01X5759371Y-736045D01*
G01X5755640Y-731361D01*
G01X5801360Y-731361D01*
G01X5797629Y-736045D01*
G01X5794375Y-741309D01*
G01X5792073Y-746933D01*
G01X5791428Y-749811D01*
G01X5791200Y-752697D01*
G37*
G36*
G01X5765800Y-1825403D02*
G01X5791200Y-1825403D01*
G01X5791428Y-1828289D01*
G01X5792073Y-1831167D01*
G01X5794375Y-1836791D01*
G01X5797629Y-1842055D01*
G01X5801360Y-1846739D01*
G01X5755640Y-1846739D01*
G01X5759371Y-1842055D01*
G01X5762625Y-1836791D01*
G01X5764927Y-1831167D01*
G01X5765572Y-1828289D01*
G01X5765800Y-1825403D01*
G37*
G36*
G01X5100362Y-2425477D02*
G01X5118323Y-2443438D01*
G01X5116444Y-2445640D01*
G01X5114865Y-2448131D01*
G01X5112515Y-2453735D01*
G01X5111094Y-2459759D01*
G01X5110420Y-2465709D01*
G01X5078091Y-2433380D01*
G01X5084041Y-2432706D01*
G01X5090065Y-2431285D01*
G01X5095669Y-2428935D01*
G01X5098160Y-2427356D01*
G01X5100362Y-2425477D01*
G37*
G36*
G01X5562507Y-1647696D02*
G01X5587907Y-1647696D01*
G01X5588135Y-1650582D01*
G01X5588781Y-1653460D01*
G01X5591082Y-1659084D01*
G01X5594337Y-1664348D01*
G01X5598067Y-1669032D01*
G01X5552347Y-1669032D01*
G01X5556078Y-1664348D01*
G01X5559332Y-1659084D01*
G01X5561634Y-1653460D01*
G01X5562279Y-1650582D01*
G01X5562507Y-1647696D01*
G37*
G36*
G01X5613530Y-1709555D02*
G01X5595570Y-1727515D01*
G01X5593368Y-1725636D01*
G01X5590877Y-1724057D01*
G01X5585272Y-1721708D01*
G01X5579248Y-1720287D01*
G01X5573298Y-1719613D01*
G01X5605627Y-1687284D01*
G01X5606301Y-1693234D01*
G01X5607723Y-1699257D01*
G01X5610072Y-1704862D01*
G01X5611651Y-1707353D01*
G01X5613530Y-1709555D01*
G37*
G36*
G01X5199338Y-1644828D02*
G01X5181377Y-1626868D01*
G01X5183256Y-1624666D01*
G01X5184835Y-1622175D01*
G01X5187185Y-1616570D01*
G01X5188606Y-1610547D01*
G01X5189280Y-1604597D01*
G01X5221609Y-1636926D01*
G01X5215659Y-1637600D01*
G01X5209635Y-1639021D01*
G01X5204031Y-1641370D01*
G01X5201540Y-1642949D01*
G01X5199338Y-1644828D01*
G37*
G36*
G01X4880197Y-1638300D02*
G01X4880197Y-1663700D01*
G01X4877311Y-1663928D01*
G01X4874433Y-1664573D01*
G01X4868809Y-1666875D01*
G01X4863545Y-1670129D01*
G01X4858861Y-1673860D01*
G01X4858861Y-1628140D01*
G01X4863545Y-1631871D01*
G01X4868809Y-1635125D01*
G01X4874433Y-1637427D01*
G01X4877311Y-1638072D01*
G01X4880197Y-1638300D01*
G37*
G36*
G01X3996334Y-1271094D02*
G01X4013450Y-1252290D01*
G01X4015655Y-1254164D01*
G01X4018166Y-1255739D01*
G01X4023839Y-1258073D01*
G01X4029931Y-1259444D01*
G01X4035906Y-1260007D01*
G01X4004432Y-1293169D01*
G01X4003645Y-1287250D01*
G01X4002169Y-1281297D01*
G01X3999800Y-1275762D01*
G01X3998217Y-1273292D01*
G01X3996334Y-1271094D01*
G37*
G36*
G01X5707999Y-1600200D02*
G01X5707999Y-1625600D01*
G01X5705114Y-1625828D01*
G01X5702235Y-1626473D01*
G01X5696611Y-1628775D01*
G01X5691347Y-1632029D01*
G01X5686663Y-1635760D01*
G01X5686663Y-1590040D01*
G01X5691347Y-1593771D01*
G01X5696611Y-1597025D01*
G01X5702235Y-1599327D01*
G01X5705114Y-1599972D01*
G01X5707999Y-1600200D01*
G37*
G36*
G01X6384703Y-1282700D02*
G01X6384703Y-1257300D01*
G01X6387589Y-1257072D01*
G01X6390467Y-1256427D01*
G01X6396091Y-1254125D01*
G01X6401355Y-1250871D01*
G01X6406039Y-1247140D01*
G01X6406039Y-1292860D01*
G01X6401355Y-1289129D01*
G01X6396091Y-1285875D01*
G01X6390467Y-1283573D01*
G01X6387589Y-1282928D01*
G01X6384703Y-1282700D01*
G37*
G36*
G01X5880100Y-1573610D02*
G01X5854700Y-1573610D01*
G01X5854472Y-1570724D01*
G01X5853827Y-1567845D01*
G01X5851525Y-1562221D01*
G01X5848270Y-1556957D01*
G01X5844540Y-1552274D01*
G01X5890260Y-1552274D01*
G01X5886530Y-1556957D01*
G01X5883275Y-1562221D01*
G01X5880973Y-1567845D01*
G01X5880328Y-1570724D01*
G01X5880100Y-1573610D01*
G37*
G36*
G01X4440536Y-2301006D02*
G01X4419666Y-2316058D01*
G01X4417485Y-2314166D01*
G01X4415068Y-2312570D01*
G01X4409707Y-2310137D01*
G01X4403938Y-2308508D01*
G01X4398117Y-2307433D01*
G01X4433224Y-2278144D01*
G01X4433526Y-2284156D01*
G01X4434795Y-2290405D01*
G01X4437106Y-2296240D01*
G01X4438676Y-2298797D01*
G01X4440536Y-2301006D01*
G37*
G36*
G01X4445506Y-2341897D02*
G01X4463466Y-2323936D01*
G01X4465668Y-2325816D01*
G01X4468159Y-2327395D01*
G01X4473764Y-2329744D01*
G01X4479787Y-2331165D01*
G01X4485737Y-2331839D01*
G01X4453408Y-2364168D01*
G01X4452734Y-2358218D01*
G01X4451313Y-2352194D01*
G01X4448964Y-2346590D01*
G01X4447385Y-2344099D01*
G01X4445506Y-2341897D01*
G37*
G36*
G01X5223097Y-2964180D02*
G01X5223097Y-2989580D01*
G01X5220211Y-2989808D01*
G01X5217333Y-2990453D01*
G01X5211709Y-2992755D01*
G01X5206445Y-2996009D01*
G01X5201761Y-2999740D01*
G01X5201761Y-2954020D01*
G01X5206445Y-2957751D01*
G01X5211709Y-2961005D01*
G01X5217333Y-2963307D01*
G01X5220211Y-2963952D01*
G01X5223097Y-2964180D01*
G37*
G36*
G01X5764373Y-3030818D02*
G01X5782334Y-3012857D01*
G01X5784535Y-3014736D01*
G01X5787027Y-3016316D01*
G01X5792631Y-3018665D01*
G01X5798655Y-3020086D01*
G01X5804605Y-3020760D01*
G01X5772276Y-3053089D01*
G01X5771602Y-3047139D01*
G01X5770180Y-3041115D01*
G01X5767831Y-3035511D01*
G01X5766252Y-3033020D01*
G01X5764373Y-3030818D01*
G37*
G36*
G01X5229446Y-1168843D02*
G01X5204046Y-1168843D01*
G01X5203818Y-1165957D01*
G01X5203173Y-1163079D01*
G01X5200871Y-1157455D01*
G01X5197616Y-1152190D01*
G01X5193886Y-1147507D01*
G01X5239606Y-1147507D01*
G01X5235875Y-1152190D01*
G01X5232621Y-1157455D01*
G01X5230319Y-1163079D01*
G01X5229674Y-1165957D01*
G01X5229446Y-1168843D01*
G37*
G36*
G01X5204046Y-1307014D02*
G01X5229446Y-1302583D01*
G01X5229694Y-1305458D01*
G01X5230396Y-1308380D01*
G01X5232900Y-1314151D01*
G01X5236440Y-1319472D01*
G01X5240499Y-1323919D01*
G01X5194994Y-1328350D01*
G01X5198318Y-1323460D01*
G01X5201217Y-1318231D01*
G01X5203268Y-1312727D01*
G01X5203843Y-1309892D01*
G01X5204046Y-1307014D01*
G37*
G36*
G01X4945338Y-2705323D02*
G01X4927377Y-2687362D01*
G01X4929256Y-2685160D01*
G01X4930835Y-2682669D01*
G01X4933185Y-2677065D01*
G01X4934606Y-2671041D01*
G01X4935280Y-2665091D01*
G01X4967609Y-2697420D01*
G01X4961659Y-2698094D01*
G01X4955635Y-2699515D01*
G01X4950031Y-2701865D01*
G01X4947540Y-2703444D01*
G01X4945338Y-2705323D01*
G37*
G36*
G01X2644997Y-4356100D02*
G01X2644997Y-4381500D01*
G01X2642111Y-4381728D01*
G01X2639233Y-4382373D01*
G01X2633609Y-4384675D01*
G01X2628345Y-4387929D01*
G01X2623661Y-4391660D01*
G01X2623661Y-4345940D01*
G01X2628345Y-4349671D01*
G01X2633609Y-4352925D01*
G01X2639233Y-4355227D01*
G01X2642111Y-4355872D01*
G01X2644997Y-4356100D01*
G37*
G36*
G01X4076700Y-4327303D02*
G01X4102100Y-4327303D01*
G01X4102328Y-4330189D01*
G01X4102973Y-4333067D01*
G01X4105275Y-4338691D01*
G01X4108529Y-4343955D01*
G01X4112260Y-4348639D01*
G01X4066540Y-4348639D01*
G01X4070271Y-4343955D01*
G01X4073525Y-4338691D01*
G01X4075827Y-4333067D01*
G01X4076472Y-4330189D01*
G01X4076700Y-4327303D01*
G37*
G36*
G01X5717958Y-3805486D02*
G01X5717958Y-3843586D01*
G01X5711932Y-3843390D01*
G01X5706492Y-3843380D01*
G01X5703934Y-3843717D01*
G01X5701451Y-3844426D01*
G01X5699022Y-3845616D01*
G01X5696622Y-3847396D01*
G01X5696622Y-3801676D01*
G01X5699022Y-3803455D01*
G01X5701451Y-3804645D01*
G01X5703934Y-3805354D01*
G01X5706492Y-3805691D01*
G01X5711932Y-3805682D01*
G01X5717958Y-3805486D01*
G37*
G36*
G01X4102100Y-3800697D02*
G01X4076700Y-3800697D01*
G01X4076472Y-3797811D01*
G01X4075827Y-3794933D01*
G01X4073525Y-3789309D01*
G01X4070271Y-3784045D01*
G01X4066540Y-3779361D01*
G01X4112260Y-3779361D01*
G01X4108529Y-3784045D01*
G01X4105275Y-3789309D01*
G01X4102973Y-3794933D01*
G01X4102328Y-3797811D01*
G01X4102100Y-3800697D01*
G37*
G36*
G01X5654082Y-2610761D02*
G01X5672043Y-2628721D01*
G01X5670164Y-2630923D01*
G01X5668585Y-2633414D01*
G01X5666235Y-2639019D01*
G01X5664814Y-2645042D01*
G01X5664140Y-2650992D01*
G01X5631811Y-2618663D01*
G01X5637761Y-2617989D01*
G01X5643785Y-2616568D01*
G01X5649389Y-2614219D01*
G01X5651880Y-2612640D01*
G01X5654082Y-2610761D01*
G37*
G04 TearDrop End*

G04 Pad Start*
G54D11*
G01X457200Y-457200D03*
G01X6400800Y-457200D03*
G01X6400800Y-5638800D03*
G01X457200Y-5638800D03*
G54D12*
G01X1442999Y-4781334D03*
G54D13*
G01X843001Y-4781334D03*
G54D14*
G01X1142975Y-5251666D03*
G54D15*
G01X6584704Y-1904289D03*
G54D17*
G01X6166721Y-1904289D03*
G01X6166721Y-2769311D03*
G54D15*
G01X6584704Y-2769311D03*
G54D18*
G01X1143000Y-2793898D03*
G01X1143000Y-3263900D03*
G01X1143000Y-3733902D03*
G54D19*
G01X1955800Y-2882900D03*
G54D20*
G01X1955800Y-2628900D03*
G01X1955800Y-2374900D03*
G01X1955800Y-2120900D03*
G54D21*
G01X1536700Y-381000D03*
G54D22*
G01X1536700Y-127000D03*
G01X1790700Y-381000D03*
G01X1790700Y-127000D03*
G01X2044700Y-381000D03*
G01X2044700Y-127000D03*
G01X2298700Y-381000D03*
G01X2298700Y-127000D03*
G01X2552700Y-381000D03*
G01X2552700Y-127000D03*
G01X2806700Y-381000D03*
G01X2806700Y-127000D03*
G01X3060700Y-381000D03*
G01X3060700Y-127000D03*
G01X3314700Y-381000D03*
G01X3314700Y-127000D03*
G01X3568700Y-381000D03*
G01X3568700Y-127000D03*
G01X3822700Y-381000D03*
G01X3822700Y-127000D03*
G01X4076700Y-381000D03*
G01X4076700Y-127000D03*
G01X4330700Y-381000D03*
G01X4330700Y-127000D03*
G01X4584700Y-381000D03*
G01X4584700Y-127000D03*
G01X4838700Y-381000D03*
G01X4838700Y-127000D03*
G01X5092700Y-381000D03*
G01X5092700Y-127000D03*
G01X5346700Y-381000D03*
G01X5346700Y-127000D03*
G54D23*
G01X2374900Y-3594100D03*
G54D24*
G01X2374900Y-3340100D03*
G54D25*
G01X4700996Y-3336379D03*
G54D24*
G01X4700996Y-3590379D03*
G54D23*
G01X6489700Y-3594100D03*
G54D24*
G01X6489700Y-3340100D03*
G54D26*
G01X6184900Y-4899025D03*
G01X6184900Y-4699000D03*
G54D27*
G01X6184900Y-4498975D03*
G54D28*
G01X1693901Y-5461000D03*
G54D29*
G01X1893900Y-5461000D03*
G01X2093900Y-5461000D03*
G01X2293899Y-5461000D03*
G54D28*
G01X3167101Y-5461000D03*
G54D29*
G01X3367100Y-5461000D03*
G01X3567100Y-5461000D03*
G01X3767099Y-5461000D03*
G54D28*
G01X4653001Y-5461000D03*
G54D29*
G01X4853000Y-5461000D03*
G01X5053000Y-5461000D03*
G01X5252999Y-5461000D03*
G04 Pad End*

G04 Via Start*
G54D30*
G01X1663700Y-4639277D03*
G01X2344622Y-4643322D03*
G54D31*
G01X3149600Y-4637740D03*
G01X3859558Y-4663163D03*
G54D30*
G01X4610100Y-4635500D03*
G01X5326688Y-4643128D03*
G54D31*
G01X1587500Y-4305300D03*
G01X1585618Y-4497682D03*
G01X4660920Y-4051300D03*
G01X3225800Y-4076700D03*
G01X2342447Y-4546046D03*
G01X3043836Y-4137146D03*
G01X3012273Y-4213346D03*
G01X4491647Y-4283366D03*
G01X5338430Y-4539600D03*
G01X4440912Y-4382622D03*
G01X3862052Y-4546046D03*
G01X1768019Y-4222574D03*
G01X1892305Y-4386034D03*
G01X1993905Y-4386034D03*
G01X2095505Y-4386034D03*
G01X1892305Y-4487634D03*
G01X1993905Y-4487634D03*
G01X2095505Y-4487634D03*
G01X1892305Y-4589234D03*
G01X1993905Y-4589234D03*
G01X2095505Y-4589234D03*
G01X3398302Y-4386026D03*
G01X3499902Y-4386026D03*
G01X3601502Y-4386026D03*
G01X3398302Y-4589226D03*
G01X3499902Y-4589226D03*
G01X3601502Y-4589226D03*
G01X4861114Y-4386026D03*
G01X4962714Y-4386026D03*
G01X5064314Y-4386026D03*
G01X4861114Y-4589226D03*
G01X4962714Y-4589226D03*
G01X5064314Y-4589226D03*
G01X3530600Y-4076700D03*
G01X2958391Y-4267228D03*
G01X4838700Y-991578D03*
G01X4838700Y-1118578D03*
G01X4838700Y-1244600D03*
G01X4838700Y-1372578D03*
G01X4838700Y-1499578D03*
G01X4838700Y-1753578D03*
G01X4838700Y-1880578D03*
G01X4838700Y-2007578D03*
G01X4838700Y-2134578D03*
G01X4838700Y-2261578D03*
G01X4838700Y-2387600D03*
G01X4835491Y-2517809D03*
G01X4597400Y-2451100D03*
G01X4521200Y-2432651D03*
G01X5731861Y-1739242D03*
G01X5547892Y-2709511D03*
G01X6213780Y-2219020D03*
G01X6318250Y-1822450D03*
G01X4221582Y-951400D03*
G01X4419600Y-1806427D03*
G01X4419600Y-1944898D03*
G01X4245780Y-1060399D03*
G01X3086100Y-1752600D03*
G01X2981960Y-2008418D03*
G01X2981960Y-1875189D03*
G01X4749800Y-4241800D03*
G01X4572000Y-4330700D03*
G01X2652517Y-3832860D03*
G01X4470400Y-3832860D03*
G01X4475480Y-4151409D03*
G01X3238500Y-4165600D03*
G01X3162141Y-3832860D03*
G01X1671139Y-4189758D03*
G01X2568598Y-3761740D03*
G01X4622800Y-3820160D03*
G01X6299200Y-1371600D03*
G01X5397500Y-2895600D03*
G01X1719382Y-3893820D03*
G01X3225800Y-3759200D03*
G01X3060700Y-2260600D03*
G01X3067795Y-2387600D03*
G01X3068320Y-2489200D03*
G01X3340100Y-2522039D03*
G01X5554116Y-2311400D03*
G01X6197600Y-2461793D03*
G01X6307361Y-2887439D03*
G01X4404029Y-1600174D03*
G01X4245780Y-1172650D03*
G01X4644845Y-4140200D03*
G01X4820251Y-2604169D03*
G01X4457700Y-2082800D03*
G01X1828800Y-914400D03*
G01X1770380Y-1181100D03*
G01X1948180Y-1168716D03*
G01X2003459Y-822359D03*
G01X2093974Y-890014D03*
G01X2298700Y-779780D03*
G01X2073467Y-1126047D03*
G01X4416459Y-2498759D03*
G01X5778500Y-711200D03*
G01X5778500Y-1866900D03*
G01X5080000Y-2463800D03*
G01X5405942Y-1773332D03*
G01X5575207Y-1689193D03*
G01X5219700Y-1606506D03*
G01X4838700Y-1651000D03*
G01X4034792Y-1290467D03*
G01X3360420Y-1223180D03*
G01X3369781Y-877400D03*
G01X3703320Y-877400D03*
G01X5666503Y-1612900D03*
G01X6426200Y-1270000D03*
G01X5867400Y-1532113D03*
G01X4402755Y-2277308D03*
G01X4483828Y-2362259D03*
G01X5181600Y-2976880D03*
G01X5802696Y-3051180D03*
G01X5803626Y-2454956D03*
G01X5940476Y-2466779D03*
G01X1917700Y-1524000D03*
G01X1917700Y-1625600D03*
G01X5216746Y-1127346D03*
G01X5219700Y-1346200D03*
G01X4965700Y-2667000D03*
G01X2603500Y-4368800D03*
G01X3103563Y-4089174D03*
G01X4089400Y-4368800D03*
G01X5676461Y-3824536D03*
G01X4089400Y-3759200D03*
G01X5633720Y-2649083D03*
G01X279654Y-3784346D03*
G01X279654Y-3530346D03*
G01X279654Y-3276346D03*
G01X279654Y-3022346D03*
G01X279654Y-2768346D03*
G01X279654Y-2514346D03*
G01X279654Y-2260346D03*
G01X279654Y-2006346D03*
G01X279654Y-1752346D03*
G01X279654Y-1498346D03*
G01X279654Y-1244346D03*
G01X279654Y-990346D03*
G01X279654Y-736346D03*
G01X279654Y-5308346D03*
G01X279654Y-5054346D03*
G01X279654Y-4800346D03*
G01X279654Y-4546346D03*
G01X533654Y-3784346D03*
G01X533654Y-3530346D03*
G01X533654Y-3276346D03*
G01X533654Y-3022346D03*
G01X533654Y-2768346D03*
G01X533654Y-2260346D03*
G01X533654Y-2006346D03*
G01X533654Y-1752346D03*
G01X533654Y-1498346D03*
G01X533654Y-1244346D03*
G01X533654Y-5308346D03*
G01X533654Y-5054346D03*
G01X533654Y-4800346D03*
G01X533654Y-4546346D03*
G01X533654Y-4292346D03*
G01X787654Y-3784346D03*
G01X787654Y-3530346D03*
G01X787654Y-3276346D03*
G01X787654Y-3022346D03*
G01X787654Y-2768346D03*
G01X787654Y-2514346D03*
G01X787654Y-2260346D03*
G01X787654Y-2006346D03*
G01X787654Y-1752346D03*
G01X787654Y-1498346D03*
G01X787654Y-1244346D03*
G01X787654Y-990346D03*
G01X787654Y-736346D03*
G01X787654Y-482346D03*
G01X787654Y-228346D03*
G01X787654Y-5816346D03*
G01X787654Y-5562346D03*
G01X787654Y-5308346D03*
G01X787654Y-5054346D03*
G01X787654Y-4546346D03*
G01X787654Y-4292346D03*
G01X1041654Y-3530346D03*
G01X1041654Y-3022346D03*
G01X1041654Y-2514346D03*
G01X1041654Y-2260346D03*
G01X1041654Y-2006346D03*
G01X1041654Y-1752346D03*
G01X1041654Y-1498346D03*
G01X1041654Y-1244346D03*
G01X1041654Y-990346D03*
G01X1041654Y-736346D03*
G01X1041654Y-482346D03*
G01X1041654Y-228346D03*
G01X1041654Y-5816346D03*
G01X1041654Y-5562346D03*
G01X1041654Y-5054346D03*
G01X1041654Y-4800346D03*
G01X1041654Y-4546346D03*
G01X1295654Y-228346D03*
G01X1295654Y-3022346D03*
G01X1295654Y-2514346D03*
G01X1295654Y-2260346D03*
G01X1295654Y-2006346D03*
G01X1295654Y-1752346D03*
G01X1295654Y-5816346D03*
G01X1295654Y-5562346D03*
G01X1295654Y-5054346D03*
G01X1295654Y-4800346D03*
G01X1549654Y-736346D03*
G01X1549654Y-2006346D03*
G01X1549654Y-4038346D03*
G01X1549654Y-3022346D03*
G01X1549654Y-2514346D03*
G01X1549654Y-5816346D03*
G01X1549654Y-5562346D03*
G01X1549654Y-5308346D03*
G01X1803654Y-736346D03*
G01X1803654Y-2260346D03*
G01X1803654Y-2006346D03*
G01X1803654Y-3530346D03*
G01X1803654Y-3276346D03*
G01X1803654Y-3022346D03*
G01X1803654Y-5816346D03*
G01X2057654Y-3276346D03*
G01X2057654Y-3022346D03*
G01X2057654Y-2768346D03*
G01X2057654Y-2514346D03*
G01X2057654Y-5816346D03*
G01X2311654Y-3022346D03*
G01X2311654Y-2768346D03*
G01X2311654Y-2514346D03*
G01X2311654Y-2260346D03*
G01X2311654Y-2006346D03*
G01X2311654Y-1752346D03*
G01X2311654Y-1498346D03*
G01X2311654Y-1244346D03*
G01X2311654Y-5816346D03*
G01X2311654Y-5054346D03*
G01X2565654Y-3022346D03*
G01X2565654Y-2768346D03*
G01X2565654Y-2260346D03*
G01X2565654Y-2006346D03*
G01X2565654Y-1752346D03*
G01X2565654Y-1498346D03*
G01X2565654Y-1244346D03*
G01X2565654Y-5816346D03*
G01X2565654Y-5562346D03*
G01X2565654Y-5308346D03*
G01X2565654Y-5054346D03*
G01X2819654Y-2768346D03*
G01X2819654Y-2514346D03*
G01X2819654Y-2006346D03*
G01X2819654Y-1752346D03*
G01X2819654Y-1498346D03*
G01X2819654Y-1244346D03*
G01X2819654Y-5816346D03*
G01X2819654Y-5562346D03*
G01X2819654Y-5308346D03*
G01X2819654Y-5054346D03*
G01X3073654Y-5816346D03*
G01X3073654Y-5308346D03*
G01X3327654Y-3022346D03*
G01X3327654Y-2768346D03*
G01X3327654Y-5816346D03*
G01X3581654Y-3022346D03*
G01X3581654Y-2768346D03*
G01X3581654Y-5054346D03*
G01X3581654Y-5816346D03*
G01X3835654Y-2768346D03*
G01X3835654Y-2260346D03*
G01X3835654Y-2006346D03*
G01X3835654Y-3276346D03*
G01X3835654Y-5816346D03*
G01X3835654Y-5562346D03*
G01X3835654Y-5054346D03*
G01X4089654Y-3022346D03*
G01X4089654Y-2768346D03*
G01X4089654Y-2260346D03*
G01X4089654Y-3276346D03*
G01X4089654Y-3530346D03*
G01X4089654Y-5816346D03*
G01X4089654Y-5562346D03*
G01X4089654Y-5308346D03*
G01X4089654Y-5054346D03*
G01X4343654Y-5816346D03*
G01X4343654Y-5562346D03*
G01X4343654Y-5308346D03*
G01X4343654Y-5054346D03*
G01X4597654Y-5816346D03*
G01X4851654Y-736346D03*
G01X4851654Y-3276346D03*
G01X4851654Y-5816346D03*
G01X5105654Y-990346D03*
G01X5105654Y-736346D03*
G01X5105654Y-3530346D03*
G01X5105654Y-5054346D03*
G01X5105654Y-5816346D03*
G01X5359654Y-1244346D03*
G01X5359654Y-736346D03*
G01X5359654Y-3276346D03*
G01X5359654Y-5816346D03*
G01X5359654Y-5562346D03*
G01X5613654Y-736346D03*
G01X5613654Y-482346D03*
G01X5613654Y-5816346D03*
G01X5867654Y-736346D03*
G01X5867654Y-5816346D03*
G01X5867654Y-5562346D03*
G01X5867654Y-5308346D03*
G01X5867654Y-5054346D03*
G01X5867654Y-4800346D03*
G01X5867654Y-4546346D03*
G01X6121654Y-1498346D03*
G01X6121654Y-736346D03*
G01X6121654Y-228346D03*
G01X6121654Y-4292346D03*
G01X6121654Y-4038346D03*
G01X6121654Y-5816346D03*
G01X6121654Y-5308346D03*
G01X6121654Y-5054346D03*
G01X6375654Y-2768346D03*
G01X6375654Y-2514346D03*
G01X6375654Y-2260346D03*
G01X6375654Y-1752346D03*
G01X6375654Y-5308346D03*
G01X6375654Y-5054346D03*
G01X6375654Y-4800346D03*
G01X6375654Y-4546346D03*
G01X6375654Y-4292346D03*
G01X6375654Y-4038346D03*
G01X6629654Y-5308346D03*
G01X6629654Y-5054346D03*
G01X6629654Y-4800346D03*
G01X6629654Y-4546346D03*
G01X6629654Y-4292346D03*
G01X6629654Y-4038346D03*
G01X6629654Y-3784346D03*
G01X6629654Y-3276346D03*
G01X6629654Y-3022346D03*
G01X6629654Y-2514346D03*
G01X6629654Y-2260346D03*
G01X6629654Y-2006346D03*
G01X6629654Y-990346D03*
G01X6629654Y-736346D03*
G01X3029499Y-4447799D03*
G01X6630797Y-5638800D03*
G01X6599983Y-5523801D03*
G01X6515799Y-5439617D03*
G01X6400800Y-5408803D03*
G01X6285802Y-5439617D03*
G01X6201617Y-5523801D03*
G01X6170803Y-5638800D03*
G01X6201617Y-5753798D03*
G01X6285802Y-5837983D03*
G01X6400800Y-5868797D03*
G01X6515799Y-5837983D03*
G01X6599983Y-5753798D03*
G01X656383Y-5753798D03*
G01X687197Y-5638800D03*
G01X656383Y-5523801D03*
G01X572199Y-5439617D03*
G01X457200Y-5408803D03*
G01X342202Y-5439617D03*
G01X258017Y-5523801D03*
G01X227203Y-5638800D03*
G01X258017Y-5753798D03*
G01X342202Y-5837983D03*
G01X457200Y-5868797D03*
G01X572199Y-5837983D03*
G01X656383Y-572198D03*
G01X687197Y-457200D03*
G01X656383Y-342201D03*
G01X572199Y-258017D03*
G01X457200Y-227203D03*
G01X342202Y-258017D03*
G01X258017Y-342201D03*
G01X227203Y-457200D03*
G01X258017Y-572198D03*
G01X342202Y-656383D03*
G01X457200Y-687197D03*
G01X572199Y-656383D03*
G01X6599983Y-572198D03*
G01X6630797Y-457200D03*
G01X6599983Y-342201D03*
G01X6515799Y-258017D03*
G01X6400800Y-227203D03*
G01X6285802Y-258017D03*
G01X6201617Y-342201D03*
G01X6170803Y-457200D03*
G01X6201617Y-572198D03*
G01X6285802Y-656383D03*
G01X6400800Y-687197D03*
G01X6515799Y-656383D03*
G04 Via End*

G04 Track Start*
G54D32*
G01X1143000Y-3733902D02*
G01X1143000Y-4229888D01*
G01X1442999Y-4529887D01*
G01X1442999Y-4781334D01*
G54D33*
G01X1585618Y-4497682D02*
G01X1529080Y-4441144D01*
G01X4838700Y-991578D02*
G01X4775200Y-928078D01*
G01X4838700Y-1118578D02*
G01X4838700Y-1074196D01*
G01X4739640Y-975136D01*
G01X5210640Y-244940D02*
G01X5092700Y-127000D01*
G01X4838700Y-1244600D02*
G01X4695360Y-1101260D01*
G01X4838700Y-1372578D02*
G01X4659800Y-1193678D01*
G01X4838700Y-1499578D02*
G01X4624240Y-1285118D01*
G01X4695360Y-1101260D02*
G01X4695360Y-549740D01*
G01X4659800Y-1193678D02*
G01X4659800Y-622892D01*
G01X3196760Y-263060D02*
G01X3060700Y-127000D01*
G01X4624240Y-1285118D02*
G01X4624240Y-637622D01*
G01X4485558Y-498940D01*
G01X4281848Y-498940D01*
G01X4063408Y-534500D02*
G01X4470829Y-534500D01*
G01X4588680Y-652351D01*
G01X4553120Y-667081D02*
G01X4456099Y-570060D01*
G01X4410880Y-829480D02*
G01X4293700Y-712300D01*
G01X4446440Y-788840D02*
G01X4334340Y-676740D01*
G01X4517560Y-707560D02*
G01X4415620Y-605620D01*
G01X4482000Y-748200D02*
G01X4374980Y-641180D01*
G01X4375320Y-870120D02*
G01X4253060Y-747860D01*
G01X4304200Y-951400D02*
G01X4171780Y-818980D01*
G01X4456099Y-570060D02*
G01X3833960Y-570060D01*
G01X4415620Y-605620D02*
G01X3626528Y-605620D01*
G01X3450760Y-429852D01*
G01X3833960Y-570060D02*
G01X3704760Y-440860D01*
G01X3704760Y-263060D01*
G01X3568700Y-127000D01*
G01X3822700Y-127000D02*
G01X3958760Y-263060D01*
G01X3958760Y-429852D01*
G01X4063408Y-534500D01*
G01X4281848Y-498940D02*
G01X4212760Y-429852D01*
G01X4212760Y-263060D01*
G01X4076700Y-127000D01*
G01X4659800Y-622892D02*
G01X4466760Y-429852D01*
G01X4466760Y-263060D01*
G01X4330700Y-127000D01*
G01X4887552Y-498940D02*
G01X4956640Y-429852D01*
G01X3450760Y-429852D02*
G01X3450760Y-263060D01*
G01X3314700Y-127000D01*
G01X2924640Y-411732D02*
G01X2924640Y-244940D01*
G01X2806700Y-127000D01*
G01X2688760Y-429852D02*
G01X2688760Y-263060D01*
G01X2552700Y-127000D01*
G01X2425700Y-254000D02*
G01X2298700Y-127000D01*
G01X2425700Y-429621D02*
G01X2425700Y-254000D01*
G01X1926760Y-429852D02*
G01X1926760Y-263060D01*
G01X1790700Y-127000D01*
G01X4334340Y-676740D02*
G01X3393358Y-676740D01*
G01X3224618Y-508000D01*
G01X3020908Y-508000D01*
G01X2924640Y-411732D01*
G01X4293700Y-712300D02*
G01X3378629Y-712300D01*
G01X4253060Y-747860D02*
G01X3363899Y-747860D01*
G01X4171780Y-818980D02*
G01X3334441Y-818980D01*
G01X3378629Y-712300D02*
G01X3209889Y-543560D01*
G01X2802468Y-543560D01*
G01X2688760Y-429852D01*
G01X3363899Y-747860D02*
G01X3195159Y-579120D01*
G01X2575199Y-579120D01*
G01X2425700Y-429621D01*
G01X3334441Y-818980D02*
G01X3165701Y-650240D01*
G01X2147148Y-650240D01*
G01X1926760Y-429852D01*
G01X3196760Y-429852D02*
G01X3196760Y-263060D01*
G01X4739640Y-975136D02*
G01X4739640Y-571500D01*
G01X4812200Y-498940D01*
G01X4887552Y-498940D01*
G01X4775200Y-928078D02*
G01X4775200Y-609600D01*
G01X4850300Y-534500D01*
G01X4588680Y-652351D02*
G01X4588680Y-1299847D01*
G01X4762500Y-1473667D01*
G01X4762500Y-1677378D01*
G01X4838700Y-1753578D01*
G01X4553120Y-1314620D02*
G01X4553120Y-667081D01*
G01X4517560Y-1329349D02*
G01X4517560Y-707560D01*
G01X4482000Y-1344079D02*
G01X4482000Y-748200D01*
G01X4446440Y-1358808D02*
G01X4446440Y-788840D01*
G01X4410880Y-1373538D02*
G01X4410880Y-829480D01*
G01X4375320Y-1388267D02*
G01X4375320Y-870120D01*
G01X4304200Y-1417726D02*
G01X4304200Y-951400D01*
G01X4838700Y-1880578D02*
G01X4726940Y-1768818D01*
G01X4726940Y-1488440D01*
G01X4553120Y-1314620D01*
G01X4838700Y-2007578D02*
G01X4691380Y-1860258D01*
G01X4691380Y-1503169D01*
G01X4517560Y-1329349D01*
G01X4655820Y-1517899D02*
G01X4482000Y-1344079D01*
G01X4620260Y-1532628D02*
G01X4446440Y-1358808D01*
G01X4584700Y-1547358D02*
G01X4410880Y-1373538D01*
G01X4478020Y-1591546D02*
G01X4304200Y-1417726D01*
G01X4655820Y-1874987D02*
G01X4655820Y-1517899D01*
G01X4620260Y-1889717D02*
G01X4620260Y-1532628D01*
G01X4549140Y-1562087D02*
G01X4375320Y-1388267D01*
G01X4584700Y-1904446D02*
G01X4584700Y-1547358D01*
G01X4549140Y-1919176D02*
G01X4549140Y-1562087D01*
G01X4478020Y-1948634D02*
G01X4478020Y-1591546D01*
G01X2171700Y-254000D02*
G01X2044700Y-127000D01*
G01X2171700Y-457200D02*
G01X2171700Y-254000D01*
G01X2329180Y-614680D02*
G01X2171700Y-457200D01*
G01X3180430Y-614680D02*
G01X2329180Y-614680D01*
G01X3349170Y-783420D02*
G01X3180430Y-614680D01*
G01X4212420Y-783420D02*
G01X3349170Y-783420D01*
G01X4339760Y-910760D02*
G01X4212420Y-783420D01*
G01X4339760Y-1402997D02*
G01X4339760Y-910760D01*
G01X4513580Y-1576817D02*
G01X4339760Y-1402997D01*
G01X4513580Y-1933905D02*
G01X4513580Y-1576817D01*
G01X4635500Y-2005536D02*
G01X4549140Y-1919176D01*
G01X4838700Y-2387600D02*
G01X4686300Y-2235200D01*
G01X4686300Y-2006046D01*
G01X4584700Y-1904446D01*
G01X4838700Y-2134578D02*
G01X4780280Y-2076158D01*
G01X4780280Y-1999447D01*
G01X4655820Y-1874987D01*
G01X4838700Y-2261578D02*
G01X4737100Y-2159978D01*
G01X4737100Y-2006557D01*
G01X4620260Y-1889717D01*
G01X4695360Y-549740D02*
G01X4720760Y-524340D01*
G01X4584700Y-152400D02*
G01X4584700Y-127000D01*
G01X4956640Y-244940D02*
G01X4838700Y-127000D01*
G01X4956640Y-429852D02*
G01X4956640Y-244940D01*
G01X1587500Y-4305300D02*
G01X1587500Y-4165600D01*
G01X4720760Y-288460D02*
G01X4584700Y-152400D01*
G01X4720760Y-524340D02*
G01X4720760Y-288460D01*
G01X1529080Y-4441144D02*
G01X1529080Y-4173731D01*
G01X5210640Y-429852D02*
G01X5210640Y-244940D01*
G01X4850300Y-534500D02*
G01X5105992Y-534500D01*
G01X5210640Y-429852D01*
G01X3408088Y-641180D02*
G01X3196760Y-429852D01*
G01X4374980Y-641180D02*
G01X3408088Y-641180D01*
G54D34*
G01X3937000Y-4740604D02*
G01X3859558Y-4663163D01*
G01X4533900Y-4711700D02*
G01X4610100Y-4635500D01*
G54D33*
G01X4597400Y-4356100D02*
G01X4572000Y-4330700D01*
G01X4749800Y-4241800D02*
G01X4635500Y-4356100D01*
G01X4597400Y-4356100D01*
G01X3225800Y-4165600D02*
G01X3238500Y-4165600D01*
G01X1529080Y-4173731D02*
G01X1612900Y-4089911D01*
G01X1587500Y-4165600D02*
G01X1648460Y-4104640D01*
G01X3040380Y-1798320D02*
G01X3086100Y-1752600D01*
G01X3040380Y-2032617D02*
G01X3040380Y-1798320D01*
G01X2923540Y-2008418D02*
G01X2923540Y-1933609D01*
G01X2981960Y-1875189D01*
G01X2502840Y-2570157D02*
G01X3040380Y-2032617D01*
G01X2467280Y-2523099D02*
G01X2981960Y-2008418D01*
G01X2431720Y-2500239D02*
G01X2923540Y-2008418D01*
G01X2730500Y-3828224D02*
G01X2502840Y-3600564D01*
G01X2502840Y-2570157D01*
G01X3067795Y-2387600D02*
G01X3060700Y-2387600D01*
G01X3009900Y-2438400D01*
G01X2974340Y-2346960D02*
G01X3060700Y-2260600D01*
G01X5308600Y-4419600D02*
G01X5113359Y-4419600D01*
G01X6197600Y-2461793D02*
G01X6307361Y-2571554D01*
G01X6307361Y-2887439D01*
G01X5143500Y-1372111D02*
G01X5143500Y-1308611D01*
G01X6318250Y-1822450D02*
G01X6324600Y-1828800D01*
G01X6489700Y-3594100D02*
G01X6750050Y-3333750D01*
G01X6750050Y-1915269D01*
G01X6324600Y-1828800D02*
G01X6324600Y-2171700D01*
G01X6277280Y-2219020D01*
G01X6213780Y-2219020D01*
G01X4644845Y-4140200D02*
G01X4657545Y-4152900D01*
G01X4838700Y-1372578D02*
G01X5093678Y-1372578D01*
G01X5079489Y-1244600D02*
G01X4838700Y-1244600D01*
G01X5143500Y-1308611D02*
G01X5079489Y-1244600D01*
G01X3068320Y-3512820D02*
G01X3068320Y-2489200D01*
G01X4245780Y-1060399D02*
G01X4172341Y-986960D01*
G01X4245780Y-1172650D02*
G01X4095650Y-1022520D01*
G01X4216400Y-1412545D02*
G01X4404029Y-1600174D01*
G01X4343400Y-1730227D02*
G01X4419600Y-1806427D01*
G01X4343400Y-1589834D02*
G01X4343400Y-1730227D01*
G01X4180840Y-1427274D02*
G01X4343400Y-1589834D01*
G01X4109720Y-1465430D02*
G01X4272280Y-1627990D01*
G01X4216400Y-1225888D02*
G01X4216400Y-1412545D01*
G01X4180840Y-1240618D02*
G01X4180840Y-1427274D01*
G01X4109720Y-1270076D02*
G01X4109720Y-1465430D01*
G01X4033862Y-1093640D02*
G01X4180840Y-1240618D01*
G01X4004403Y-1164760D02*
G01X4109720Y-1270076D01*
G01X4048592Y-1058080D02*
G01X4216400Y-1225888D01*
G01X4019133Y-1129200D02*
G01X4145280Y-1255347D01*
G01X4145280Y-1450701D01*
G01X4307840Y-1613261D01*
G01X4307840Y-1833138D01*
G01X4419600Y-1944898D01*
G01X1828800Y-914400D02*
G01X2057400Y-685800D01*
G01X2104458Y-721360D02*
G01X2003459Y-822359D01*
G01X2073467Y-1126047D02*
G01X2254634Y-944880D01*
G01X1948180Y-1168716D02*
G01X2207576Y-909320D01*
G01X2093974Y-890014D02*
G01X2145788Y-838200D01*
G01X4657545Y-4152900D02*
G01X4699000Y-4152900D01*
G01X4724400Y-4127500D01*
G01X4533900Y-4149569D02*
G01X4536440Y-4152109D01*
G01X4536440Y-4238573D02*
G01X4491647Y-4283366D01*
G01X4536440Y-4152109D02*
G01X4536440Y-4238573D01*
G01X4724400Y-4127500D02*
G01X4724400Y-3803582D01*
G01X4396740Y-3526211D02*
G01X4533900Y-3663371D01*
G01X4533900Y-4149569D01*
G01X4724400Y-3803582D02*
G01X4432300Y-3511482D01*
G01X4432300Y-2921000D01*
G01X4749131Y-2604169D01*
G01X4820251Y-2604169D01*
G01X4597400Y-2451100D02*
G01X4597400Y-2017725D01*
G01X4513580Y-1933905D01*
G01X4597400Y-2451100D02*
G01X4396740Y-2651760D01*
G01X4396740Y-3526211D01*
G01X5778500Y-1333500D02*
G01X5778500Y-711200D01*
G01X4835491Y-2517809D02*
G01X4635500Y-2317818D01*
G01X4635500Y-2005536D01*
G01X5080000Y-2463800D02*
G01X5405942Y-2137858D01*
G01X5405942Y-1773332D01*
G01X5219700Y-1606506D02*
G01X5175206Y-1651000D01*
G01X4838700Y-1651000D01*
G01X2254634Y-944880D02*
G01X3053080Y-944880D01*
G01X3272960Y-1164760D01*
G01X4004403Y-1164760D01*
G01X2207576Y-909320D02*
G01X3067809Y-909320D01*
G01X3287689Y-1129200D01*
G01X4019133Y-1129200D01*
G01X2192847Y-873760D02*
G01X3082539Y-873760D01*
G01X3302419Y-1093640D01*
G01X4033862Y-1093640D01*
G01X2145788Y-838200D02*
G01X3097268Y-838200D01*
G01X3317148Y-1058080D01*
G01X4048592Y-1058080D01*
G01X4095650Y-1022520D02*
G01X3331878Y-1022520D01*
G01X3089138Y-779780D01*
G01X2298700Y-779780D01*
G01X4172341Y-986960D02*
G01X3346607Y-986960D01*
G01X3081007Y-721360D01*
G01X2104458Y-721360D01*
G01X2057400Y-685800D02*
G01X3095737Y-685800D01*
G01X3361336Y-951400D01*
G01X4221582Y-951400D01*
G01X4290060Y-4314388D02*
G01X4290060Y-2613660D01*
G01X4198439Y-2522039D01*
G01X3340100Y-2522039D01*
G01X5575207Y-1689193D02*
G01X5575207Y-1536793D01*
G01X5778500Y-1333500D01*
G01X5666503Y-1612900D02*
G01X5727700Y-1612900D01*
G01X5731861Y-1739242D02*
G01X5867400Y-1603703D01*
G01X5575207Y-1689193D02*
G01X5683677Y-1797662D01*
G01X5760062Y-1797662D02*
G01X5778500Y-1816100D01*
G01X5778500Y-1866900D01*
G01X5683677Y-1797662D02*
G01X5760062Y-1797662D01*
G01X6750050Y-1915269D02*
G01X6299200Y-1464419D01*
G01X6299200Y-1371600D01*
G01X5892289Y-1270000D02*
G01X6426200Y-1270000D01*
G01X5727700Y-1612900D02*
G01X5765800Y-1574800D01*
G01X5765800Y-1396489D01*
G01X5892289Y-1270000D01*
G01X5867400Y-1603703D02*
G01X5867400Y-1532113D01*
G01X3369781Y-877400D02*
G01X3703320Y-877400D01*
G01X3966380Y-1223180D02*
G01X3360420Y-1223180D01*
G01X4034792Y-1290467D02*
G01X4033667Y-1290467D01*
G01X3966380Y-1223180D01*
G01X4272280Y-1897380D02*
G01X4457700Y-2082800D01*
G01X4272280Y-1627990D02*
G01X4272280Y-1897380D01*
G01X4561840Y-2032454D02*
G01X4478020Y-1948634D01*
G01X4416459Y-2498759D02*
G01X4361180Y-2554038D01*
G01X4361180Y-3540941D01*
G01X4521200Y-2432651D02*
G01X4561840Y-2392011D01*
G01X4561840Y-2032454D01*
G01X4325620Y-2506980D02*
G01X4399949Y-2432651D01*
G01X4521200Y-2432651D01*
G01X5397500Y-2895600D02*
G01X5443220Y-2941320D01*
G01X5836920Y-2941320D01*
G01X6489700Y-3594100D01*
G01X5181600Y-2976880D02*
G01X5728396Y-2976880D01*
G01X5802696Y-3051180D01*
G01X4402755Y-2277308D02*
G01X4402755Y-2281186D01*
G01X4483828Y-2362259D01*
G01X5113359Y-4419600D02*
G01X5087959Y-4445000D01*
G01X4420672Y-4445000D01*
G01X4290060Y-4314388D01*
G01X4440912Y-4382622D02*
G01X4325620Y-4267330D01*
G01X4325620Y-2506980D01*
G01X4893911Y-2506311D02*
G01X4893911Y-2493611D01*
G01X5123180Y-2735580D02*
G01X4893911Y-2506311D01*
G01X4838700Y-2438400D02*
G01X4838700Y-2387600D01*
G01X4893911Y-2493611D02*
G01X4838700Y-2438400D01*
G01X1956311Y-1110296D02*
G01X2192847Y-873760D01*
G01X1770380Y-1181100D02*
G01X1841184Y-1110296D01*
G01X1956311Y-1110296D01*
G01X4965700Y-2667000D02*
G01X4700996Y-2931704D01*
G01X4700996Y-3336379D01*
G01X5216746Y-1127346D02*
G01X5216746Y-1343246D01*
G01X5219700Y-1346200D01*
G54D34*
G01X1663700Y-4639277D02*
G01X1612900Y-4690077D01*
G01X1893900Y-5322900D02*
G01X1893900Y-5448300D01*
G01X1612900Y-4690077D02*
G01X1612900Y-5041900D01*
G01X1893900Y-5322900D01*
G01X2293899Y-5313401D02*
G01X2293899Y-5448300D01*
G01X2344622Y-4643322D02*
G01X2400300Y-4699000D01*
G01X2400300Y-5207000D01*
G01X2293899Y-5313401D01*
G01X3149600Y-4637740D02*
G01X3035300Y-4752040D01*
G01X3035300Y-5003800D01*
G01X3367100Y-5335600D01*
G01X3367100Y-5461000D01*
G01X3767099Y-5461000D02*
G01X3767099Y-5326101D01*
G01X3937000Y-5156200D01*
G01X3937000Y-4740604D01*
G01X4853000Y-5461000D02*
G01X4853000Y-5335600D01*
G01X4533900Y-5016500D01*
G01X4533900Y-4711700D01*
G01X5384800Y-4701241D02*
G01X5326687Y-4643128D01*
G01X5252999Y-5461000D02*
G01X5252999Y-5338801D01*
G01X5384800Y-5207000D01*
G01X5384800Y-4701241D01*
G54D33*
G01X5338430Y-4539600D02*
G01X5338430Y-4449430D01*
G01X5308600Y-4419600D01*
G01X3862052Y-4546046D02*
G01X3862052Y-4306552D01*
G01X3068320Y-3512820D01*
G01X2342447Y-4546046D02*
G01X2730500Y-4157993D01*
G01X2730500Y-3828224D01*
G01X3012273Y-4213346D02*
G01X2974340Y-4175414D01*
G01X2974340Y-2346960D01*
G01X3009900Y-2438400D02*
G01X3009900Y-4103210D01*
G01X3043836Y-4137146D01*
G01X2603500Y-4368800D02*
G01X2939438Y-4368800D01*
G01X3102256Y-4205982D01*
G01X5674625Y-3822700D02*
G01X5676461Y-3824536D01*
G54D35*
G01X6489700Y-3594100D02*
G01X6259264Y-3824536D01*
G01X5676461Y-3824536D01*
G54D33*
G01X4660920Y-4051300D02*
G01X4622800Y-4013180D01*
G01X4622800Y-3820160D01*
G01X3138102Y-3774440D02*
G01X3210560Y-3774440D01*
G01X3225800Y-3759200D01*
G01X1768020Y-4222575D02*
G01X1768020Y-4175580D01*
G01X2110740Y-3832860D01*
G01X2652517Y-3832860D01*
G54D35*
G01X2568598Y-3761740D02*
G01X2566058Y-3759200D01*
G54D33*
G01X1671139Y-4140200D02*
G01X1671139Y-4189758D01*
G01X1719382Y-4091958D02*
G01X1671139Y-4140200D01*
G54D35*
G01X2566058Y-3759200D02*
G01X2098582Y-3759200D01*
G01X1963962Y-3893820D01*
G01X1719382Y-3893820D01*
G54D33*
G01X1719382Y-3893820D02*
G01X1719382Y-4091958D01*
G01X3102256Y-4205982D02*
G01X3102256Y-4090481D01*
G01X3103563Y-4089174D01*
G01X3103563Y-3808979D01*
G01X3138102Y-3774440D01*
G01X3162141Y-3832860D02*
G01X3162141Y-4101941D01*
G01X3225800Y-4165600D01*
G01X4361180Y-3540941D02*
G01X4470400Y-3650161D01*
G01X4470400Y-3832860D01*
G01X4470400Y-4146329D01*
G01X4475480Y-4151409D01*
G01X5123180Y-3366573D02*
G01X5123180Y-2735580D01*
G01X6184900Y-4498975D02*
G01X6045200Y-4359275D01*
G01X6045200Y-4288593D01*
G01X5123180Y-3366573D01*
G01X4089400Y-4368800D02*
G01X4089400Y-3759200D01*
G01X5575300Y-2682103D02*
G01X5547892Y-2709511D01*
G01X5575300Y-2372835D02*
G01X5575300Y-2682103D01*
G01X5093678Y-1372578D02*
G01X5464362Y-1743262D01*
G01X5499922Y-1728532D02*
G01X5143500Y-1372111D01*
G01X5464362Y-1743262D02*
G01X5464362Y-2139027D01*
G01X5499922Y-2124298D02*
G01X5499922Y-1728532D01*
G01X5464362Y-2139027D02*
G01X5612536Y-2287202D01*
G01X5612536Y-2335598D01*
G01X5575300Y-2372835D01*
G01X5633720Y-2649083D02*
G01X5676900Y-2605903D01*
G01X5676900Y-2301276D01*
G01X5499922Y-2124298D01*
G01X1612900Y-4089911D02*
G01X1612900Y-3860800D01*
G01X2431720Y-3041980D01*
G01X2431720Y-2500239D01*
G01X1648460Y-4104640D02*
G01X1648460Y-3875529D01*
G01X2467280Y-3056710D01*
G01X2467280Y-2523099D01*
G04 Track End*

M02*

