G04 Layer: BottomSolderMaskLayer*
G04 EasyEDA Pro v2.2.36.7, 2025-05-26 04:11:26*
G04 Gerber Generator version 0.3*
G04 Scale: 100 percent, Rotated: No, Reflected: No*
G04 Dimensions in millimeters*
G04 Leading zeros omitted, absolute positions, 4 integers and 5 decimals*
%FSLAX45Y45*%
%MOMM*%
%AMRoundRect*1,1,$1,$2,$3*1,1,$1,$4,$5*1,1,$1,0-$2,0-$3*1,1,$1,0-$4,0-$5*20,1,$1,$2,$3,$4,$5,0*20,1,$1,$4,$5,0-$2,0-$3,0*20,1,$1,0-$2,0-$3,0-$4,0-$5,0*20,1,$1,0-$4,0-$5,$2,$3,0*4,1,4,$2,$3,$4,$5,0-$2,0-$3,0-$4,0-$5,$2,$3,0*%
%ADD10C,6.1016*%
%ADD11O,1.9016X4.30159*%
%ADD12O,1.9016X4.10159*%
%ADD13O,4.10159X1.9016*%
%ADD14O,1.9016X1.3016*%
%ADD15O,2.1016X1.3016*%
%ADD16O,2.69999X2.0*%
%ADD17RoundRect,0.09618X-0.85271X-0.85271X-0.85271X0.85271*%
%ADD18C,1.8016*%
%ADD19RoundRect,0.09645X-0.90258X0.90258X0.90258X0.90258*%
%ADD20C,1.9016*%
%ADD21RoundRect,0.09691X-1.00234X-1.00234X-1.00234X1.00234*%
%ADD22C,2.1016*%
%ADD23RoundRect,0.09691X1.00234X1.00234X1.00234X-1.00234*%
%ADD24C,1.6016*%
%ADD25RoundRect,0.09554X0.75303X0.75303X0.75303X-0.75303*%
%ADD26RoundRect,0.09562X-0.76499X0.76499X0.76499X0.76499*%
%ADD27C,1.6256*%
G75*


G04 Pad Start*
G54D10*
G01X457200Y-457200D03*
G01X6400800Y-457200D03*
G01X6400800Y-5638800D03*
G01X457200Y-5638800D03*
G54D11*
G01X1442999Y-4781334D03*
G54D12*
G01X843001Y-4781334D03*
G54D13*
G01X1142975Y-5251666D03*
G54D14*
G01X6584704Y-1904289D03*
G54D15*
G01X6166721Y-1904289D03*
G01X6166721Y-2769311D03*
G54D14*
G01X6584704Y-2769311D03*
G54D16*
G01X1143000Y-2793898D03*
G01X1143000Y-3263900D03*
G01X1143000Y-3733902D03*
G54D17*
G01X1955800Y-2882900D03*
G54D18*
G01X1955800Y-2628900D03*
G01X1955800Y-2374900D03*
G01X1955800Y-2120900D03*
G54D19*
G01X1536700Y-381000D03*
G54D20*
G01X1536700Y-127000D03*
G01X1790700Y-381000D03*
G01X1790700Y-127000D03*
G01X2044700Y-381000D03*
G01X2044700Y-127000D03*
G01X2298700Y-381000D03*
G01X2298700Y-127000D03*
G01X2552700Y-381000D03*
G01X2552700Y-127000D03*
G01X2806700Y-381000D03*
G01X2806700Y-127000D03*
G01X3060700Y-381000D03*
G01X3060700Y-127000D03*
G01X3314700Y-381000D03*
G01X3314700Y-127000D03*
G01X3568700Y-381000D03*
G01X3568700Y-127000D03*
G01X3822700Y-381000D03*
G01X3822700Y-127000D03*
G01X4076700Y-381000D03*
G01X4076700Y-127000D03*
G01X4330700Y-381000D03*
G01X4330700Y-127000D03*
G01X4584700Y-381000D03*
G01X4584700Y-127000D03*
G01X4838700Y-381000D03*
G01X4838700Y-127000D03*
G01X5092700Y-381000D03*
G01X5092700Y-127000D03*
G01X5346700Y-381000D03*
G01X5346700Y-127000D03*
G54D21*
G01X2374900Y-3594100D03*
G54D22*
G01X2374900Y-3340100D03*
G54D23*
G01X4700996Y-3336379D03*
G54D22*
G01X4700996Y-3590379D03*
G54D21*
G01X6489700Y-3594100D03*
G54D22*
G01X6489700Y-3340100D03*
G54D24*
G01X6184900Y-4899025D03*
G01X6184900Y-4699000D03*
G54D25*
G01X6184900Y-4498975D03*
G54D26*
G01X1693901Y-5461000D03*
G54D27*
G01X1893900Y-5461000D03*
G01X2093900Y-5461000D03*
G01X2293899Y-5461000D03*
G54D26*
G01X3167101Y-5461000D03*
G54D27*
G01X3367100Y-5461000D03*
G01X3567100Y-5461000D03*
G01X3767099Y-5461000D03*
G54D26*
G01X4653001Y-5461000D03*
G54D27*
G01X4853000Y-5461000D03*
G01X5053000Y-5461000D03*
G01X5252999Y-5461000D03*
G04 Pad End*

M02*

